<?xml version="1.0" standalone="no"?><!DOCTYPE svg PUBLIC "-//W3C//DTD SVG 1.1//EN" "http://www.w3.org/Graphics/SVG/1.1/DTD/svg11.dtd"><svg t="1761121439033" class="icon" viewBox="0 0 1024 1024" version="1.1" xmlns="http://www.w3.org/2000/svg" p-id="8917" data-spm-anchor-id="a313x.search_index.0.i5.6d2a3a81yLxyj5" xmlns:xlink="http://www.w3.org/1999/xlink" width="48" height="48"><path d="M438.67 592.88c-25.95 0-47.06-21.11-47.06-47.06 0-25.95 21.11-47.06 47.06-47.06 25.95 0 47.06 21.11 47.06 47.06 0.01 25.95-21.11 47.06-47.06 47.06z m0-74.01c-14.86 0-26.95 12.09-26.95 26.95s12.09 26.95 26.95 26.95 26.95-12.09 26.95-26.95c0-14.85-12.09-26.95-26.95-26.95zM776.55 594.49c-25.95 0-47.06-21.11-47.06-47.06 0-25.95 21.11-47.06 47.06-47.06s47.06 21.11 47.06 47.06c0 25.95-21.11 47.06-47.06 47.06z m0-74.01c-14.86 0-26.95 12.09-26.95 26.95s12.09 26.95 26.95 26.95 26.95-12.09 26.95-26.95-12.09-26.95-26.95-26.95zM229.92 521.69l94.92 61.94-257.83-35.19L299.9 432.39z" fill="#E60012" p-id="8918"></path><path d="M329.14 585.23L63.65 548.99l239.8-119.49-72.06 91.94 97.75 63.79zM70.38 547.88l250.17 34.15-92.1-60.1 67.91-86.65-225.98 112.6z" fill="#E60012" p-id="8919" data-spm-anchor-id="a313x.search_index.0.i6.6d2a3a81yLxyj5"></path><path d="M235.11 546.57l-9.59-49.36c10.53-2.05 259.24-50.14 367.41-50.14 109.17 0 356.93 48.09 367.42 50.14l-9.63 49.35c-2.52-0.49-253.47-49.21-357.8-49.21-103.33 0-355.27 48.73-357.81 49.22z" fill="#E60012" p-id="8920"></path></svg>