<?xml version="1.0" standalone="no"?><!DOCTYPE svg PUBLIC "-//W3C//DTD SVG 1.1//EN" "http://www.w3.org/Graphics/SVG/1.1/DTD/svg11.dtd"><svg t="1761121371475" class="icon" viewBox="0 0 1024 1024" version="1.1" xmlns="http://www.w3.org/2000/svg" p-id="6779" xmlns:xlink="http://www.w3.org/1999/xlink" width="48" height="48"><path d="M512 143.36a368.64 368.64 0 1 0 368.64 368.64 369.4592 369.4592 0 0 0-368.64-368.64z m337.92 368.64a336.384 336.384 0 0 1-41.984 163.0208L518.8608 174.08A337.92 337.92 0 0 1 849.92 512z m-81.92 155.4432H256l256-442.9824zM505.1392 174.08L216.064 675.0208A337.92 337.92 0 0 1 505.1392 174.08zM512 849.92a337.92 337.92 0 0 1-281.7024-151.552h563.2A337.92 337.92 0 0 1 512 849.92z" fill="#E60012" p-id="6780"></path></svg>
