<?xml version="1.0" standalone="no"?><!DOCTYPE svg PUBLIC "-//W3C//DTD SVG 1.1//EN" "http://www.w3.org/Graphics/SVG/1.1/DTD/svg11.dtd"><svg t="1761121227969" class="icon" viewBox="0 0 1024 1024" version="1.1" xmlns="http://www.w3.org/2000/svg" p-id="4665" xmlns:xlink="http://www.w3.org/1999/xlink" width="48" height="48"><path d="M512 281.62l-99.76-151.59 42.74-28.13L512 188.55l57.02-86.65 42.74 28.13zM687.2 960.22H486.42v-556.9h51.16v505.74H687.2z" fill="#E60012" p-id="4666"></path><path d="M512 430.13c-101 0-183.18-82.17-183.18-183.18S411 63.78 512 63.78s183.18 82.17 183.18 183.18S613 430.13 512 430.13z m0-315.19c-72.79 0-132.01 59.22-132.01 132.01S439.21 378.97 512 378.97c72.79 0 132.01-59.22 132.01-132.01S584.79 114.94 512 114.94z" fill="#E60012" p-id="4667"></path></svg>
