<svg width="40" height="20" xmlns="http://www.w3.org/2000/svg">

 <g>
  <g stroke="currentColor" stroke-width="0.2" id="svg_1" stroke-linejoin="round" stroke-linecap="round" >
   <path stroke="null" id="svg_2" d="m1.78933,17.03614l0,-0.98886l-0.38767,-0.00891l-0.38767,-0.00924l0,-2.09449l0,-2.09449l0.16323,-0.01649l0.16323,-0.01649l0,-1.46779l0,-1.46779l0.22444,-0.00957l0.22444,-0.00957l0,-0.37668l0,-0.37668l-0.22444,-0.00957l-0.22444,-0.00957l0,-1.96255l0,-1.96255l0.2239,-0.00957l0.22417,-0.00957l0.00707,-0.94664c0.00707,-0.91399 0.00925,-0.94697 0.06121,-0.95918c0.02993,-0.00693 0.48588,-0.00165 1.01339,0.01187l0.95952,0.02408l0,0.27641l0,0.27674l9.56935,0.00825l9.56935,0.00825l0.00735,0.75039l0.00735,0.75039l0.41868,0l0.41868,0l0.00979,-0.50301c0.00898,-0.46969 0.01442,-0.51422 0.0827,-0.67188c0.08896,-0.20615 0.2794,-0.4156 0.45133,-0.49641c0.12133,-0.05739 0.34006,-0.06069 4.43958,-0.06927c3.02682,-0.00627 4.35443,0.00198 4.45454,0.02705c0.2005,0.05047 0.37733,0.20714 0.51907,0.46013c0.1012,0.18075 0.13766,0.22 0.2326,0.25101c0.33163,0.10753 0.48153,0.28729 0.61565,0.73851l0.08842,0.29686l0.39094,0c0.34686,0 0.39121,0.00627 0.39121,0.05508c0,0.0597 -1.67365,0.05805 -21.54498,-0.02177c-4.25622,-0.01715 -7.74281,-0.02606 -7.7477,-0.01979c-0.00517,0.00627 0.1061,0.03628 0.24729,0.06729l0.25681,0.05607l0.01823,0.59932c0.01007,0.32984 0.01442,1.00733 0.00952,1.50539l-0.00843,0.90607l-0.08161,0.02639c-0.04489,0.01451 -0.17955,0.05508 -0.29925,0.08972c-0.21574,0.06234 -0.15507,0.06267 6.51559,0.04486c12.01045,-0.03232 22.59264,-0.02936 22.60733,0.00627c0.00762,0.01814 -0.03183,0.0376 -0.08842,0.04321c-0.07481,0.00759 -0.10175,0.02507 -0.1012,0.06597c0.00027,0.03068 0.01904,0.32291 0.04162,0.64946c0.08706,1.26725 0.07862,3.6576 -0.01714,4.84865c-0.07998,0.99744 -0.25165,2.00246 -0.43338,2.53977c-0.11399,0.33677 -0.31993,0.59833 -0.55389,0.70454c-0.08542,0.03892 -0.17765,0.07059 -0.20485,0.07059c-0.03101,0 -0.0672,0.04849 -0.09821,0.13227c-0.06611,0.17712 -0.28021,0.41527 -0.4127,0.45848c-0.07209,0.02375 -1.54497,0.03529 -4.5941,0.03628c-5.11453,0.00198 -4.63954,0.03035 -4.91159,-0.29422c-0.24457,-0.29224 -0.26987,-0.40999 -0.26987,-1.25768l0,-0.69135l-0.42168,0l-0.42168,0l0,1.16994l0,1.16961l-3.08096,0.00957c-1.6946,0.00495 -5.99325,0.01352 -9.55302,0.01847c-3.5595,0.00528 -6.4824,0.01715 -6.49519,0.02672c-0.01279,0.00957 -0.02312,0.15766 -0.02312,0.32885l0,0.31137l-1.02019,0l-1.02019,0l0,-0.98853zm1.95876,0.60921l0,-0.28036l-0.48969,0l-0.48969,0l0.0068,-7.26473l0.0068,-7.26473l0.48289,-0.00891l0.48289,-0.00924l0,-0.22627l0,-0.22627l-0.8779,-0.02408c-0.48289,-0.01352 -0.90212,-0.01847 -0.93177,-0.01154c-0.05359,0.0122 -0.05387,0.06663 -0.06067,7.80435l-0.0068,7.79215l0.93857,0l0.93857,0l0,-0.28036zm19.13081,-0.43308c0.01061,-0.00792 0.01741,-2.13638 0.01496,-4.72991l-0.00435,-4.71573l-0.41624,0l-0.41624,0l0,4.35389l0,4.35389l-8.16829,0.00132c-4.49263,0.00066 -8.81414,0.00429 -9.60335,0.00825l-1.43506,0.00693l0,0.39251l0,0.39218l10.00463,-0.02441c5.50248,-0.01319 10.01306,-0.031 10.02394,-0.03892zm10.76936,-0.14546c0.17493,-0.10819 0.28375,-0.29224 0.37597,-0.63626c0.04652,-0.17317 0.08461,-0.32456 0.08461,-0.33611c0,-0.01154 -0.0321,0.0254 -0.07155,0.08213c-0.09114,0.13128 -0.25355,0.23188 -0.37407,0.23188c-0.20404,0 -0.34333,-0.283 -0.34333,-0.69695c0,-0.34007 0.18554,-1.34146 0.29789,-1.60863c0.12732,-0.30312 0.33653,-0.46013 0.52696,-0.39647c0.12188,0.04057 0.20649,0.15766 0.26634,0.36744c0.0272,0.09565 0.05087,0.14447 0.05223,0.10819c0.00136,-0.03628 0.01796,-0.23485 0.03673,-0.441l0.03455,-0.37503l-0.08025,-0.05937c-0.04407,-0.03232 -0.21383,-0.13095 -0.37733,-0.21868l-0.29681,-0.15931l0.01469,-0.2144c0.02666,-0.3935 0.0438,-3.73511 0.02231,-4.35389l-0.02122,-0.6102l-0.2949,-0.00924l-0.29463,-0.00957l0.01469,0.09203c0.07617,0.47134 0.08896,3.84528 0.0185,4.80841c-0.10338,1.4104 -0.26879,2.73042 -0.44126,3.52104c-0.04407,0.20153 -0.06638,0.25563 -0.10583,0.25563c-0.02748,0 -0.23124,-0.0508 -0.45269,-0.11281c-1.05746,-0.2962 -1.38473,-0.39119 -1.44377,-0.41824c-0.10746,-0.04948 -0.13194,-0.03529 -0.18581,0.10951c-0.02829,0.07652 -0.07944,0.17943 -0.11372,0.22825c-0.05686,0.08213 -0.05795,0.09071 -0.0136,0.10654c0.02666,0.00924 0.32374,0.10786 0.66054,0.21901c0.87083,0.28729 0.97938,0.32786 0.97938,0.36744c0,0.02111 -0.01877,0.02507 -0.04761,0.00957c-0.02612,-0.01418 -1.09418,-0.0343 -2.37363,-0.04486l-2.32602,-0.01913l0,-0.22264l0,-0.22264l-1.06099,-0.00033c-0.66407,0 -1.0999,-0.01319 -1.16492,-0.03496c-0.05713,-0.01946 -0.15208,-0.08774 -0.21111,-0.15239c-0.19696,-0.21605 -0.18744,0.02177 -0.17874,-4.45482l0.00762,-3.99931l-0.43065,0l-0.43065,0l0.00735,4.36214l0.00707,4.36214l0.05876,0.13194c0.07645,0.17119 0.20975,0.33347 0.34795,0.42319l0.11018,0.07158l4.3528,0.01814c2.39404,0.01023 4.44475,0.0122 4.55683,0.00495c0.12351,-0.00825 0.2424,-0.03727 0.30116,-0.07388zm-2.13885,-0.29092c-0.01415,-0.0155 -0.2677,-0.10456 -0.56314,-0.1979l-0.53757,-0.16954l-1.4824,0l-1.48267,0l0,0.18108l0,0.18108l1.6527,0.00891c0.90892,0.00495 1.82953,0.0122 2.04581,0.01682c0.22009,0.00429 0.38169,-0.00462 0.36727,-0.02045zm2.77137,-0.32093c0.182,-0.0752 0.3825,-0.30708 0.47745,-0.55215c0.22118,-0.57128 0.40019,-1.66305 0.49812,-3.04014c0.07019,-0.98754 0.03972,-4.10189 -0.04842,-4.97234l-0.01605,-0.15667l-0.24593,0l-0.24566,0l0.01741,0.25563c0.03836,0.56271 0.05033,2.64895 0.01959,3.4056c-0.07808,1.91703 -0.22335,3.34359 -0.42821,4.20546c-0.03863,0.16327 -0.0944,0.40076 -0.12351,0.52774c-0.02911,0.12699 -0.0642,0.2642 -0.07781,0.3051c-0.03074,0.09104 -0.00326,0.09466 0.17302,0.02177zm-30.6143,-6.41242l0,-6.33293l9.19528,0l9.19528,0l0,0.31434l0,0.31401l0.41488,-0.00891l0.41488,-0.00924l0,-0.69266l0,-0.69266l-10.01823,-0.00825l-10.01823,-0.00825l0,6.72874l0,6.72874l0.40807,0l0.40807,0l0,-6.33293zm1.16981,5.82168l0,-0.51125l0.37407,-0.0066c0.20567,-0.00363 0.41678,-0.00726 0.46929,-0.00825l0.09522,-0.00165l0.00762,0.5195l0.00735,0.5195l8.09293,0l8.09266,0l0,-4.30441l0,-4.30474l-2.80891,0.00858l-2.80891,0.00825l-0.0136,3.81559c-0.0136,3.79415 -0.01387,3.81592 -0.06992,3.90861c-0.03101,0.05113 -0.09848,0.11907 -0.14963,0.15074c-0.0876,0.05409 -0.33979,0.05772 -4.11366,0.05772c-3.3152,0 -4.03586,-0.00792 -4.10849,-0.04453c-0.11589,-0.05871 -0.25355,-0.25266 -0.29028,-0.40801c-0.07672,-0.32687 -0.08461,-0.70454 -0.07672,-3.76941l0.00789,-3.14997l0.06475,-0.1735c0.03537,-0.09532 0.10637,-0.21769 0.15724,-0.27212l0.09277,-0.09862l-1.11649,0l-1.11622,0l0,-1.7686l0,-1.7686l7.74661,0.0287c4.26057,0.01583 7.93623,0.0287 8.16829,0.0287l0.42168,0l0.00789,-0.25563l0.00789,-0.25563l-9.11475,0l-9.11475,0l0,6.28346l0,6.28346l0.5441,0l0.5441,0l0,-0.51125zm0.80037,0.45815c0.03618,-0.01682 0.04298,-0.08774 0.04298,-0.44528l0,-0.42516l-0.36727,0l-0.36727,0l0,0.44528l0,0.44528l0.32428,0c0.17819,0 0.3436,-0.00891 0.36727,-0.02012zm24.72632,-0.10588c0.1363,-0.09631 0.22526,-0.37635 0.34251,-1.07792c0.11181,-0.66826 0.19506,-1.3972 0.26715,-2.34187c0.08406,-1.09903 0.06339,-3.83076 -0.037,-4.89153l-0.01632,-0.17515l-2.49279,0.00693c-1.37113,0.00363 -2.7409,0.01385 -3.04424,0.02243l-0.55117,0.01583l0.00707,4.01251l0.00735,4.01218l0.0691,0.16327c0.07617,0.17943 0.1752,0.26618 0.35666,0.31335c0.07128,0.01847 1.09446,0.02375 2.5657,0.01319c2.22727,-0.01616 2.45443,-0.02276 2.52598,-0.07322zm2.39866,-0.28597c0.19424,-1.0136 0.34523,-2.38178 0.42222,-3.82648c0.0506,-0.95126 0.02394,-3.64177 -0.04217,-4.2302l-0.01551,-0.14018l-1.05936,0c-0.82975,0 -1.05936,0.00891 -1.05882,0.04123c0.00027,0.02276 0.01932,0.27871 0.04217,0.56897c0.05849,0.7395 0.08107,2.81486 0.04108,3.77667c-0.05223,1.25966 -0.14663,2.26303 -0.29844,3.17768c-0.05142,0.3084 -0.06638,0.46046 -0.04625,0.4687c0.03047,0.0122 0.60966,0.18042 1.4035,0.40768c0.24675,0.07092 0.46901,0.12996 0.49377,0.13194c0.03564,0.00231 0.0604,-0.07718 0.1178,-0.37602zm1.09092,0.31698c0.17629,-0.13062 0.32129,-0.49212 0.43718,-1.09243c0.12786,-0.66199 0.11344,-1.06637 -0.04489,-1.25867c-0.16078,-0.19461 -0.42712,-0.07553 -0.55661,0.2487c-0.1499,0.37437 -0.30578,1.32662 -0.27749,1.69373c0.02503,0.3239 0.1061,0.47068 0.26035,0.47068c0.05359,-0.00033 0.13521,-0.02804 0.18146,-0.06201zm-32.06976,-2.30459l-0.00707,-2.00378l-0.34006,0l-0.34006,0l-0.00707,2.00378l-0.00707,2.00378l0.35421,0l0.35421,0l-0.00707,-2.00378zm13.686,1.56608c0.11154,-0.08939 0.27667,-0.32819 0.27667,-0.4001c0,-0.02606 -0.60994,-0.03628 -2.1696,-0.03628c-2.03384,0 -2.17776,-0.00363 -2.298,-0.06003c-0.15126,-0.07092 -0.2511,-0.20285 -0.29925,-0.39515c-0.0506,-0.20153 -0.0506,-5.78177 0,-5.9833c0.04652,-0.18603 0.1548,-0.33512 0.30442,-0.4189c0.11997,-0.06729 0.17221,-0.0696 1.97318,-0.09005c1.01747,-0.01154 1.9778,-0.02276 2.13423,-0.02507l0.28402,-0.00363l-0.09114,-0.11412c-0.17901,-0.22396 0.05196,-0.21242 -3.88324,-0.19494c-2.51728,0.01088 -3.59378,0.02639 -3.67893,0.05277c-0.15316,0.0475 -0.3134,0.23716 -0.36101,0.4278c-0.02802,0.11248 -0.03537,0.82196 -0.03537,3.42374c0,3.01969 0.00381,3.29675 0.04706,3.46629c0.05631,0.22033 0.13602,0.35161 0.25001,0.4123c0.0691,0.03661 0.72229,0.04321 3.75837,0.03727l3.67485,-0.00726l0.11372,-0.09137zm0.61592,0.06102c0.18907,-0.09598 0.17765,0.16459 0.17765,-4.02504l0,-3.77832l-0.37026,0l-0.37026,0l0.14745,0.19296c0.11045,0.14447 0.16214,0.24705 0.2054,0.40669c0.05713,0.21077 0.05767,0.24936 0.06176,3.29477c0.00408,2.81552 0.00027,3.09753 -0.0419,3.26311c-0.06176,0.24243 -0.15643,0.43242 -0.28674,0.57524l-0.10746,0.11742l0.24593,0c0.15099,0 0.28157,-0.01814 0.33843,-0.04684zm-0.25273,-0.78007c0.04108,-0.19032 0.04598,-0.49707 0.04734,-2.98275c0.00109,-1.54431 -0.00952,-2.89072 -0.02394,-3.04212c-0.01415,-0.14942 -0.04979,-0.33479 -0.07917,-0.4123l-0.05332,-0.14084l-0.00245,3.40824c-0.00218,3.58602 0.00109,3.68201 0.11154,3.16976zm-2.49089,0.157c-0.12405,-0.09499 -0.21383,-0.20549 -0.2696,-0.33215l-0.06012,-0.13589l-0.00735,-2.81783c-0.00653,-2.50448 -0.00272,-2.83498 0.03591,-2.97582c0.04326,-0.15766 0.12814,-0.28993 0.25709,-0.40043c0.06556,-0.05607 0.03156,-0.05805 -0.9032,-0.04618c-0.96632,0.01187 -0.97176,0.01253 -1.0999,0.09236c-0.09331,0.05838 -0.14636,0.12072 -0.19234,0.22627l-0.06366,0.14579l0.00735,2.95405l0.00735,2.95372l0.05958,0.11544c0.06665,0.12864 0.14527,0.19757 0.26688,0.2332c0.04489,0.01319 0.51635,0.02441 1.04739,0.0254c0.75739,0.00099 0.95462,-0.00693 0.91463,-0.03793zm1.4454,-0.02243l0.85016,-0.00033l0,-3.35019l0,-3.35052l-1.02699,0.01088c-1.01311,0.01055 -1.02889,0.01187 -1.17009,0.08906c-0.18635,0.10192 -0.29245,0.25134 -0.33027,0.46474c-0.0204,0.11511 -0.02993,1.02053 -0.02993,2.83333c0,2.99561 -0.00571,2.90259 0.18907,3.11567c0.13466,0.14777 0.364,0.22792 0.57266,0.20021c0.05223,-0.00693 0.47772,-0.01253 0.94537,-0.01286zm9.03205,-3.60383l0.00707,-3.55403l-0.42195,0l-0.42168,0l0,3.56326l0,3.56293l0.41488,-0.00891l0.41488,-0.00924l0.0068,-3.55403zm10.77562,1.32761c0.07318,-1.22569 0.0925,-2.03412 0.07617,-3.21594c-0.00925,-0.67122 -0.02448,-1.32794 -0.03428,-1.45954l-0.01768,-0.23913l-0.35802,0l-0.35802,0l0.00109,2.20168c0.00082,1.21084 -0.00843,2.36495 -0.0204,2.56451l-0.02176,0.36282l0.33462,0.18504c0.21954,0.12171 0.34033,0.17284 0.35122,0.14843c0.00925,-0.02012 0.0302,-0.26684 0.04706,-0.54786zm-32.80484,-2.25941l0,-1.4348l-0.19043,0l-0.19043,0l0,1.4348l0,1.4348l0.19043,0l0.19043,0l0,-1.4348zm0,-4.27308l0,-1.88141l-0.18363,0.00957l-0.18363,0.0099l-0.00762,1.79763c-0.00408,0.98886 -0.00082,1.83094 0.00735,1.87184c0.0136,0.06762 0.03101,0.07421 0.19125,0.07421l0.17629,0l0,-1.88174zm4.43659,1.44041l0.3923,-0.11083l0.00707,-1.42029c0.00653,-1.33156 0.00408,-1.42128 -0.04081,-1.43744c-0.11453,-0.04123 -0.73372,-0.18537 -0.79575,-0.18537l-0.06828,0.00033l-0.00816,1.54167c-0.00435,0.84802 -0.00082,1.59115 0.00843,1.65085c0.01279,0.08543 0.02666,0.10489 0.06475,0.09038c0.02639,-0.01023 0.22471,-0.06861 0.44045,-0.1293zm24.29975,-3.31357l-0.01387,-0.12666l0.26824,-0.06828c1.02563,-0.26057 1.69569,-0.41626 1.71146,-0.39713c0.01007,0.0122 0.06475,0.17547 0.12161,0.36216l0.10338,0.34007l0.29137,0.00957c0.27042,0.00858 0.29,0.00495 0.27205,-0.04948c-0.01061,-0.03265 -0.05006,-0.16294 -0.08787,-0.28993c-0.13385,-0.45089 -0.42712,-1.03372 -0.53594,-1.06472c-0.01796,-0.00528 -0.34414,0.07322 -0.72501,0.17416c-1.56347,0.41461 -1.50661,0.40372 -2.39268,0.44825c-0.57321,0.0287 -1.12112,0.03166 -1.91795,0.01055c-0.61347,-0.01616 -1.42146,-0.02969 -1.79553,-0.02969c-0.5996,-0.00033 -0.69046,0.0066 -0.76827,0.05805c-0.11399,0.07553 -0.19968,0.28201 -0.21791,0.52445l-0.01442,0.19164l1.13962,0.00891c0.6268,0.00495 1.91278,0.01253 2.85761,0.01682l1.71827,0.00792l-0.01415,-0.12666zm2.04337,-0.09598c-0.0389,-0.12237 -0.0827,-0.26354 -0.09767,-0.31335c-0.01496,-0.04981 -0.03537,-0.09071 -0.04516,-0.09104c-0.02503,0 -1.81158,0.43836 -1.82137,0.44693c-0.00435,0.00396 0,0.04618 0.00979,0.09367l0.01796,0.08642l1.00332,0l1.00332,0l-0.07019,-0.22264zm1.50253,0.16492c-0.24158,-1.0225 -0.39012,-1.36554 -0.66217,-1.52947l-0.13031,-0.0785l-4.40721,0l-4.40721,0l-0.1363,0.08708c-0.17819,0.11412 -0.27858,0.23814 -0.35693,0.44067c-0.05767,0.14876 -0.06393,0.2111 -0.0642,0.63494l-0.00027,0.47002l0.42848,0l0.42848,-0.00033l0.00109,-0.2553c0.00082,-0.1758 0.01578,-0.28861 0.04788,-0.3615c0.05087,-0.11577 0.22607,-0.25398 0.367,-0.2896c0.08025,-0.02045 1.15567,0.01847 1.87605,0.06762l0.27885,0.0188l0,-0.11445l0,-0.11445l0.25165,-0.0188c0.13847,-0.01023 0.59443,-0.02771 1.01339,-0.03859c0.41896,-0.01121 1.27591,-0.03958 1.90435,-0.06333l1.14261,-0.04255l0.4867,-0.13589c0.2677,-0.07487 0.50683,-0.13589 0.53159,-0.13589c0.11861,0 0.4361,0.60724 0.59171,1.13201c0.03863,0.13029 0.08053,0.27014 0.09304,0.31104c0.02231,0.07191 0.03482,0.07421 0.37924,0.07421c0.32646,0 0.35502,-0.00495 0.34251,-0.05772zm0.55417,0.04189c0,-0.00858 -0.02938,-0.1105 -0.06556,-0.2266c-0.08869,-0.28597 -0.18554,-0.46343 -0.30796,-0.56469c-0.09522,-0.07883 -0.29953,-0.16888 -0.32183,-0.14216c-0.00517,0.0066 0.04706,0.22264 0.11617,0.48058l0.12596,0.4687l0.22662,0c0.1246,0 0.22662,-0.00693 0.22662,-0.01583zm-5.14174,-0.87441c0.7699,-0.02837 0.89205,-0.04057 1.20328,-0.12105c0.19043,-0.04948 0.34088,-0.09631 0.33435,-0.10423c-0.00653,-0.00792 -0.41324,0.0033 -0.90402,0.02507c-0.49051,0.02144 -1.29305,0.0508 -1.78356,0.06498c-0.49023,0.01418 -0.89858,0.03496 -0.90783,0.04618c-0.00898,0.01088 -0.00925,0.04288 -0.00027,0.07092c0.0136,0.04354 0.0993,0.0508 0.60858,0.05014c0.32592,-0.00033 0.97829,-0.01484 1.44948,-0.03199zm6.0561,4.26846c-0.00925,-0.0287 -0.0166,-0.32555 -0.0166,-0.65968l0,-0.60757l-13.43817,0l-13.43817,0l-0.00789,0.3051l-0.00789,0.3051l-0.51009,0.00891l-0.51009,0.00891l0,-1.13861c0,-0.62637 -0.00299,-1.14982 -0.0068,-1.16335c-0.00381,-0.01352 0.22852,-0.0287 0.51581,-0.03364l0.52261,-0.00891l0.00789,0.29884l0.00789,0.29917l4.9513,-0.00099c2.72322,-0.00066 8.7668,-0.01121 13.43001,-0.02342l8.4787,-0.02243l0.00925,-0.48651c0.00517,-0.26783 0.01768,-0.49707 0.02802,-0.50927c0.01034,-0.01253 0.17248,-0.01187 0.36047,0.00132l0.34169,0.02375l0,0.17745l0,0.17745l0.20268,0l0.2024,0l0.00843,-0.15667l0.00816,-0.15667l0.32646,0l0.32646,0l0.00816,0.17317l0.00816,0.17317l0.14827,0l0.14827,0l0,-0.16492l0,-0.16492l0.78704,0c0.73725,0 0.78813,0.00396 0.80282,0.06003c0.02149,0.08147 0.01115,3.15987 -0.01061,3.20275c-0.01088,0.02144 -0.29409,0.03496 -0.79139,0.03694l-0.77425,0.00297l-0.0136,-0.15865l-0.0136,-0.15898l-0.14147,-0.0099l-0.14119,-0.0099l-0.00843,0.17482l-0.00816,0.17482l-0.32646,0l-0.32646,0l-0.00816,-0.15667l-0.00843,-0.15667l-0.2024,0l-0.20268,0l0,0.1979l0,0.1979l-0.35067,0c-0.2949,0 -0.35339,-0.00825 -0.36727,-0.05211zm0.63632,-0.92091l0,-0.87408l-0.27205,0l-0.27205,0l0,0.87408l0,0.87408l0.27205,0l0.27205,0l0,-0.87408zm1.08167,-0.76688l-0.00707,-1.57499l-0.24484,0l-0.24484,0l-0.00707,1.53376c-0.00381,0.8434 -0.00136,1.55223 0.00599,1.57499c0.00898,0.0287 0.08733,0.04123 0.25899,0.04123l0.24593,0l-0.00707,-1.57499zm1.89918,1.46779c-0.00626,-0.0409 -0.01224,-0.27674 -0.0136,-0.52412l-0.0019,-0.44957l-0.07481,-0.01319c-0.04108,-0.00726 -0.35938,-0.00726 -0.70733,0l-0.63252,0.01352l0,0.52379l0,0.52379l0.72066,0l0.72093,0l-0.01143,-0.07421zm-2.49714,-0.6102l-0.00762,-0.38756l-0.19043,0l-0.19043,0l-0.00762,0.38756l-0.00762,0.38756l0.20567,0l0.20567,0l-0.00762,-0.38756zm0.97938,-0.01649l-0.00762,-0.37107l-0.14283,-0.0099l-0.14283,-0.0099l0,0.38097l0,0.38097l0.15044,0l0.15072,0l-0.00789,-0.37107zm-29.10333,-0.98127l0,-1.05549l-0.42168,0l-0.42168,0l0,1.05549l0,1.05549l0.42168,0l0.42168,0l0,-1.05549zm28.12994,0.03298l0,-0.46178l-0.20404,0l-0.20404,0l0,0.46178l0,0.46178l0.20404,0l0.20404,0l0,-0.46178zm0.97938,0l0,-0.46178l-0.14963,0l-0.14963,0l0,0.46178l0,0.46178l0.14963,0l0.14963,0l0,-0.46178zm1.50144,0.03232c0.00462,-0.23617 0.00435,-0.44396 -0.00054,-0.46178c-0.00571,-0.02012 -0.27695,-0.03232 -0.71413,-0.03232l-0.70515,0l0,0.46178l0,0.46178l0.7057,0l0.70597,0l0.00816,-0.42945zm-7.87203,0.37437l4.2486,-0.02177l0,-0.45518l0,-0.45518l-11.58252,0.01616c-6.37032,0.00858 -12.41689,0.02474 -13.43681,0.03562l-1.85429,0.01979l-0.01796,0.11577c-0.00979,0.06399 -0.00952,0.26255 0.00109,0.44133l0.01904,0.32555l9.18712,0c5.05305,0 11.09908,-0.0099 13.43572,-0.0221zm4.90152,-1.23129l0,-0.69266l-0.08842,-0.00033c-0.0487,0 -0.17112,-0.00957 -0.27205,-0.02111l-0.18363,-0.02111l0,0.7141l0,0.71377l0.27205,0l0.27205,0l0,-0.69266zm0.48969,-0.0122l0,-0.27839l-0.14283,-0.01154c-0.2696,-0.02111 -0.26525,-0.02573 -0.26525,0.26585c0,0.14084 0.00653,0.26387 0.01442,0.27344c0.00789,0.00957 0.09957,0.02012 0.20404,0.02342l0.18962,0.00561l0,-0.27839zm0.97938,-0.00429l0,-0.28036l-0.14963,0l-0.14963,0l0,0.28036l0,0.28036l0.14963,0l0.14963,0l0,-0.28036zm1.35345,0.25299l0.14283,-0.00561l0,-0.42879l0,-0.42879l-0.70733,0l-0.70733,0l0,0.42319c0,0.23287 0.00517,0.42945 0.01143,0.43704c0.01088,0.01319 0.95245,0.01517 1.26041,0.00297zm-29.82345,9.69203c-0.79493,-0.0188 -0.80119,-0.02078 -0.97775,-0.2708c-0.19832,-0.28069 -0.19207,-0.1758 -0.19207,-3.27531l0,-2.77066l0.07536,-0.16492c0.08025,-0.17515 0.19751,-0.29224 0.36591,-0.3648c0.12786,-0.05541 1.56945,-0.0663 1.72752,-0.01319c0.13004,0.04387 0.24729,0.16426 0.30606,0.31434c0.04054,0.10423 0.04652,0.25299 0.04788,1.22041l0.00163,1.10167l-0.06665,0.15733c-0.04706,0.11083 -0.10202,0.18108 -0.18744,0.23946l-0.12106,0.08246l-1.02699,0.0099l-1.02699,0.00957l0,0.1636l0,0.16327l1.01447,0c0.99788,0 1.01638,0.00132 1.13554,0.07421c0.13385,0.08213 0.22907,0.23122 0.27259,0.42648c0.01796,0.08114 0.02557,0.5538 0.0204,1.28968c-0.00789,1.12706 -0.01007,1.16566 -0.06856,1.29858c-0.09222,0.20912 -0.21111,0.2797 -0.53811,0.31929c-0.02993,0.0033 -0.37271,-0.00132 -0.76174,-0.01055zm1.0931,-0.18504c0.04217,-0.03826 0.1012,-0.12006 0.13113,-0.18141c0.05169,-0.10654 0.05441,-0.17152 0.05441,-1.31606l0,-1.20392l-0.06611,-0.14018c-0.0438,-0.09269 -0.10447,-0.16261 -0.17874,-0.20615c-0.1061,-0.06234 -0.16785,-0.06597 -1.11051,-0.06597l-0.99788,0l0.00027,1.22865c0.00027,0.67584 0.00789,1.28473 0.01714,1.353c0.02802,0.20483 0.17003,0.45452 0.3085,0.54292c0.12161,0.07718 0.12623,0.07751 0.94347,0.06795c0.78622,-0.00924 0.82485,-0.01253 0.89831,-0.07883zm-0.05468,-3.71499c0.04761,-0.03166 0.1148,-0.10588 0.14963,-0.16492c0.06284,-0.1072 0.06339,-0.11511 0.07019,-1.21282c0.00707,-1.09375 0.00653,-1.10628 -0.05441,-1.23492c-0.03373,-0.07158 -0.1042,-0.16063 -0.15643,-0.1979c-0.09086,-0.06498 -0.13249,-0.06762 -0.90457,-0.06267c-0.77725,0.00528 -0.81452,0.00858 -0.93503,0.07916c-0.08515,0.04981 -0.15044,0.12171 -0.20377,0.22363l-0.07862,0.15008l0,1.24845l0,1.24845l1.01339,-0.00957c0.90076,-0.00891 1.02291,-0.01616 1.09962,-0.06696z"/>
  </g>
 </g>
</svg>
