<svg width="798" height="290" xmlns="http://www.w3.org/2000/svg" >
 <g>
  <g transform="rotate(-90 398.957 144.804)" id="svg_1" >
   <g id="svg_2" >
    <path id="svg_3"  fill="currentColor" d="m357.41348,189.39143l0.59,13.5l-17.42,0c-13.87,0 -17.67,-0.29 -18.61,-1.43c-0.9,-1.08 -1.16,-41.58 -1.09,-170.31c0.09,-168.51 0.08,-168.9 -1.94,-170.73c-2.32,-2.1 -2.53,-6.86 -1.36,-31.12c0.64,-13.43 0.76,-13.99 3.42,-16.65c2.58,-2.59 3.3,-2.76 11.39,-2.76l8.63,0l-0.61,8.5l-6.5,0.5c-5.54,0.43 -6.54,0.8 -6.79,2.5c-0.27,1.86 0.19,1.98 6.75,1.67l7.04,-0.33l0,25.28l5.15,5.44c4.24,4.48 5.73,5.44 8.5,5.44l3.35,0l0,232l-11.42,0c-6.28,0 -12.13,-0.27 -13,-0.61c-0.95,-0.36 -1.58,-1.79 -1.58,-3.58c0,-1.94 -0.44,-2.83 -1.25,-2.56c-0.69,0.23 -1.21,1.17 -1.17,2.08c0.05,0.92 0.17,8.53 0.27,16.92c0.12,10.27 0.5,14.76 1.15,13.75c0.53,-0.83 0.98,-6.11 0.98,-11.75l0.02,-10.25l26,0l0,90l-10.93,0c-10.61,0 -10.98,-0.08 -13,-2.63c-1.69,-2.15 -2.09,-4.15 -2.16,-10.75c-0.05,-4.47 -0.4,-10.37 -0.78,-13.12c-0.59,-4.23 -0.81,-3.03 -1.43,7.73c-0.77,13.41 -0.24,20.08 1.74,21.72c0.65,0.54 6.78,1.11 13.62,1.27l12.44,0.28zm32.25,-205.49c-2.89,0 -8.9,0.29 -13.37,0.63l-8.12,0.64l-0.45,-25.89c-0.25,-14.24 -0.25,-54.36 0,-89.15l0.46,-63.27l31.11,0.27l31.12,0.26l0.26,87.94c0.14,48.37 -0.12,88.32 -0.57,88.77c-0.45,0.45 -6.75,0.52 -14,0.15l-13.19,-0.67l0,-133.54l3,-3c4.01,-4.01 4.04,-8.27 0.08,-12.23c-4.19,-4.18 -10.52,-4.15 -14.56,0.06c-3.99,4.17 -3.88,8.52 0.31,12.02l3.17,2.65l0,134.35l-5.25,0.01zm117,459.02c-3.95,1.79 -6.65,1.92 -37.75,1.81c-18.42,-0.06 -34.51,-0.31 -35.75,-0.55c-2.17,-0.41 -2.25,-0.82 -2.25,-11.36l0,-10.93l27.03,0c1.98,0 3.85,0 5.63,0.01c17.02,0.04 25.11,0.06 28.94,-3.97c3.47,-3.65 3.45,-10.63 3.41,-23.92c0,-1.54 -0.01,-3.15 -0.01,-4.85l0,-24.47l-3.4,-3.4l-3.4,-3.4l-30.35,0l-30.35,0l0.33,-13.2c0.24,-9.31 0.75,-13.8 1.75,-15.22c1,-1.43 1.42,-5.05 1.42,-12.3c0,-8.13 0.29,-10.28 1.4,-10.28c0.76,0 2.79,-1.59 4.5,-3.53c2.84,-3.25 3.1,-4.13 3.1,-10.61l0,-7.07l22.75,0.46c24.17,0.48 29.03,1.29 35.74,5.89c4.34,2.97 8.09,8.83 9.38,14.68c0.57,2.58 1.33,13.57 1.69,24.43l0.66,19.75l2.7,0c1.48,0 3.57,0.66 4.64,1.47c1.36,1.02 4.59,1.48 10.77,1.5c8.4,0.03 8.96,0.17 11.75,2.95l2.92,2.93l0,16.44c0,14.83 -0.19,16.68 -1.97,18.94c-2.93,3.73 -6.81,4.9 -15.1,4.57l-7.43,-0.3l-0.27,-19.75l-0.27,-19.75l-7.96,0l0,81.1l-4.25,1.93zm-140.33,1.36c-0.87,0.34 -16.96,0.57 -35.75,0.53c-27.9,-0.06 -34.96,-0.36 -38.47,-1.6l-4.31,-1.52l0.61,-134.3l3,-6c6.14,-12.28 15.58,-15.5 45.45,-15.5l19.05,0l0,6.47c0,5.78 0.32,6.83 3.06,9.95c1.69,1.92 3.94,3.76 5,4.1c1.75,0.56 1.94,1.6 1.94,10.91c0,8.79 0.29,10.67 2,12.84c1.7,2.16 2,4.06 2,12.57c0,5.52 0.43,11.17 0.96,12.56l0.96,2.52l-31.94,0.29l-31.94,0.29l-2.77,2.77l-2.77,2.77l-0.3,23.93c-0.34,27.4 -0.11,28.44 7.09,31.93c4.09,1.98 5.94,2.1 31.53,2.1l27.18,0l0,10.89c0,9.01 -0.27,11 -1.58,11.5zm64.58,-454.69l0,146.97l-31.5,0.01c-17.33,0 -31.55,-0.26 -31.61,-0.59c-0.06,-0.32 -0.17,-33.34 -0.25,-73.37l-0.14,-72.77l27,0.55l0.52,101.68l-3.01,2.81c-3.41,3.18 -3.95,7.22 -1.45,10.79c2.28,3.26 7.09,5.45 10.37,4.73c3.28,-0.72 7.56,-5.01 8.38,-8.41c0.7,-2.88 -1.56,-7.63 -4.32,-9.11c-1.95,-1.04 -1.99,-2.17 -1.99,-51.53l0,-50.46l4.25,-0.01c2.34,0 8.64,-0.29 14,-0.65l9.75,-0.64zm56.7,146.34c-2.91,1.78 -5.15,1.95 -24.78,1.96c-11.87,0 -21.89,-0.3 -22.25,-0.67c-0.37,-0.36 -0.67,-33.49 -0.67,-73.62l0,-72.95l22.49,0.59c26.06,0.68 27.48,1.07 30.73,8.42c2.02,4.55 2.04,5.64 1.43,67.08c-0.68,68.73 -0.32,65.15 -6.95,69.19zm-22.53,-153.55c-1.98,0.76 -23.73,0.62 -24.5,-0.16c-0.37,-0.36 -0.67,-28.2 -0.67,-61.87l0,-61.2l3.59,-0.58c4,-0.65 9.58,-4.49 12.09,-8.31c1.32,-2.02 1.59,-4.84 1.41,-14.93l-0.22,-12.44l7.64,0c6.73,0 7.6,-0.21 7.3,-1.75c-0.26,-1.41 -1.7,-1.85 -7.31,-2.25c-3.9,-0.28 -5.66,-0.3 -6.4,-1.18c-0.6,-0.72 -0.51,-2.02 -0.33,-4.52c0.03,-0.33 0.05,-0.68 0.08,-1.05c0.14,-2.12 0.59,-2.25 7.6,-2.25c14.57,0 14.87,0.55 15.37,27.94c0.36,19.98 0.26,21.53 -1.47,22.79c-1.76,1.29 -1.86,4.27 -2.12,61.87l-0.28,60.51l-4.22,-0.3l-4.23,-0.31l-0.27,-20.75c-0.17,-13.25 -0.64,-20.75 -1.29,-20.75c-0.67,0 -0.92,7.05 -0.73,20.49c0.23,16.35 0.02,20.59 -1.04,21zm-53.75,558.43c-7.95,5.44 -18.79,2.67 -23.17,-5.93c-2.61,-5.12 -2.84,-8.94 -0.79,-12.92c1.52,-2.94 7,-8.07 8.62,-8.07c1.46,0 1.01,6.3 -0.61,8.44c-2.27,3 -1.75,6.43 1.45,9.64c3.61,3.6 7.32,3.77 10.63,0.47c2.65,-2.66 3.09,-5.49 1.35,-8.73c-1.99,-3.72 -10.14,-13.98 -11.53,-14.51c-0.99,-0.38 -1.37,-2.59 -1.37,-7.89c0,-7.18 -0.08,-7.41 -3,-8.92c-2.93,-1.51 -3,-1.73 -3,-9.03c0,-7.15 -0.1,-7.47 -2.33,-7.47c-3.73,0 -6.65,-4.09 -8.29,-11.63c-2.02,-9.32 -3.09,-45.68 -1.49,-50.55c1.46,-4.42 4.06,-6.86 8.19,-7.7l3.16,-0.65l0.15,-40.47l20.61,0l0,41l2.28,0c3.2,0 6.18,2.35 8.09,6.37c1.3,2.74 1.61,6.54 1.55,18.78c-0.04,8.44 -0.49,19.18 -0.98,23.85c-0.5,4.67 -0.89,10.19 -0.88,12.25c0.03,4.5 -3.62,8.75 -7.51,8.75c-2.52,0 -2.55,0.09 -2.55,8.03c0,6.22 -0.34,8.16 -1.5,8.61c-1.14,0.44 -1.5,2.31 -1.5,7.86c0,7.05 0.13,7.44 4.07,12.14c5.68,6.79 7.16,9.99 7.16,15.43c0,5.61 -2.14,9.64 -6.81,12.85zm108.26,-623.51c-2.52,1.87 -4.44,2.12 -18.25,2.41c-13.82,0.29 -15.51,0.14 -16.09,-1.39c-0.37,-0.94 -0.4,-20.43 -0.07,-43.32c0.32,-22.89 0.26,-45.13 -0.13,-49.42l-0.7,-7.82l16.86,0.32l16.86,0.31l3.42,3.74l3.42,3.73l-0.06,41.27c-0.06,44.51 -0.26,46.45 -5.26,50.17zm-206.92,216.34l-0.26,50.75l-15,0.26c-13.55,0.23 -15.29,0.06 -18,-1.73c-1.25,-0.83 -2.26,-1.49 -3.07,-2.34c-3.43,-3.57 -3.43,-10.44 -3.43,-46.78l0,-41.61l2.28,-3.4c3.25,-4.83 7.06,-5.78 23.48,-5.84l14.26,-0.06l-0.26,50.75zm-0.26,-315.75l0,101.5l-14,0.27c-12.88,0.25 -14.36,0.09 -18.5,-2c-3.36,-1.69 -4.8,-3.16 -5.69,-5.77c-0.85,-2.47 -1.21,-15.37 -1.25,-44c-0.05,-38.46 0.05,-40.66 1.9,-43.7c3.36,-5.52 6.19,-6.3 22.74,-6.3l14.8,0zm0.39,131l-0.39,100.5l-15,0.27c-14.54,0.26 -15.11,0.19 -18.64,-2.21c-2,-1.36 -4.14,-3.92 -4.75,-5.67c-0.74,-2.13 -1.11,-16.48 -1.11,-43.39c0,-40.19 0,-40.21 2.28,-43.59c3.61,-5.36 5.58,-5.88 22.42,-5.9l15.19,-0.01zm71.4,550.38c-0.88,0.87 -61.71,0.53 -67.79,-0.38c-13.66,-2.06 -22.59,-6.94 -26.44,-14.46c-2.3,-4.48 -2.58,-6.31 -2.91,-19.25c-0.03,-0.88 -0.05,-1.71 -0.07,-2.49c-0.21,-7.56 -0.29,-10.62 1.05,-11.5c0.92,-0.6 2.49,-0.19 5.14,0.49c0.41,0.1 0.83,0.21 1.29,0.33l4.44,1.12l0,8.93c0,10.65 1.17,13.44 7.05,16.74c3.61,2.03 6.02,2.46 15.96,2.87c6.77,0.28 12.44,0.07 13.45,-0.5c1.54,-0.86 1.29,-1.27 -2.07,-3.35c-2.85,-1.76 -6.49,-2.66 -14.3,-3.54c-12.74,-1.44 -13.09,-1.77 -13.09,-12.58l0,-7.81l17.5,0c9.62,0 17.5,0.3 17.5,0.67c0,0.37 -0.5,3.54 -1.11,7.05c-0.99,5.66 -0.91,6.6 0.65,8.33c4.34,4.79 6.69,0.96 5.81,-9.47l-0.64,-7.58l23.29,0l0,5.8c0,3.19 0.4,6.23 0.89,6.75c0.5,0.52 1.2,2.36 1.56,4.09l0.66,3.14l-5.17,-0.14c-3.71,-0.1 -5.38,0.28 -5.9,1.36c-0.4,0.83 -1.26,2.52 -1.9,3.77c-1.05,2.02 -0.9,2.37 1.41,3.25c1.42,0.54 6.6,0.98 11.52,0.98l8.93,0l0,4.54c0,2.53 0.87,6.24 1.96,8.38c1.07,2.11 1.67,4.11 1.33,4.46zm106.99,-2.63c-7.55,2.48 -8.74,2.57 -40.68,3.02c-30.68,0.44 -32.86,0.35 -32.25,-1.23c0.36,-0.94 0.65,-5 0.65,-9.03l0,-7.32l9.45,-0.34c10.32,-0.38 13.2,-1.62 10.36,-4.47c-0.88,-0.88 -3.69,-1.84 -6.23,-2.12c-2.54,-0.29 -4.79,-0.8 -4.98,-1.14c-0.2,-0.34 0.24,-2.87 0.98,-5.62c0.73,-2.75 1.35,-7.36 1.38,-10.25l0.04,-5.25l11.25,0l11.25,0l-0.32,7.78c-0.28,6.79 -0.06,8.02 1.71,9.62c1.15,1.04 2.74,1.57 3.65,1.22c1.34,-0.51 1.55,-2.03 1.28,-9.12l-0.32,-8.5l17.01,0l17,0l-0.32,8.25c-0.26,6.47 -0.72,8.59 -2.15,9.82c-1.29,1.12 -5.92,1.94 -15.74,2.8c-15.9,1.39 -18.3,1.87 -18.3,3.62c0,3.2 2.83,3.73 17.73,3.33c15.57,-0.43 18.58,-1.2 22.77,-5.82c1.67,-1.84 2.06,-3.91 2.34,-12.54l0.34,-10.33l4.96,-1.07c2.73,-0.58 5.44,-1.06 6.03,-1.06c0.74,0 0.94,4.63 0.63,14.75c-0.38,12.64 -0.75,15.35 -2.61,18.94c-2.93,5.66 -7.63,9.01 -16.91,12.06zm-211.27,-190.25c-0.06,5.83 -1.25,7.26 -3.87,4.64c-1.15,-1.15 -2.34,-3.11 -2.66,-4.36c-0.31,-1.26 -0.43,-21.92 -0.27,-45.93c0.28,-42 0.36,-43.72 2.29,-45.85c4.01,-4.43 6.56,-5 22.48,-5l15.08,0l-0.14,18.75c-0.08,10.31 0.19,25.36 0.6,33.45l0.75,14.69l-2.88,0.65c-10.77,2.39 -17.79,6 -23.26,11.93c-5.2,5.64 -8.07,11.67 -8.12,17.03zm242.95,3.83c-1.16,1.47 -2.46,2.67 -2.9,2.67c-0.43,0 -1.08,-2.14 -1.43,-4.75c-2.39,-17.57 -11.75,-26.57 -31.94,-30.74l-2.81,-0.58l0.6,-12.21c0.97,-19.77 1.08,-46.92 0.21,-51.04l-0.81,-3.81l17.05,0.31l17.04,0.32l6.53,6.54l0.28,45.31c0.27,44.73 0.25,45.34 -1.82,47.98zm-147.82,-56.33c-1.02,0 -3.89,0.28 -6.37,0.62c-2.88,0.39 -4.76,0.21 -5.2,-0.5c-0.42,-0.69 0.11,-1.12 1.37,-1.12c2.02,0 2.06,-0.45 2.06,-22.75c0,-12.51 0.3,-37.26 0.66,-55l0.66,-32.25l29.98,0l-0.65,8.25c-0.35,4.54 -0.64,26.08 -0.64,47.87l-0.01,39.62l-3.85,0.62c-4.71,0.75 -12.62,5.05 -14.66,7.95c-0.82,1.17 -1.49,3.16 -1.49,4.41c0,1.56 -0.59,2.28 -1.86,2.28zm56.47,-1.58c0.51,1.33 -0.33,1.58 -5.34,1.58l-5.95,0l-1.25,-4.17c-1.93,-6.42 -5.92,-9.83 -11.52,-9.83c-2.78,0 -4.79,-0.5 -5.07,-1.25c-0.25,-0.69 -0.57,-22.51 -0.71,-48.5l-0.27,-47.25l29.5,0l0,53.92c0,29.65 0.27,54.63 0.61,55.5zm87.2,-204.45c-2.3,1.41 -5.06,2.02 -9.06,2.03l-5.75,0l0,-41.9l5.75,-0.3c4.31,-0.22 5.75,-0.68 5.75,-1.8c0,-1.11 -1.54,-1.63 -5.9,-2l-5.9,-0.5l-1.35,-4.66c-1.81,-6.2 -8.67,-13.77 -13.35,-14.71l-3.5,-0.71l-0.55,-34.42l15.58,0c11.96,0 16.25,0.35 18.5,1.52c5.92,3.06 5.97,3.44 5.97,47.96c0,44.89 -0.11,45.79 -6.19,49.49zm0.29,134.75c-3.17,2.13 -4.42,2.28 -18.75,2.28l-15.35,0l0,-39l2.31,0c1.27,0 3.18,-0.66 4.25,-1.47c1.43,-1.08 4.89,-1.47 13.26,-1.5c10.24,-0.03 11.29,-0.2 10.99,-1.78c-0.27,-1.44 -1.59,-1.8 -7.32,-2.02c-5.49,-0.22 -7.87,-0.3 -8.39,-1.32c-0.39,-0.77 0.27,-2.09 1.45,-4.4l0.05,-0.11c1.9,-3.74 2.4,-6.31 2.4,-12.21l0,-7.47l6,0.55c3.3,0.3 6,0.19 6,-0.24c0,-1.66 -2.72,-2.91 -7.02,-3.21l-4.48,-0.32l-0.58,-15.5l5.6,0c3.48,0 5.36,-0.38 4.98,-1c-0.34,-0.55 -2.84,-1 -5.56,-1l-4.94,0l0,-9l7.1,0c6.74,0 7.27,0.17 10.5,3.4l3.4,3.4l-0.06,41.35c-0.04,29.3 -0.4,42.36 -1.25,44.82c-0.68,1.98 -2.65,4.44 -4.59,5.75zm-159.94,-360.32c-0.19,14.36 -0.64,26.35 -1,26.65c-1.17,0.97 -4.9,-0.11 -6.51,-1.89c-2.38,-2.62 -2.6,-56.46 -0.24,-59.06c1.26,-1.39 1.59,-4.15 1.59,-13.31c0,-10.67 0.21,-11.97 2.75,-16.81c2.17,-4.14 3.92,-5.91 8.25,-8.36l5.5,-3.12l26.8,-0.31c30.31,-0.35 35.37,0.27 41.14,5.02c6.1,5.03 7.51,9.35 7.54,23.04c0.02,10.4 0.25,11.98 2.02,13.75c1.9,1.9 2,3.33 2,29.33c0,27.27 0,27.33 -2.31,29.5c-1.28,1.19 -3.53,2.17 -5,2.17l-2.69,0l0,-27.53c0,-23.55 -0.22,-27.62 -1.5,-28.11c-1.23,-0.47 -1.5,-3.02 -1.5,-14.32c0,-12.62 -0.18,-14.02 -2.27,-17.14c-4.36,-6.53 -6.21,-6.9 -34.73,-6.9c-28.04,0 -30.06,0.37 -34.43,6.32c-1.83,2.49 -2.11,4.53 -2.4,17.49c-0.21,9.29 -0.76,15.19 -1.5,16.08c-0.81,0.98 -1.28,9.49 -1.51,27.51zm119.99,448.6l0.24,5.5l-9.99,0.28c-5.5,0.16 -10.32,-0.03 -10.7,-0.41c-0.39,-0.39 -0.7,-3.3 -0.7,-6.48c0,-7.13 -2.26,-10.15 -9.5,-12.7c-7.91,-2.77 -8.5,-4.7 -8.5,-27.79l0,-19.1l18.29,-0.7c10.06,-0.38 19.05,-0.41 19.96,-0.06c0.92,0.36 1.99,1.62 2.38,2.8c1.36,4.13 1.16,32.97 -0.3,43.16c-0.79,5.5 -1.32,12.47 -1.18,15.5zm-138.36,-1.7l-0.29,7.2l-10.27,0.29c-7.68,0.21 -10.37,-0.04 -10.7,-1c-0.58,-1.75 -1.44,-17.7 -2.08,-38.79c-0.38,-12.58 -0.17,-18.91 0.76,-22.5l1.29,-5l4.75,0.04c2.61,0.02 11.3,0.14 19.31,0.25l14.56,0.21l-0.56,19.25c-0.3,10.59 -0.55,22.02 -0.54,25.41c0.02,5.66 -0.14,6.12 -1.97,5.64c-1.09,-0.28 -2.5,-1.14 -3.14,-1.91c-1.73,-2.08 -4.4,-1.69 -7.79,1.16c-2.79,2.35 -3.06,3.13 -3.33,9.75zm86.98,-486.46l-0.27,15.66l-28.25,0.27l-28.25,0.26l0,-32.98l2.95,-1.52c2.39,-1.24 7.28,-1.53 25.87,-1.53c21.73,0 23.05,0.11 25.57,2.09l2.66,2.09l-0.28,15.66zm21.23,329.16c1.82,1.82 3.33,2 17.05,2c14.64,0 15.11,-0.07 17.5,-2.45c2.44,-2.45 2.45,-2.56 2.45,-22.41l0,-19.96l-19.5,0.16l-19.49,0.16l-0.01,20.25c0,18.92 0.13,20.38 2,22.25zm-2.24,-56.5l0.25,10l38.49,0l0.28,-15.77c0.27,-15.62 0.25,-15.79 -2.21,-18.25c-2.42,-2.43 -2.82,-2.48 -17.87,-2.48c-13.71,0 -15.57,0.2 -17.07,1.85c-1.84,2.04 -2.29,7.89 -1.87,24.65zm-167.99,324.72l-0.27,19.28l-8,0.21c-8.77,0.22 -11,-0.37 -14,-3.69c-1.79,-1.99 -2.03,-3.89 -2.32,-18.04c-0.26,-12.9 -0.02,-16.38 1.26,-18.87c2.19,-4.22 3.76,-4.81 14.06,-5.29c6.47,-0.3 9.9,-0.95 12.22,-2.31c1.77,-1.05 3.42,-1.7 3.66,-1.46c0.24,0.25 0.2,2.54 -0.09,5.1c-0.47,4.14 -0.84,4.71 -3.39,5.22l-2.86,0.57l-0.27,19.28zm142.98,-54.77c-2.24,0.69 -35.11,1.18 -40.75,0.61l-5.5,-0.56l-0.57,-22.5l48.07,0l0,11.03c0,7.95 -0.35,11.14 -1.25,11.42zm-4,30.26c-2,1.83 -3.89,2.11 -16.8,2.52c-8,0.26 -15.49,0.12 -16.64,-0.31c-4.19,-1.55 -5.31,-4.72 -5.31,-15l0,-9.64l8.36,-0.68c4.6,-0.38 13.82,-0.62 20.5,-0.54l12.14,0.15l0,10.72c0,9.84 -0.18,10.89 -2.25,12.78zm46.03,-172.27c-1.68,1.18 -4.87,1.56 -13,1.56l-10.78,0l0,-39l26,0l0,17.94c0,17.41 -0.07,17.99 -2.22,19.5zm11.14,17.15c-2.21,2.35 -2.67,2.41 -17.93,2.41c-8.61,0 -15.96,-0.3 -16.32,-0.67c-0.37,-0.36 -0.67,-3.51 -0.67,-7l0,-6.33l27.78,0l0.66,-2.63c0.37,-1.44 0.35,-10.82 -0.03,-20.84l-0.7,-18.22l2.4,-0.64c1.31,-0.35 3.4,-0.65 4.64,-0.66l2.25,-0.01l0.2,23.25c0.01,1.23 0.02,2.42 0.03,3.55c0.19,21.69 0.22,24.67 -1.2,26.56c-0.3,0.4 -0.67,0.76 -1.11,1.23zm-61.75,61.41l0.33,11.5l-14.56,0.28c-8,0.15 -14.87,-0.04 -15.25,-0.42c-0.38,-0.38 -0.69,-5.06 -0.69,-10.39c0,-8.3 0.3,-10.08 2.07,-12.34c2.03,-2.58 2.32,-2.63 13.88,-2.63c8.24,0 12.12,0.38 12.85,1.25c0.57,0.69 1.19,6.43 1.37,12.75zm0.91,17l-0.58,17.5l-15.25,0.28l-15.25,0.27l0,-18.05l31.08,0zm-38.66,19.39c-2.38,0.91 -6.7,0.68 -8.67,-0.47c-1.57,-0.91 -1.75,-2.95 -1.75,-19.47l0,-18.45l12,0l0,18.89c0,16.31 -0.22,18.98 -1.58,19.5zm56.35,-20.26l-0.27,19.37l-5.75,0.3l-5.75,0.3l0,-38.1l4.42,0c2.43,0 5.14,-0.28 6.02,-0.62c1.44,-0.55 1.58,1.33 1.33,18.75zm-37.45,155.62c2.81,3.11 8,3.02 11.23,-0.2c3.22,-3.23 3.1,-6.06 -0.41,-9.57l-2.86,-2.86l-0.74,-22.31c-0.4,-12.27 -1.07,-22.92 -1.48,-23.66c-0.98,-1.76 -2.05,14.85 -2.05,32l-0.01,13.65l-3.51,3.51c-3.79,3.79 -3.82,5.39 -0.17,9.44zm-64.43,-379.42c0.51,2.41 2.07,0.14 2.09,-3.05c0.01,-1.21 0.78,-3.82 1.72,-5.77c1.6,-3.36 1.6,-3.74 0,-6.44c-1.53,-2.6 -1.7,-7.43 -1.7,-49.47c0,-28.59 -0.37,-46.6 -0.94,-46.6c-0.91,0 -2.03,107.26 -1.17,111.33zm136.19,-171.8c-0.15,18.93 0.12,27.47 0.85,27.47c0.72,0 1.1,-6.64 1.18,-20.25c0.11,-21.41 0.43,-33.31 1.03,-38.25c0.31,-2.63 0.05,-3 -2.13,-3c-2.84,0 -3.89,2.74 -1.95,5.08c0.92,1.1 1.18,8.43 1.02,28.95zm0.92,426.92c3.61,0.77 25.94,0.46 26.45,-0.36c0.31,-0.51 -1.49,-1.7 -3.99,-2.66c-3.88,-1.48 -6.57,-1.64 -18.21,-1.08c-14.4,0.69 -18.96,2.03 -10.62,3.13c2.68,0.36 5.54,0.79 6.37,0.97zm-160.42,-0.32c0.79,1.28 25.91,0.53 32.42,-0.97c3.49,-0.81 3.49,-0.81 -2.38,-1.86c-14.21,-2.52 -32.3,-0.82 -30.04,2.83zm159.92,22.2c6.32,0.79 26.41,0.63 26.93,-0.21c1.56,-2.53 -17.94,-3.97 -29.93,-2.21c-4.13,0.61 -4.56,0.85 -2.5,1.39c1.38,0.36 3.85,0.82 5.5,1.03zm-159.82,-0.41c-1.25,1.25 24.14,1.38 28.32,0.14c2.37,-0.7 2.28,-0.8 -1.5,-1.89c-7.44,-2.15 -24,-1.07 -26.82,1.75zm169.13,-239.17c-0.29,1.51 -1.68,1.77 -10.32,1.92c-10.61,0.17 -14.59,-0.46 -15.25,-2.45c-0.31,-0.92 2.83,-1.22 12.75,-1.22c11.99,0 13.13,0.16 12.82,1.75zm-28.06,184.26c-1.24,0.01 -3.26,0.29 -4.5,0.62c-2.12,0.57 -2.25,0.3 -2.25,-4.51l0,-5.12l9,0l0,4.5c0,4 -0.25,4.5 -2.25,4.51zm-165.75,-296.36c0,1.15 0.61,1.42 2.25,0.98c1.24,-0.33 5.85,-0.62 10.25,-0.63c7.71,-0.03 11.76,-1.08 10.19,-2.64c-0.41,-0.41 -4.71,-0.94 -9.57,-1.17c-9.24,-0.44 -13.12,0.58 -13.12,3.46zm213.2,-102.85c0.77,0.77 4.71,1.2 11,1.2c9.13,0 9.8,-0.14 9.8,-2c0,-1.88 -0.67,-2 -11,-2c-10.8,0 -12.2,0.4 -9.8,2.8zm10.3,103.27c4.95,0.32 9.34,0.66 9.75,0.75c1.63,0.39 0.63,-2.81 -1.18,-3.78c-2.41,-1.29 -18.74,-1.38 -19.53,-0.11c-1.06,1.72 1.9,2.57 10.96,3.14zm-223.5,160.93c0,1.86 0.67,2 9.3,2c8.72,0 11.7,-0.81 11.7,-3.2c0,-0.44 -4.73,-0.8 -10.5,-0.8c-9.83,0 -10.5,0.13 -10.5,2zm0,-264.88c0,2.03 0.36,2.1 9.75,1.72c5.36,-0.22 10.32,-0.76 11.02,-1.19c2.87,-1.79 -0.47,-2.65 -10.33,-2.65c-9.96,0 -10.44,0.1 -10.44,2.12zm74.39,398.3c-0.41,1.07 -1.87,1.58 -4.55,1.58l-3.95,0l0.3,-4.25c0.31,-4.23 0.33,-4.25 4.56,-4.56c4.12,-0.3 4.25,-0.21 4.25,2.67c0,1.64 -0.27,3.69 -0.61,4.56zm138.81,-6.62c0.77,0.77 4.73,1.2 11.07,1.2c8.87,0 9.84,-0.18 9.54,-1.75c-0.29,-1.52 -1.77,-1.79 -11.07,-2.03c-10.48,-0.28 -11.99,0.13 -9.54,2.58zm-34.7,-252.47c4.73,0.43 17.36,-0.24 19.5,-1.04c4.73,-1.77 -18.59,-2.99 -25.5,-1.33l-3,0.72l2.5,0.64c1.38,0.36 4.3,0.81 6.5,1.01zm-130.38,-138.08c0.07,11.52 0.45,18.96 0.88,17.25c0.42,-1.65 0.82,-9.32 0.88,-17.05c0.08,-8.72 0.54,-14.47 1.22,-15.15c1.42,-1.42 0.2,-5.3 -1.67,-5.3c-1.2,0 -1.41,3.28 -1.31,20.25zm-47.93,390c-0.3,1.57 0.64,1.75 8.99,1.73c9.59,-0.01 13.22,-0.98 11.22,-2.98c-0.66,-0.66 -4.69,-0.97 -10.48,-0.79c-8.02,0.25 -9.45,0.55 -9.73,2.04zm197.06,-219.75c-0.28,1.14 -29.46,1.96 -30.56,0.86c-2,-2.01 0.68,-2.39 15.06,-2.14c9.86,0.18 15.66,0.65 15.5,1.28zm24.5,192.75c5.36,0.18 10.31,0.43 11,0.54c1.82,0.31 1.53,-2.47 -0.33,-3.18c-0.87,-0.34 -5.82,-0.61 -11,-0.61c-7.6,0 -9.42,0.28 -9.42,1.46c0,1.17 2.01,1.53 9.75,1.79zm-221.4,0.21c0.4,1.05 1.1,1.37 1.89,0.86c0.69,-0.44 5.5,-1.03 10.68,-1.31c6.26,-0.34 9.56,-0.93 9.83,-1.76c0.32,-0.95 -2.09,-1.25 -9.92,-1.23c-10.93,0.01 -13.52,0.73 -12.48,3.44zm-0.35,-392.94c0,1 2.3,1.18 10.25,0.81c11.35,-0.54 12.75,-0.79 12.75,-2.3c0,-0.63 -3.55,-1.02 -9.25,-1.02c-10.4,0.02 -13.75,0.63 -13.75,2.51zm0.18,158.78c-0.29,1.51 0.8,1.7 9.69,1.7c6.27,0 10.27,-0.42 10.7,-1.11c1.18,-1.91 -1.08,-2.4 -10.73,-2.35c-7.96,0.05 -9.38,0.31 -9.66,1.76zm120.99,96.23c-1.2,2.64 -4.29,3.21 -7.42,1.39c-3.68,-2.14 -1.38,-6.92 3.33,-6.92c3.78,0 5.53,2.37 4.09,5.53zm-120.94,10.51c-0.25,1.32 1.15,1.48 9.99,1.15c7.15,-0.27 10.74,-0.82 11.78,-1.82c1.31,-1.26 0.03,-1.4 -9.99,-1.16c-9.39,0.24 -11.54,0.57 -11.78,1.83zm221.77,-264.98c5.22,0.31 10.06,0.64 10.75,0.75c2.24,0.34 1.31,-2.76 -1,-3.34c-3.57,-0.89 -18.74,-0.07 -19.01,1.03c-0.14,0.59 3.7,1.23 9.26,1.56zm-106.76,600.78c1.73,1.73 4.77,1.05 6.42,-1.45c1.22,-1.85 1.16,-2.39 -0.52,-4.46c-1.68,-2.09 -2.21,-2.22 -4.52,-1.17c-2.85,1.3 -3.55,4.91 -1.38,7.08zm5.83,-606.42c-1.59,1.92 -7.4,2.09 -8.92,0.26c-1.89,-2.27 1.44,-5.85 5.1,-5.49c3.8,0.39 5.69,2.97 3.82,5.23zm-10.82,626.92c2.56,1.03 10.43,0.62 12.15,-0.64c1.61,-1.18 1.63,-1.43 0.22,-2.6c-2.08,-1.73 -13.62,-0.53 -13.62,1.41c0,0.73 0.56,1.55 1.25,1.83zm102.99,-509c2.23,0.89 19.76,0.69 19.76,-0.23c0,-1.57 -2.95,-2.11 -11.52,-2.11c-7.64,0 -11.39,1.06 -8.24,2.34zm-213.24,261.6c0,0.87 21.33,0.02 22.3,-0.89c1.46,-1.37 -16.84,-2.22 -19.69,-0.92c-1.44,0.66 -2.61,1.47 -2.61,1.81zm0,-125.63c0,0.51 0.76,0.54 1.75,0.08c0.96,-0.45 5.91,-0.98 11,-1.18c5.09,-0.19 9.25,-0.77 9.25,-1.28c0,-0.51 -4.41,-0.93 -9.8,-0.93c-9.34,0 -12.2,0.78 -12.2,3.31zm117.12,390.33c1.95,2.35 3.88,1.58 3.88,-1.56c0,-3.84 -0.92,-6.08 -2.48,-6.08c-1.73,0 -2.82,5.94 -1.4,7.64zm-69.92,-633.84c1.63,1.63 2.2,1.53 4.33,-0.83c1.67,-1.85 1.69,-2.18 0.26,-3.6c-0.99,-1 -2.34,-1.33 -3.68,-0.91c-2.32,0.74 -2.79,3.46 -0.91,5.34zm128.3,272.2c0.34,0.55 4.61,1 9.5,1c4.89,0 9.16,-0.45 9.5,-1c0.4,-0.64 -3.01,-1 -9.5,-1c-6.49,0 -9.9,0.36 -9.5,1zm-117.84,-252.48c1.81,1.81 3.25,1.56 4.75,-0.81c1.33,-2.11 -1.28,-5.08 -3.66,-4.17c-2.37,0.91 -2.87,3.19 -1.09,4.98zm-12.3,351.98c0.74,1.92 3.04,1.93 4.63,0.01c1.66,-2 0.55,-4.51 -1.99,-4.51c-2.27,0 -3.54,2.16 -2.64,4.5zm14.2,-2.08c2.26,2.25 5.94,1.68 5.94,-0.92c0,-1.46 -0.78,-2.09 -2.87,-2.33c-3.81,-0.43 -5.24,1.08 -3.07,3.25zm-12.2,19.08c0.72,1.87 2.05,1.92 3.53,0.13c1.4,-1.68 0.42,-4.63 -1.53,-4.63c-1.71,0 -2.79,2.43 -2,4.5zm46.64,-421c1.74,2.1 4.5,1.48 4.5,-1c0,-2.21 -3.12,-3.28 -4.76,-1.64c-0.74,0.74 -0.66,1.53 0.26,2.64zm77.25,401.85c2.19,0.9 4.22,0.18 4.56,-1.61c0.26,-1.35 -0.36,-1.74 -2.74,-1.74c-3.11,0 -4.37,2.3 -1.82,3.35zm-54.71,-437.7c2.33,1.71 2.93,1.69 4.43,-0.11c0.99,-1.2 0.76,-1.57 -1.32,-2.09c-3.57,-0.9 -5.49,0.46 -3.11,2.2zm68.67,440.16c1.64,1.64 3.29,0.95 3.29,-1.39c0,-1.23 -0.81,-2.04 -2.25,-2.24c-2.48,-0.35 -3.04,1.63 -1.04,3.63zm-65.46,204.44c-0.48,1.45 -3.02,2.15 -4.05,1.12c-1.4,-1.41 -0.64,-2.37 1.88,-2.37c1.63,0 2.43,0.47 2.17,1.25zm64.93,-185.9c0.38,0.38 1.11,0.26 1.64,-0.27c1.12,-1.12 0.19,-4.08 -1.29,-4.08c-1.15,0 -1.41,3.28 -0.35,4.35zm-8.68,-372.85c0.68,0.82 1.86,1.5 2.62,1.5c0.76,0 1.38,-0.68 1.38,-1.5c0,-0.95 -0.96,-1.5 -2.62,-1.5c-2.22,0 -2.43,0.23 -1.38,1.5z"/>
   </g>
  </g>
 </g>

</svg>
