<svg width="746" height="482" xmlns="http://www.w3.org/2000/svg">
 <g>
  <title>Layer 1</title>
  <g transform="rotate(-89.999 372.986 241.228)">
   <g>
    <path fill="currentColor" d="m238.01893,499.04337c-3.29,2.23 -3.61,2.25 -39.94,2.25l-36.62,0l-3.73,-2.54c-2.05,-1.39 -3.73,-2.96 -3.73,-3.48c0,-0.53 -1.85,-0.7 -4.25,-0.38c-5.78,0.76 -12.43,-2.76 -15.42,-8.17l-2.18,-3.93l-0.26,-297.08c-0.27,-295.35 -0.26,-297.1 1.72,-300.5c1.1,-1.88 3.78,-4.43 5.95,-5.67c3.94,-2.25 3.95,-2.25 47.12,-2c41.84,0.24 43.26,0.31 45.94,2.31c6.34,4.74 6.84,6.27 7.38,22.76l0.5,15.18l12.5,0.6l0.02,-19.8c0.02,-17.26 0.27,-20.33 1.92,-23.97c1.04,-2.29 2.8,-4.65 3.91,-5.25c3.07,-1.64 227.08,-1.45 229.25,0.2c4.31,3.29 4.9,6.69 4.9,28.22l0,20.6l12.5,-0.6l0.5,-14.5c0.55,-15.85 1.56,-19.1 7.32,-23.4c2.77,-2.06 3.65,-2.1 47.18,-2.1c43.53,0 44.41,0.04 47.18,2.1c1.55,1.16 3.67,3.57 4.72,5.35c1.84,3.15 1.89,10.41 1.77,300.8l-0.12,297.57l-2.52,3.82c-1.39,2.1 -4.31,4.73 -6.49,5.84c-4.13,2.11 -9.52,2.68 -10.48,1.11c-0.31,-0.5 1.01,-4.2 2.94,-8.22l3.5,-7.31l0,-27.17c0,-23.57 0.2,-27.25 1.54,-27.77c1.28,-0.49 1.34,-0.99 0.35,-2.86c-1.45,-2.75 -2.81,-3.72 -5.25,-3.74c-1.02,-0.01 -2.74,-1.14 -3.82,-2.52c-1.69,-2.15 -2.77,-2.5 -7.78,-2.5c-6.65,0 -7,-0.49 -7.03,-9.75l-0.01,-5.25l5.91,0c5.37,0 6.15,-0.28 8.5,-3.08c3.13,-3.71 3.28,-6.77 0.52,-10.29c-1.83,-2.31 -2.79,-2.63 -8,-2.63l-5.93,0l0,-15l5.85,0c6.61,0 8.47,-1.34 9.5,-6.83c0.53,-2.81 0.17,-3.8 -2.28,-6.25c-2.46,-2.46 -3.72,-2.92 -7.99,-2.92l-5.08,0l0,-5.42c0,-2.98 -0.27,-6.13 -0.61,-7c-0.51,-1.34 0.35,-1.58 5.55,-1.58c5.37,0 6.47,-0.34 8.61,-2.65c3,-3.23 3.14,-7.21 0.38,-10.72c-1.83,-2.31 -2.79,-2.63 -8,-2.63l-5.93,0l0,-15l5.93,0c5.47,0 6.1,-0.24 8.1,-3.04c2.32,-3.27 2.14,-6.44 -0.62,-10.71c-1.24,-1.92 -2.33,-2.25 -7.43,-2.25l-5.98,0l0,-15l5.93,0c5.21,0 6.17,-0.32 8,-2.63c2.59,-3.3 2.61,-5.97 0.08,-10.12c-1.88,-3.09 -2.28,-3.25 -8,-3.25l-6.01,0l0,-15l5.94,0c5.01,0 6.19,-0.35 7.5,-2.22c0.86,-1.22 1.56,-3.82 1.56,-5.78c0,-1.96 -0.7,-4.56 -1.56,-5.78c-1.31,-1.87 -2.49,-2.22 -7.5,-2.22l-5.94,0l0,-15l4.92,0c6.35,0 7.84,-0.63 9.62,-4.07c1.99,-3.85 1.84,-6.18 -0.61,-9.3c-1.83,-2.31 -2.79,-2.63 -8,-2.63l-5.93,0l0,-14.75l5.56,-0.46c6.27,-0.52 9.04,-2.55 9.99,-7.31c0.45,-2.21 0.04,-3.74 -1.54,-5.75c-1.92,-2.43 -2.82,-2.73 -8.08,-2.73l-5.93,0l0,-16l5.85,0c6.69,0 8.59,-1.39 9.64,-7.03c0.54,-2.92 0.21,-4 -1.87,-6.25c-2.16,-2.33 -3.32,-2.72 -8.07,-2.72l-5.55,0l0,-15l5.39,0c6.45,0 9.23,-1.93 10.13,-7.03c0.48,-2.72 0.13,-4.14 -1.52,-6.25c-1.9,-2.41 -2.81,-2.72 -8.07,-2.72l-5.93,0l0,-15l5.39,0c6.46,0 9.14,-1.9 10.03,-7.09c0.47,-2.77 0.13,-4.21 -1.48,-6.25c-1.84,-2.34 -2.79,-2.66 -8.01,-2.66l-5.93,0l0,-15.71l5.05,0.49c6.7,0.64 9.95,-2.07 9.95,-8.3c0,-5.77 -2.14,-7.48 -9.33,-7.48l-5.67,0l0,-16l5.83,0c4.79,0 6.21,-0.41 8,-2.31c2.88,-3.08 2.82,-7.73 -0.14,-10.52c-1.81,-1.7 -3.54,-2.17 -7.95,-2.17c-3.09,0 -5.83,-0.34 -6.07,-0.75c-0.25,-0.41 -0.23,-3.9 0.05,-7.75l0.51,-7l5.31,0c6.54,0 10.46,-3 10.46,-8c0,-5 -3.43,-7.5 -10.31,-7.5l-5.69,0l0,-15l5.85,0c4.57,0 6.23,-0.43 7.65,-2c1.02,-1.13 3.08,-2 4.72,-2c6.28,0 8.78,-4.13 5.03,-8.28c-1.57,-1.73 -1.78,-4.9 -1.99,-30.57l-0.25,-28.65l-40.98,-0.26l-40.98,-0.26l-0.28,16.26l-0.27,16.26l-6.78,0.3c-6.59,0.28 -6.81,0.38 -7.37,3.18c-0.47,2.38 -1.2,2.99 -4.21,3.5c-2.24,0.37 -5.32,0.02 -8.02,-0.94c-2.4,-0.84 -4.57,-1.54 -4.81,-1.54c-0.25,0 -0.21,2.14 0.08,4.75c0.28,2.61 0.78,9.48 1.09,15.25c0.9,16.54 1.46,26.3 2.52,43.5c0.54,8.8 1.42,23.2 1.96,32c0.53,8.8 1.65,26.35 2.49,39c0.84,12.65 2.65,40.33 4.02,61.5c1.37,21.17 3.19,49.04 4.05,61.92c1.27,19.12 1.32,23.65 0.27,24.64c-1.53,1.43 -29.09,17.31 -46.79,26.95c-24.5,13.34 -39.51,21.73 -40.45,22.6c-1.66,1.56 -2.14,0.98 -2.35,-2.86c-0.12,-2.06 -2.02,-7.43 -4.22,-11.92c-4.7,-9.6 -10.22,-15.05 -19.98,-19.72c-5.97,-2.86 -7.31,-3.11 -16.5,-3.05c-13.16,0.07 -19.21,2.37 -28.06,10.64c-7.2,6.74 -12.35,15.82 -13.19,23.26c-0.28,2.5 -0.91,4.54 -1.4,4.54c-0.48,0 -3.24,-1.51 -6.12,-3.35c-2.87,-1.84 -16.48,-9.67 -30.23,-17.39c-20.42,-11.47 -52.23,-29.81 -53.24,-30.69c-0.25,-0.22 1.08,-22.26 2.78,-46.07c0.55,-7.7 1.89,-27.95 2.98,-45c1.09,-17.05 2.65,-40.67 3.46,-52.5c0.81,-11.83 2.17,-32.3 3.02,-45.5c0.86,-13.2 1.76,-26.48 2.01,-29.5c0.25,-3.02 1.17,-18.08 2.04,-33.45c0.87,-15.37 1.8,-28.31 2.07,-28.75c0.73,-1.18 -0.71,-0.99 -5.86,0.77c-2.52,0.86 -6.32,1.42 -8.43,1.25c-3.5,-0.29 -3.86,-0.59 -4.14,-3.53l-0.31,-3.2l-6.69,-0.3l-6.69,-0.29l-0.27,-16.25l-0.28,-16.25l-31.22,-0.11c-17.18,-0.06 -35.62,-0.22 -40.98,-0.35l-9.75,-0.23l0,29.94c0,26.44 -0.2,30.28 -1.71,32.83c-1.63,2.77 -1.62,2.96 0.25,4.35c1.08,0.8 3.08,1.74 4.46,2.09c1.38,0.35 3.25,1.32 4.18,2.15c0.92,0.83 4.42,1.76 7.79,2.06l6.11,0.56l-0.29,6.6l-0.29,6.61l-5.5,0.31c-6.72,0.38 -10,2.93 -10,7.78c0,4.89 4.66,8.41 11.12,8.41l4.97,0l-0.3,7.25l-0.29,7.25l-5.5,0.31c-3.92,0.22 -6.15,0.92 -7.75,2.43c-3.15,2.95 -2.98,7.76 0.39,11.12c2.19,2.2 3.53,2.64 8.04,2.64l5.41,0l-0.3,7.25l-0.29,7.25l-5.72,0.3c-4.76,0.25 -6.05,0.73 -7.75,2.88c-2.85,3.63 -2.61,7.88 0.62,10.87c2.13,1.97 3.7,2.45 8.04,2.45l5.4,0l-0.3,7.25l-0.29,7.25l-5.72,0.3c-4.76,0.25 -6.05,0.73 -7.75,2.88c-1.11,1.43 -2.03,4.07 -2.03,5.88c0,4.84 3.74,7.44 10.68,7.44l5.41,0l-0.3,7.25l-0.29,7.25l-5.85,0.52c-4.55,0.4 -6.28,1.04 -7.75,2.86c-2.48,3.06 -2.41,7.2 0.17,10.49c1.83,2.31 2.79,2.63 8,2.63l5.93,0l0,15l-5.55,0c-4.71,0 -5.91,0.4 -8,2.65c-3.07,3.31 -3.14,7.43 -0.2,10.84c1.77,2.06 3.48,2.74 8,3.2l5.75,0.59l0,14.72l-5.93,0c-5.27,0 -6.16,0.3 -8.09,2.75c-1.64,2.09 -2.03,3.59 -1.6,6.25c0.8,5 3.73,7 10.23,7l5.39,0l0,15l-5.93,0c-5.21,0 -6.17,0.32 -8,2.63c-2.8,3.57 -2.65,7.88 0.38,10.92c2.03,2.02 3.45,2.45 8.05,2.45l5.59,0l-0.3,7.25l-0.29,7.25l-5.72,0.3c-4.76,0.25 -6.05,0.73 -7.75,2.88c-2.77,3.52 -2.6,7.84 0.42,10.87c2.03,2.02 3.45,2.45 8.05,2.45l5.59,0l-0.3,7.25l-0.29,7.25l-5.64,0.5c-4.43,0.4 -6.09,1.04 -7.72,3c-2.66,3.21 -2.69,7.03 -0.07,10.37c1.83,2.32 2.79,2.63 8.05,2.63l5.97,0l-0.3,7.25l-0.29,7.25l-5.72,0.51c-6.59,0.59 -8.6,2.13 -9.43,7.24c-0.49,2.98 -0.15,4.04 1.99,6.18c2.15,2.15 3.49,2.57 8.16,2.57l5.59,0l-0.3,7.25l-0.29,7.25l-4,0.27c-6.74,0.45 -8.4,1.15 -9.98,4.19c-2.09,4.04 -1.93,5.4 1.07,8.96c2.3,2.74 3.18,3.08 8,3.08l5.41,0l0,14l-5.41,0c-4.82,0 -5.7,0.34 -8,3.08c-3.25,3.86 -3.29,7.31 -0.14,10.47c2.03,2.02 3.45,2.45 8.05,2.45l5.59,0l-0.3,7.25l-0.29,7.25l-5.5,0.51c-6.94,0.64 -7.7,1.16 -9.04,6.15c-1.03,3.82 -0.92,4.27 1.66,6.96c2.36,2.47 3.51,2.88 8.11,2.88l5.36,0l-0.3,7.25l-0.29,7.25l-5.72,0.3c-4.55,0.24 -6.08,0.76 -7.52,2.59c-1,1.28 -3.47,2.61 -5.53,3c-3.27,0.61 -3.73,1.05 -3.73,3.55c0,1.61 0.65,3.1 1.5,3.42c1.28,0.49 1.5,4.53 1.49,27.86c0,26.11 0.1,27.51 2.25,32.51c1.24,2.88 2.6,5.24 3.01,5.25c0.41,0.01 0.75,-2.23 0.75,-4.98l0,-5l91.73,0l0.64,4.68c0.79,5.74 -1.47,10.75 -6.35,14.07zm30.2,-571.48c14.38,0.72 213.63,0.21 214.39,-0.54c0.42,-0.43 -0.22,-1.47 -1.42,-2.31c-2.14,-1.5 -2.19,-2.05 -2.19,-22.98l0,-21.44l-212,0l0,45l-2.44,0c-1.34,0 -2.71,0.43 -3.03,0.96c-0.35,0.56 2.4,1.1 6.69,1.31zm88.77,666.39c-1.69,1.42 -3.88,4.16 -4.87,6.1c-1.46,2.84 -1.93,3.18 -2.46,1.79c-0.36,-0.94 -0.66,-15.42 -0.66,-32.17c0,-28.34 0.14,-30.73 1.97,-34.32c2.44,-4.78 8.31,-9.75 13.28,-11.25c2.06,-0.62 3.75,-1.56 3.75,-2.1c0,-1 -6.09,-0.48 -9.25,0.8c-1.66,0.67 -1.75,-4.62 -1.75,-102.76l0,-103.45l2.26,-3.4c3.27,-4.92 10.08,-8.18 15.62,-7.47c5.34,0.69 10.06,3.48 12.28,7.25c1.51,2.56 1.7,12.26 2.1,106.62c0.41,95.01 0.31,103.75 -1.15,103.14c-2.13,-0.87 -10.75,-1.86 -10.11,-1.16c0.28,0.31 3.41,2.06 6.97,3.9c6.86,3.55 10.28,7.45 12.01,13.7c1.08,3.86 1.44,58.86 0.41,61.54c-0.77,2 -2.39,2.06 -2.39,0.08c0,-2.53 -7.31,-8.98 -11.64,-10.27c-4.98,-1.5 -14.54,-1.59 -19.58,-0.19c-2.04,0.57 -5.1,2.2 -6.79,3.62zm-117.57,-490.91l-0.54,4.25l-16.69,-0.2c-9.18,-0.11 -21.67,-0.45 -27.75,-0.75l-11.06,-0.55l3.75,-20.5c4.01,-21.96 8.49,-47.47 15.35,-87.5c8.26,-48.18 10.84,-62.01 11.8,-63.25c0.71,-0.92 5.69,-1.25 18.7,-1.25l17.74,0l-0.28,3.25c-0.16,1.79 -0.56,8.15 -0.89,14.14c-0.33,5.99 -0.85,11.28 -1.14,11.75c-0.68,1.1 -4.13,1.12 -4.8,0.03c-0.88,-1.41 -23.37,-0.81 -24.83,0.67c-1.04,1.05 -0.91,1.58 0.72,2.83c1.65,1.26 4.36,1.44 15.5,1.03l13.5,-0.49l-0.66,8.64c-0.37,4.76 -0.71,10.35 -0.75,12.43c-0.1,4.24 -2.17,5.78 -5.21,3.88c-2.31,-1.45 -25.75,-1.55 -27.88,-0.13c-1.3,0.87 -1.23,1.22 0.5,2.59c1.69,1.33 4.32,1.5 16.87,1.09l14.87,-0.49l-0.72,12.14c-0.39,6.68 -0.91,12.46 -1.15,12.84c-0.24,0.39 -0.64,6.47 -0.89,13.5c-0.25,7.04 -0.68,16.63 -0.94,21.3c-1.84,32.4 -2.64,45.04 -3.12,48.75zm322.92,3.5c-0.43,0.71 -20.16,0.71 -45.09,0l-11.25,-0.32l0,-6.17c0,-3.4 -0.88,-19.69 -1.96,-36.22c-0.27,-4.13 -0.52,-7.85 -0.74,-11.21c-1.71,-25.97 -1.97,-29.84 -0.63,-30.5c0.4,-0.2 0.96,-0.11 1.66,-0.25c1.56,-0.31 3.67,-0.12 4.69,0.43c2.48,1.33 23.13,1.27 26.66,-0.08c2.72,-1.04 2.75,-1.13 0.88,-2.5c-2.32,-1.71 -27.04,-2.08 -28.06,-0.43c-0.89,1.43 -6.48,1.24 -7.02,-0.25c-0.25,-0.69 -0.81,-6.52 -1.23,-12.95c-0.78,-11.65 -0.77,-11.7 1.5,-12.27c1.26,-0.32 3.15,-0.12 4.2,0.45c2.54,1.35 23.63,1.32 26.18,-0.05c1.6,-0.85 1.76,-1.36 0.81,-2.5c-1.45,-1.75 -24.89,-2.06 -28.04,-0.37c-1.09,0.58 -2.78,0.8 -3.76,0.48c-1.52,-0.48 -1.93,-2.42 -2.72,-12.99l-0.92,-12.42l2.49,-0.47c1.37,-0.26 3.25,-0.07 4.18,0.43c2.38,1.27 20.54,1.14 22.98,-0.17c1.92,-1.03 1.93,-1.17 0.28,-3c-1.51,-1.66 -3.16,-1.92 -12.39,-1.92c-6.31,0 -11.08,0.44 -11.72,1.08c-0.6,0.6 -2.15,0.94 -3.45,0.75c-2.3,-0.32 -2.39,-0.68 -3.08,-12.83c-0.39,-6.88 -0.89,-13.52 -1.11,-14.77l-0.41,-2.27l18.55,0.27l18.56,0.27l4.71,26c2.59,14.3 7.95,44.9 11.92,68c3.96,23.1 8.69,50.1 10.49,60c1.81,9.9 3.09,18.34 2.84,18.75zm-217.34,207.71c0,9 -0.32,12.02 -1.25,11.97c-0.69,-0.03 -9.35,-3.19 -19.25,-7.02c-44.22,-17.08 -84.63,-41.22 -108.44,-64.8c-8.5,-8.42 -8.75,-8.81 -11.39,-17.51c-1.49,-4.9 -2.58,-8.99 -2.43,-9.1c0.82,-0.63 30.9,-2.38 32.21,-1.88c1.17,0.45 2.15,-0.7 3.81,-4.48c1.23,-2.8 2.59,-5.1 3.02,-5.12c0.42,-0.01 10.55,5.76 22.5,12.81c11.94,7.06 30.49,17.41 41.22,22.99c10.73,5.58 21.08,11.01 23,12.06c3.39,1.84 3.52,2.15 4.18,9.31c0.84,9.05 3.71,16.63 8.9,23.52l3.92,5.2l0,12.05zm64,9.33c-0.6,0.26 -1.16,0.5 -1.68,0.72c-2.83,1.21 -4.4,1.88 -5.27,1.36c-1.08,-0.64 -1.08,-3.14 -1.06,-8.75c0.01,-0.82 0.01,-1.71 0.01,-2.67l0,-12.19l3.15,-3.58c5.57,-6.35 9.27,-15.67 9.69,-24.42l0.37,-7.74l17.65,-9.17c34.44,-17.9 65.29,-35.48 71.39,-40.67c1.58,-1.34 1.75,-1.3 1.79,0.42c0.02,1.04 1.52,3.57 3.32,5.61l3.29,3.71l16.17,0.7c10.64,0.45 16.18,1.06 16.19,1.78c0.01,0.61 -1.22,4.7 -2.73,9.1c-2.47,7.18 -3.52,8.77 -10.26,15.52c-25.71,25.71 -67.53,50.72 -110.02,65.79c-4.67,1.66 -10.08,3.68 -12,4.48zm-63.24,46l-0.26,33.21l-39.57,0.26l-39.56,0.26l-2.19,-2.32c-2.18,-2.33 -2.18,-2.33 -2.18,-51.01c0,-26.78 0.23,-48.69 0.51,-48.69c0.28,0 4.44,2.13 9.25,4.74c19.27,10.46 53.69,24.8 70.16,29.24l4.11,1.1l-0.27,33.21zm138.24,-17.29l0,51l-83,0l0,-66.73l4.25,-1.55c31.27,-11.44 39.73,-14.7 48.71,-18.77c5.8,-2.63 14.73,-7.07 19.84,-9.87c5.12,-2.79 9.51,-5.08 9.75,-5.08c0.25,0 0.45,22.95 0.45,51zm-231,-56.75l0,48.75l-39.33,0c-21.64,0 -39.64,-0.3 -40,-0.67c-0.37,-0.36 -0.67,-3.28 -0.67,-6.47c0,-5.44 -0.19,-5.91 -3,-7.36c-1.65,-0.85 -3,-1.81 -3,-2.12c0,-0.32 1.35,-1.84 3,-3.38c2.95,-2.75 3,-2.97 3,-12.87c0,-9.91 -0.05,-10.1 -2.85,-12.18l-2.85,-2.1l2.85,-2.85c2.76,-2.75 2.85,-3.18 2.85,-12.92l0,-10.08l45.65,0l9.22,6.9c5.06,3.8 12.79,9.25 17.17,12.13l7.96,5.22zm319.37,42.89l-0.18,5.36l-38.92,0.26c-21.4,0.15 -39.22,-0.04 -39.59,-0.42c-0.37,-0.37 -0.68,-11.29 -0.68,-24.26l0,-23.58l4.34,-2.74c2.39,-1.51 10.14,-7.02 17.23,-12.25l12.88,-9.51l22.53,0l22.52,0l-0.35,9.02c-0.38,9.87 0.74,13.06 5.35,15.16l2.39,1.09l-3.15,2.13c-3.81,2.56 -4.51,4.8 -4.64,14.76c-0.1,7.32 0.03,7.77 2.86,10.16c1.63,1.37 3.55,2.76 4.25,3.08c1.04,0.49 1.04,0.72 -0.03,1.21c-0.72,0.33 -2.51,1.63 -3.97,2.89c-2.21,1.9 -2.7,3.21 -2.84,7.64zm-319.61,45.11l-0.26,33.25l-40.34,0c-22.19,0 -40.58,-0.38 -40.86,-0.84c-0.29,-0.46 -0.02,-1.34 0.59,-1.95c0.68,-0.68 1.11,-5.31 1.11,-11.88l0,-10.78l-2.95,-1.52l-2.94,-1.53l2.94,-3.22c2.85,-3.11 2.95,-3.57 2.95,-13.05l0,-9.82l-2.99,-1.71c-3.64,-2.07 -3.71,-2.56 -0.54,-4.01c1.36,-0.62 2.76,-2.26 3.11,-3.66l0.64,-2.53l79.81,0l-0.27,33.25zm320.24,31.75c0.44,1.32 -4.37,1.5 -39.33,1.5c-21.9,0 -40.02,-0.19 -40.25,-0.42c-0.23,-0.23 -0.42,-15.19 -0.42,-33.25l0,-32.83l39.43,0c37.52,0 39.46,0.09 40.02,1.85c0.33,1.02 2.16,2.7 4.07,3.73c1.91,1.03 3.46,2.11 3.44,2.4c-0.02,0.28 -1.48,1.42 -3.23,2.53c-3.5,2.2 -4.57,5.66 -4.67,15.16c-0.06,4.87 0.19,5.39 4.19,8.88c2.75,2.4 3.79,3.87 2.93,4.18c-0.72,0.27 -2.52,1.52 -4,2.79c-2.57,2.21 -2.68,2.71 -2.68,12.14c0,5.41 0.22,10.51 0.5,11.34zm-271.11,-338.45c10.26,2.83 21.27,0.77 31.21,-5.83c25.32,-16.82 22.52,-55.69 -4.92,-68.56c-5.07,-2.37 -6.86,-2.66 -16.68,-2.66c-9.95,0 -11.57,0.27 -17,2.8c-7.98,3.72 -16.56,12.27 -20.18,20.1c-2.47,5.35 -2.81,7.21 -2.72,15.1c0.14,11.79 2.67,18.52 9.91,26.33c5.69,6.16 12.91,10.66 20.38,12.72zm290.88,374.2l-0.27,25.75l-17,0.03c-9.35,0.01 -29.71,-0.11 -45.25,-0.27l-28.25,-0.29l0,-50.97l91.03,0l-0.26,25.75zm-392.19,25.25c-23.88,0 -44.04,0.24 -44.8,0.53c-0.76,0.29 -1.7,0.22 -2.08,-0.17c-0.39,-0.38 -0.7,-12.09 -0.7,-26.03l0,-25.33l91,0l0,51l-43.42,0zm226.47,-392.05c14.14,2.9 31.32,-4.63 38.73,-16.98c4.33,-7.23 5.57,-11.91 5.57,-21.04c0.01,-6.39 -0.48,-8.61 -3.11,-14.24c-3.72,-7.94 -11.21,-15.83 -17.97,-18.93c-3.92,-1.81 -6.63,-2.2 -15.27,-2.23c-9.49,-0.03 -11.1,0.25 -16.72,2.84c-6.51,3.01 -14.64,10.56 -17.66,16.4c-0.9,1.73 -2.33,6.18 -3.19,9.89c-4.56,19.65 9.1,40.08 29.62,44.29zm-152.55,90.89c1.28,0.7 9.7,1.11 23.28,1.13c0.81,0 1.59,0 2.36,0c14.92,0.03 22.39,0.05 26.12,-3.68c3.75,-3.73 3.74,-11.22 3.74,-26.21c0,-0.77 0,-1.55 0,-2.36c0,-1.64 0,-3.19 0,-4.67c0.04,-14.43 0.06,-21.53 -3.48,-25.08c-3.44,-3.44 -10.23,-3.54 -23.59,-3.73c-1.42,-0.02 -2.9,-0.04 -4.47,-0.07l-24.41,-0.42l-3.53,3.53l-3.52,3.52l0,51.83l2.75,2.55c1.51,1.4 3.65,3.05 4.75,3.66zm121.5,127.76c0,3.6 -0.44,6.4 -1,6.4c-0.55,0 -1,-0.64 -1,-1.42c0,-2.19 -8.83,-9.44 -12.88,-10.56c-1.99,-0.56 -6.16,-1.01 -9.26,-1.01c-6.93,-0.01 -15.37,4.01 -18.36,8.75c-1.1,1.74 -2.34,3.18 -2.75,3.2c-0.41,0.02 -0.75,-2.93 -0.75,-6.56c0,-5.02 -0.48,-7.27 -2.03,-9.45c-1.12,-1.57 -3.25,-5.46 -4.73,-8.65c-2.4,-5.18 -2.69,-6.98 -2.71,-16.8c-0.01,-10.15 0.21,-11.43 2.83,-16.5c6.29,-12.15 15.17,-18.08 28.14,-18.77c6.41,-0.34 9.1,-0.01 13.52,1.66c6.69,2.52 13.91,9.32 17.45,16.43c2.31,4.62 2.53,6.19 2.51,17.63l-0.01,12.55l-4.49,8.35c-3.97,7.4 -4.48,9.08 -4.48,14.75zm-27,-418.6l0,39l-96,0l0,-39l96,0zm105.04,0l-0.54,38.5l-47.75,0.26l-47.75,0.26l0,-39.02l96.04,0zm-128,525l-0.54,45.5l-20.03,0.27l-20.03,0.27l-3.97,-4.14c-4.41,-4.61 -12.5,-8.69 -18.82,-9.5c-4.96,-0.63 -12.57,2.79 -14.14,6.35c-0.68,1.55 -1.84,2.25 -3.75,2.25l-2.76,0l0,-41l84.04,0zm98.39,42.51l-1.46,3.49l-41.97,0l0,-46l83,0l0,41l-2.93,0c-2.09,0 -3.12,-0.6 -3.59,-2.07c-1.68,-5.3 -13.17,-7.73 -20.95,-4.43c-1.94,0.83 -5.13,2.18 -7.09,3.01c-2.41,1.03 -4.02,2.63 -5.01,5zm151.57,-556.51l0,54l-24.94,0c-13.72,0 -25.15,-0.34 -25.4,-0.75c-0.24,-0.41 -1.02,-4.33 -1.72,-8.7c-1.06,-6.61 -1.83,-8.55 -4.51,-11.48c-2.82,-3.08 -3.99,-3.6 -9.09,-4.05l-5.84,-0.52l-0.55,-28.5l72.05,0zm-394.03,46.75l-1.15,7.25l-49.82,0l0,-54l71.05,0l-0.27,14.25l-0.28,14.25l-5,0.5c-5.8,0.59 -10.75,3.7 -12.31,7.72c-0.58,1.53 -1.58,6.04 -2.22,10.03zm120.58,226.8l-2.46,2.45l-43.24,0l-2.93,-2.92l-2.92,-2.93l0,-23.02c0,-22.46 0.05,-23.08 2.25,-25.54l2.25,-2.53l20.5,-0.1c1.54,-0.01 2.98,-0.02 4.33,-0.03c17.82,-0.09 20.21,-0.1 21.65,1.06c0.33,0.27 0.61,0.6 1.02,1.01c1.89,1.89 2,3.33 2,26.05l0,24.04l-2.45,2.46zm236.86,-6.3c-0.5,1.6 -2.55,1.75 -24.38,1.75l-23.84,0l-0.58,-4.75c-0.31,-2.61 -1.04,-11.73 -1.61,-20.25c-0.57,-8.52 -1.27,-17.64 -1.55,-20.25l-0.52,-4.75l28.54,0c16.19,0 28.53,0.39 28.53,0.9c0,3.13 -4.15,45.93 -4.59,47.35zm-323.25,-9.75l-0.66,11l-24.18,0.27c-13.3,0.14 -24.4,-0.08 -24.66,-0.51c-0.26,-0.43 -0.78,-4.6 -1.16,-9.27c-0.37,-4.67 -0.86,-10.07 -1.08,-11.99c-0.23,-1.92 -0.71,-9.01 -1.07,-15.75l-0.66,-12.25l56.54,0l-0.6,5.25c-0.67,5.76 -1.45,16.34 -2.47,33.25zm87.52,-89.84c-5.37,2.72 -14.31,3.9 -18.68,2.46c-13.31,-4.38 -20.96,-14.27 -20.96,-27.12c0,-10.6 5.31,-19.5 14.46,-24.25c5.95,-3.09 17.79,-3.6 23.64,-1.01c10.52,4.65 16.3,13.64 16.25,25.26c-0.05,10.98 -5.4,19.95 -14.71,24.66zm117.42,9.18c-14.75,5.03 -32.06,-8.16 -32.09,-24.43c-0.02,-8.05 5,-17.02 11.76,-21.05c6.45,-3.84 12.51,-4.86 19.88,-3.33c4.63,0.96 6.5,2.05 10.88,6.32c6.88,6.69 9.4,14.14 7.63,22.58c-1.93,9.27 -8.68,16.72 -18.06,19.91zm-209.08,147.91c-0.02,2.24 -0.1,2.25 -15.96,2.25c-8.77,0 -16.14,-0.34 -16.38,-0.75c-0.24,-0.41 -0.76,-5.25 -1.14,-10.75c-0.39,-5.5 -1.08,-11.8 -1.53,-14c-0.46,-2.2 -1.1,-7.15 -1.43,-11c-0.34,-3.85 -0.87,-9.14 -1.19,-11.75l-0.58,-4.75l41.19,0l-0.03,2.25c-0.01,1.24 -0.68,12.15 -1.48,24.25c-0.79,12.1 -1.46,23.01 -1.47,24.25zm346.03,-109.13c-1.8,0.76 -3.44,1.38 -3.63,1.38c-1.01,0 -2.3,-4.18 -2.91,-9.5c-1.83,-15.85 -3.92,-28.73 -11.03,-67.98c-1.29,-7.14 -2.25,-13.09 -2.12,-13.22c0.14,-0.13 2.92,-0.53 6.19,-0.9c3.27,-0.37 6.77,-1.38 7.77,-2.25c1.73,-1.5 1.73,-1.64 0.06,-2.86c-1.02,-0.75 -4.59,-1.29 -8.5,-1.29l-6.74,0l-1.15,-5.54c-0.63,-3.05 -2.84,-15.65 -4.91,-28l-3.76,-22.46l25.25,0l-0.79,19.67l3.86,3.27c2.26,1.92 3.36,3.47 2.66,3.73c-0.66,0.26 -2.35,1.37 -3.75,2.47c-2.43,1.91 -2.55,2.47 -2.55,12.06l0,10.06l3.57,3.37l3.57,3.37l-3.67,3.46l-3.67,3.47l0.35,9.18c0.34,8.91 0.44,9.25 3.49,11.7l3.14,2.53l-3.39,3.2c-3.32,3.13 -3.39,3.36 -3.29,11.08c0.13,10.15 0.82,12.45 4.49,14.86l3.01,1.98l-3.95,3.76l-3.95,3.75l0.59,9.14c0.63,9.64 2.25,12.97 7.03,14.49c1.78,0.57 1.63,0.8 -1.27,2.02zm-31.65,107.13l-0.52,4.25l-15.94,0c-15.86,0 -15.94,-0.01 -15.95,-2.25c-0.02,-3.71 -1.89,-35.71 -2.55,-43.5l-0.61,-7.25l40.17,0l0,2.45c0,1.35 -0.65,7.53 -1.45,13.75c-0.79,6.21 -1.71,15.13 -2.03,19.8c-0.33,4.67 -0.83,10.41 -1.12,12.75zm41.56,280.63l-3.11,2.62l-72.35,-0.02l-4.06,-2.43c-5.63,-3.38 -7.91,-7.9 -7.02,-13.88l0.7,-4.67l91.88,0l0,5.05c0,5.9 -1.72,9.69 -6.04,13.33zm-336.99,-10.85c-2.43,2.93 -2.78,1.36 -0.89,-4.01c1.71,-4.86 1.92,-8.37 1.92,-31.5c0,-16.68 0.36,-26.02 1,-26.02c0.58,0 1,3.25 1,7.76c0,6.1 0.47,8.63 2.18,11.75c1.2,2.2 2.44,5.79 2.75,7.99c0.53,3.75 0.8,4.02 4.18,4.3c2.7,0.23 3.9,0.92 4.73,2.75c1.59,3.48 6.95,6.44 11.66,6.44c5.04,0 10.36,-3.17 11.82,-7.04c1.02,-2.69 1.53,-2.95 5.84,-2.95c2.6,0 5,0.45 5.34,1c0.38,0.62 8.86,1 22.1,1l21.48,0l-0.58,17.5l-45.39,0.5l-45.39,0.5l-1.26,4.28c-0.7,2.36 -1.82,4.94 -2.49,5.75zm192.53,-294.85c16.36,7.95 37.18,-8.24 32.67,-25.43c-2.89,-11.02 -12.19,-18.25 -23.47,-18.25c-20.67,0 -31.33,23.19 -17.4,37.87c1.76,1.86 5.45,4.47 8.2,5.81zm50.33,258.07l0.17,26.25l-92.86,0l-0.32,-9l-0.32,-9l21.18,0c17.49,0 21.44,-0.26 22.68,-1.5c0.82,-0.83 3.02,-1.5 4.88,-1.5c2.97,0 3.58,0.47 5.11,3.93c2.21,5.01 8.9,8.62 14.14,7.64c3.58,-0.67 9.51,-5.72 9.51,-8.09c0,-0.89 1.47,-1.47 4.25,-1.67c4.13,-0.3 4.27,-0.42 4.81,-4.31c0.31,-2.2 1.66,-6.03 2.99,-8.5c1.73,-3.21 2.59,-6.79 3.02,-12.5c0.35,-4.69 0.66,2.86 0.76,18.25zm-284.43,-187.59c-0.29,0.46 -9.04,0.84 -19.46,0.84c-17.34,0 -21.13,-0.53 -17.94,-2.5c0.57,-0.35 1,-5.29 1,-11.4c0,-9.18 -0.27,-11.04 -1.83,-12.45c-1,-0.91 -2.35,-1.65 -3,-1.65c-1.8,0 -1.43,-0.94 1.83,-4.65c2.96,-3.38 3,-3.56 3,-14.98c0,-10.72 -0.15,-11.6 -2,-12.08c-2.44,-0.64 -2.5,-1.6 -0.3,-4.95c1.63,-2.5 1.94,-2.57 8.69,-1.94c3.85,0.36 7.13,0.79 7.31,0.96c0.17,0.18 0.96,5.45 1.76,11.73c1.7,13.41 7.31,34.15 10.87,40.17c1.38,2.33 4.32,6 6.55,8.15c2.22,2.15 3.8,4.29 3.52,4.75zm364.05,-1.41l0.78,2.25l-19.11,0c-10.52,0 -19.12,-0.29 -19.12,-0.65c0,-0.36 2.27,-3.06 5.05,-6c2.78,-2.94 6.16,-7.84 7.51,-10.89c3.42,-7.74 8.42,-27.94 8.43,-34.07c0.01,-2.81 0.3,-7.2 0.65,-9.75l0.63,-4.64l7.37,0c5.62,0 7.36,0.33 7.36,1.39c0,0.77 1.67,2.06 3.7,2.87l3.7,1.48l-3.17,1.64c-4.46,2.31 -5.23,4.34 -5.23,13.87c0,7.85 0.17,8.54 2.75,10.93c1.51,1.4 3.59,3 4.62,3.55c1.7,0.89 1.59,1.09 -1.17,2.05c-5.19,1.81 -6.4,4.85 -5.94,14.91c0.23,4.84 0.76,9.82 1.19,11.06zm-399.9,-247.7c-1.14,1.14 -3.55,1.26 -3.55,0.17c0,-0.43 0.65,-1.71 1.46,-2.85c0.97,-1.39 1.55,-5.33 1.75,-11.83l0.29,-9.75l-3.39,-2.84l-3.4,-2.84l3.15,-2.64c3.1,-2.62 3.14,-2.76 3.14,-11.86c0,-5.83 -0.44,-9.65 -1.2,-10.41c-0.93,-0.93 1.96,-1.2 13.02,-1.2l14.22,0l-0.49,2.25c-1.05,4.89 -6.53,35.74 -7.77,43.75l-1.31,8.5l-7.49,0.3c-4.11,0.16 -7.91,0.73 -8.43,1.25zm287.11,173.31c-8.49,4.02 -19.78,0.04 -24.26,-8.56c-3.43,-6.6 -0.3,-16.93 6.51,-21.52c4.04,-2.72 13.51,-3.15 18.02,-0.82c3.73,1.93 7.62,6.65 9.04,10.95c2.24,6.78 -2.38,16.66 -9.31,19.95zm-284.3,-99.61c-0.89,4.54 -1.91,8.25 -2.27,8.25c-0.36,0 -0.76,-3.45 -0.88,-7.66c-0.25,-8.15 -1.2,-10.34 -4.53,-10.34c-1.88,0 -1.78,-0.3 1.07,-3.25c3.1,-3.22 3.14,-3.36 3.44,-15l0.31,-11.75l-2.69,0c-3.91,0 -4.13,-1.32 -0.77,-4.53c2.89,-2.78 2.96,-3.07 2.96,-12.84c0,-8.97 -0.23,-10.26 -2.25,-12.48c-2.07,-2.27 -2.09,-2.4 -0.25,-1.6c1.1,0.48 5.63,1.03 10.07,1.23l8.07,0.36l-2.25,12.68c-1.23,6.97 -3.63,20.78 -5.33,30.68c-1.7,9.9 -3.81,21.71 -4.7,26.25zm210.78,524.51c-2.32,1.37 -5.16,1.72 -13.29,1.66c-11.45,-0.09 -12.36,-0.27 -15.6,-3.22c-2.95,-2.69 -2.85,-5.84 0.32,-9.6c3.33,-3.96 9.03,-5.49 17.78,-4.77c7.7,0.64 10.87,2.27 13.21,6.79c2.06,3.98 1.27,6.96 -2.42,9.14zm184.86,-428.59l0,6.33l-5.94,0c-3.27,0 -6.17,-0.37 -6.45,-0.82c-0.28,-0.45 -0.19,-4.6 0.19,-9.21c0.65,-7.78 0.87,-8.43 3.11,-8.95c4.21,-0.99 6.09,-4.85 7.11,-14.56c0.52,-4.93 0.95,-12 0.96,-15.71c0.01,-3.71 0.3,-6.75 0.64,-6.75c0.34,0 2.15,1.35 4.03,3c1.88,1.65 3.97,3.01 4.63,3.02c0.67,0.01 -0.63,0.86 -2.88,1.89c-4.84,2.19 -5.37,3.61 -5.39,14.49l-0.01,7.91l4.05,3.86c3.5,3.32 3.81,3.94 2.25,4.49c-4.71,1.67 -6.3,4.44 -6.3,11.01zm-184.66,-211.6c5.73,3.49 11.07,1.91 14.23,-4.2c4.82,-9.32 -7.71,-18.28 -15.55,-11.12c-4.93,4.51 -4.3,11.89 1.32,15.32zm-201.92,217.06c-0.86,1.39 -11.42,1.06 -11.93,-0.38c-0.24,-0.69 -0.57,-4.4 -0.72,-8.25c-0.26,-6.82 -0.34,-7.01 -3.02,-7.32c-3.3,-0.38 -3.45,-1.24 -0.65,-3.77c2.98,-2.7 4.89,-6.77 4.97,-10.61c0.06,-2.75 0.21,-2.97 0.93,-1.3c0.47,1.1 0.89,3.4 0.93,5.12c0.08,3.67 3.46,8.38 6.01,8.38c1.5,0 1.98,1.41 2.91,8.63c0.61,4.74 0.87,9.02 0.57,9.5zm99.25,-275.8c0.84,0.85 67,0.89 71.21,0.05c8.76,-1.76 -0.25,-2.38 -34.38,-2.38c-20.62,0 -37.5,0.38 -37.5,0.83c0,0.46 0.3,1.14 0.67,1.5zm104.58,0.01c1.8,0.72 70.28,0.78 72.16,0.06c4.88,-1.88 -3.06,-2.4 -36.47,-2.4c-33.3,0 -40.34,0.46 -35.69,2.34zm-188.74,164.29c1.38,1.01 5.59,1.37 15.93,1.35c14.45,-0.01 17.3,-0.61 16.24,-3.38c-0.53,-1.37 -2.75,-1.6 -15.21,-1.6c-8.96,0 -15.42,0.44 -16.72,1.13c-2.04,1.1 -2.05,1.18 -0.24,2.5zm313.27,0c2.6,1.98 28.17,1.88 30.78,-0.11c3.48,-2.65 -0.24,-3.49 -15.61,-3.5c-15.1,-0.02 -18.79,0.86 -15.17,3.61zm-2.74,-28.09c1.84,2.22 28.17,2.12 30.02,-0.12c2.28,-2.74 -0.73,-3.39 -15.75,-3.4c-14.32,-0.02 -16.72,0.57 -14.27,3.52zm-305.53,0.09c2.77,2.03 27.37,1.93 30.05,-0.11c1.68,-1.28 1.74,-1.62 0.44,-2.49c-2.1,-1.4 -27.6,-1.32 -30.25,0.1c-2.04,1.1 -2.05,1.18 -0.24,2.5zm5.18,-27.7c2,1.21 26.65,1.07 27.87,-0.16c0.4,-0.4 0.16,-1.41 -0.54,-2.25c-1.78,-2.14 -26.18,-2.24 -27.95,-0.1c-0.93,1.12 -0.8,1.65 0.62,2.51zm73.31,-126.93c0,0.65 13,1 37,1c24,0 37,-0.35 37,-1c0,-0.65 -13,-1 -37,-1c-24,0 -37,0.35 -37,1zm104.5,0c0.39,0.64 13.82,1 37,1c23.18,0 36.61,-0.36 37,-1c0.41,-0.66 -12.18,-1 -37,-1c-24.82,0 -37.41,0.34 -37,1zm-18.9,220.83c2.45,3.51 5.35,2.45 7.04,-2.58c1.06,-3.14 1.15,-4.77 0.36,-6.25c-1.21,-2.26 -5.87,-2.73 -7.8,-0.8c-1.7,1.7 -1.49,6.95 0.4,9.63zm-85.17,341.6c-2.11,2.11 -5.74,1.99 -7.78,-0.26c-3.42,-3.78 -1.32,-7.17 4.44,-7.17c4.88,0 6.71,4.06 3.34,7.43zm186.38,-2.61c-0.28,3.29 -0.63,3.71 -3.31,3.92c-1.65,0.14 -3.79,-0.22 -4.75,-0.79c-1.79,-1.07 -2.31,-4.56 -0.98,-6.57c1.21,-1.84 5.02,-2.56 7.25,-1.37c1.65,0.88 2.03,1.9 1.79,4.81zm-14.59,-469.38c2.95,2.06 3.29,2 5.69,-1.05c1.53,-1.95 1.8,-3.06 1.07,-4.43c-1.48,-2.77 -4.81,-3.43 -7.05,-1.4c-2.55,2.32 -2.44,4.97 0.29,6.88zm-250.7,210.6c0.39,0.62 3.92,0.92 8.8,0.75c6.84,-0.24 8.21,-0.57 8.49,-2.04c0.3,-1.56 -0.61,-1.75 -8.18,-1.75c-8.15,0 -10.5,0.78 -9.11,3.04zm316.6,0.08c0.76,0.49 4.53,0.78 8.37,0.64c5.74,-0.21 7.05,-0.57 7.32,-2.01c0.3,-1.55 -0.58,-1.75 -7.68,-1.75c-7.86,0 -10.95,1.21 -8.01,3.12zm-348.74,-88.24c-0.53,2.61 -1.09,3.12 -3.45,3.12c-4.04,0 -3.98,-1.03 0.29,-5.15c3.86,-3.72 4.25,-3.47 3.16,2.03zm0.18,27.34c0.31,0.32 0.43,2.09 0.26,3.94c-0.32,3.31 -0.37,3.34 -3.58,2.29l-3.26,-1.06l3,-2.87c1.65,-1.58 3.26,-2.61 3.58,-2.3zm197.11,62.11c1.24,1.25 4.39,0.68 5,-0.91c0.8,-2.09 -1.87,-4.66 -3.99,-3.85c-1.67,0.64 -2.28,3.5 -1.01,4.76z"/>
   </g>
  </g>
 </g>

</svg>