<?xml version="1.0" encoding="UTF-8" standalone="no"?><!DOCTYPE svg PUBLIC "-//W3C//DTD SVG 1.1//EN" "http://www.w3.org/Graphics/SVG/1.1/DTD/svg11.dtd"><svg xmlns="http://www.w3.org/2000/svg" xmlns:xlink="http://www.w3.org/1999/xlink" version="1.1" width="45" height="25" viewBox="97 247 45 25">
<g transform="matrix(0.03304 0 0 0.05078 119.43907 259.38523)" fill="currentColor">
<g >
<path d="M-221.5-115.5L-222.5-114.5-235.5-114.5-236.5-113.5-240.5-113.5-241.5-112.5-244.5-112.5-245.5-111.5-248.5-111.5-249.5-110.5-251.5-110.5-252.5-109.5-254.5-109.5-255.5-108.5-257.5-108.5-258.5-107.5-259.5-107.5-260.5-106.5-262.5-106.5-263.5-105.5-264.5-105.5-265.5-104.5-266.5-104.5-267.5-103.5-268.5-103.5-270.5-101.5-271.5-101.5-273.5-99.5-274.5-99.5-276.5-97.5-277.5-97.5-279.5-95.5-280.5-95.5-283.5-92.5-284.5-92.5-297.5-79.5-297.5-78.5-300.5-75.5-300.5-74.5-302.5-72.5-302.5-71.5-304.5-69.5-304.5-68.5-305.5-67.5-305.5-66.5-307.5-64.5-307.5-63.5-308.5-62.5-308.5-61.5-309.5-60.5-309.5-59.5-310.5-58.5-310.5-57.5-311.5-56.5-311.5-55.5-312.5-54.5-312.5-52.5-313.5-51.5-313.5-49.5-314.5-48.5-314.5-46.5-315.5-45.5-315.5-43.5-316.5-42.5-316.5-38.5-317.5-37.5-317.5-34.5-318.5-33.5-318.5-27.5-319.5-26.5-319.5-9.5-318.5-8.5-318.5-0.5-317.5 0.5-317.5 4.5-316.5 5.5-316.5 8.5-315.5 9.5-315.5 11.5-314.5 12.5-314.5 14.5-313.5 15.5-313.5 17.5-312.5 18.5-312.5 19.5-311.5 20.5-311.5 22.5-310.5 23.5-310.5 24.5-309.5 25.5-309.5 26.5-308.5 27.5-308.5 28.5-306.5 30.5-306.5 31.5-305.5 32.5-305.5 33.5-303.5 35.5-303.5 36.5-302.5 37.5-302.5 38.5-299.5 41.5-299.5 42.5-292.5 49.5-292.5 50.5-287.5 55.5-286.5 55.5-281.5 60.5-280.5 60.5-278.5 62.5-277.5 62.5-275.5 64.5-274.5 64.5-272.5 66.5-271.5 66.5-269.5 68.5-268.5 68.5-267.5 69.5-266.5 69.5-265.5 70.5-264.5 70.5-263.5 71.5-261.5 71.5-260.5 72.5-259.5 72.5-258.5 73.5-256.5 73.5-255.5 74.5-254.5 74.5-253.5 75.5-251.5 75.5-250.5 76.5-247.5 76.5-246.5 77.5-243.5 77.5-242.5 78.5-239.5 78.5-238.5 79.5-231.5 79.5-230.5 80.5-214.5 80.5-213.5 79.5-206.5 79.5-205.5 78.5-200.5 78.5-199.5 77.5-196.5 77.5-195.5 76.5-192.5 76.5-191.5 75.5-189.5 75.5-188.5 74.5-187.5 74.5-186.5 73.5-184.5 73.5-183.5 72.5-182.5 72.5-181.5 71.5-180.5 71.5-179.5 70.5-178.5 70.5-177.5 69.5-176.5 69.5-175.5 68.5-174.5 68.5-173.5 67.5-172.5 67.5-171.5 66.5-170.5 66.5-168.5 64.5-167.5 64.5-165.5 62.5-164.5 62.5-161.5 59.5-160.5 59.5-144.5 43.5-144.5 42.5-142.5 40.5-142.5 39.5-139.5 36.5-139.5 35.5-138.5 34.5-138.5 33.5-137.5 32.5-137.5 31.5-135.5 29.5-135.5 28.5-134.5 27.5-134.5 26.5-133.5 25.5-133.5 23.5-132.5 22.5-132.5 21.5-131.5 20.5-131.5 18.5-130.5 17.5-130.5 16.5-129.5 15.5-129.5 13.5-128.5 12.5-128.5 9.5-127.5 8.5-127.5 5.5-126.5 4.5-126.5 0.5-125.5-0.5-125.5-7.5-124.5-8.5-124.5-25.5-125.5-26.5-125.5-33.5-126.5-34.5-126.5-38.5-127.5-39.5-127.5-42.5-128.5-43.5-128.5-46.5-129.5-47.5-129.5-49.5-130.5-50.5-130.5-52.5-131.5-53.5-131.5-54.5-132.5-55.5-132.5-57.5-133.5-58.5-133.5-59.5-134.5-60.5-134.5-61.5-135.5-62.5-135.5-63.5-136.5-64.5-136.5-65.5-138.5-67.5-138.5-68.5-140.5-70.5-140.5-71.5-142.5-73.5-142.5-74.5-144.5-76.5-144.5-77.5-149.5-82.5-149.5-83.5-156.5-90.5-157.5-90.5-162.5-95.5-163.5-95.5-165.5-97.5-166.5-97.5-168.5-99.5-169.5-99.5-171.5-101.5-172.5-101.5-173.5-102.5-174.5-102.5-175.5-103.5-176.5-103.5-177.5-104.5-178.5-104.5-179.5-105.5-180.5-105.5-181.5-106.5-182.5-106.5-183.5-107.5-185.5-107.5-186.5-108.5-187.5-108.5-188.5-109.5-190.5-109.5-191.5-110.5-193.5-110.5-194.5-111.5-197.5-111.5-198.5-112.5-202.5-112.5-203.5-113.5-207.5-113.5-208.5-114.5-218.5-114.5-219.5-115.5ZM-229.5-104.5L-228.5-105.5-215.5-105.5-214.5-104.5-206.5-104.5-205.5-103.5-202.5-103.5-201.5-102.5-198.5-102.5-197.5-101.5-195.5-101.5-194.5-100.5-192.5-100.5-191.5-99.5-189.5-99.5-188.5-98.5-187.5-98.5-186.5-97.5-184.5-97.5-183.5-96.5-182.5-96.5-181.5-95.5-180.5-95.5-179.5-94.5-178.5-94.5-176.5-92.5-175.5-92.5-173.5-90.5-172.5-90.5-170.5-88.5-169.5-88.5-166.5-85.5-165.5-85.5-155.5-75.5-155.5-74.5-150.5-69.5-150.5-68.5-148.5-66.5-148.5-65.5-146.5-63.5-146.5-62.5-145.5-61.5-145.5-60.5-144.5-59.5-144.5-58.5-143.5-57.5-143.5-56.5-142.5-55.5-142.5-54.5-141.5-53.5-141.5-52.5-140.5-51.5-140.5-50.5-139.5-49.5-139.5-47.5-138.5-46.5-138.5-44.5-137.5-43.5-137.5-41.5-136.5-40.5-136.5-37.5-135.5-36.5-135.5-32.5-134.5-31.5-134.5-22.5-133.5-21.5-133.5-12.5-134.5-11.5-134.5-3.5-135.5-2.5-135.5 2.5-136.5 3.5-136.5 6.5-137.5 7.5-137.5 10.5-138.5 11.5-138.5 12.5-139.5 13.5-139.5 15.5-140.5 16.5-140.5 17.5-141.5 18.5-141.5 20.5-142.5 21.5-142.5 22.5-144.5 24.5-144.5 25.5-145.5 26.5-145.5 27.5-146.5 28.5-146.5 29.5-148.5 31.5-148.5 32.5-150.5 34.5-150.5 35.5-154.5 39.5-154.5 40.5-164.5 50.5-165.5 50.5-169.5 54.5-170.5 54.5-172.5 56.5-173.5 56.5-175.5 58.5-176.5 58.5-177.5 59.5-178.5 59.5-180.5 61.5-181.5 61.5-182.5 62.5-184.5 62.5-185.5 63.5-186.5 63.5-187.5 64.5-189.5 64.5-190.5 65.5-191.5 65.5-192.5 66.5-194.5 66.5-195.5 67.5-197.5 67.5-198.5 68.5-201.5 68.5-202.5 69.5-207.5 69.5-208.5 70.5-234.5 70.5-235.5 69.5-239.5 69.5-240.5 68.5-243.5 68.5-244.5 67.5-247.5 67.5-248.5 66.5-250.5 66.5-251.5 65.5-253.5 65.5-254.5 64.5-255.5 64.5-256.5 63.5-257.5 63.5-258.5 62.5-259.5 62.5-260.5 61.5-262.5 61.5-264.5 59.5-265.5 59.5-266.5 58.5-267.5 58.5-269.5 56.5-270.5 56.5-272.5 54.5-273.5 54.5-277.5 50.5-278.5 50.5-290.5 38.5-290.5 37.5-292.5 35.5-292.5 34.5-295.5 31.5-295.5 30.5-297.5 28.5-297.5 27.5-298.5 26.5-298.5 25.5-300.5 23.5-300.5 21.5-301.5 20.5-301.5 19.5-302.5 18.5-302.5 17.5-303.5 16.5-303.5 15.5-304.5 14.5-304.5 12.5-305.5 11.5-305.5 9.5-306.5 8.5-306.5 6.5-307.5 5.5-307.5 2.5-308.5 1.5-308.5-3.5-309.5-4.5-309.5-11.5-310.5-12.5-310.5-21.5-309.5-22.5-309.5-31.5-308.5-32.5-308.5-36.5-307.5-37.5-307.5-40.5-306.5-41.5-306.5-43.5-305.5-44.5-305.5-46.5-304.5-47.5-304.5-48.5-303.5-49.5-303.5-51.5-302.5-52.5-302.5-53.5-300.5-55.5-300.5-56.5-299.5-57.5-299.5-58.5-298.5-59.5-298.5-60.5-297.5-61.5-297.5-62.5-295.5-64.5-295.5-65.5-293.5-67.5-293.5-68.5-291.5-70.5-291.5-71.5-277.5-85.5-276.5-85.5-272.5-89.5-271.5-89.5-269.5-91.5-268.5-91.5-267.5-92.5-266.5-92.5-264.5-94.5-263.5-94.5-262.5-95.5-261.5-95.5-260.5-96.5-259.5-96.5-258.5-97.5-256.5-97.5-255.5-98.5-254.5-98.5-253.5-99.5-252.5-99.5-251.5-100.5-249.5-100.5-248.5-101.5-246.5-101.5-245.5-102.5-242.5-102.5-241.5-103.5-237.5-103.5-236.5-104.5Z"/>
<path d="M-538.5-237.5L-539.5-236.5-540.5-236.5-541.5-235.5-542.5-235.5-542.5-234.5-543.5-233.5-543.5-232.5-544.5-231.5-543.5-230.5-543.5-219.5-544.5-218.5-556.5-218.5-557.5-217.5-558.5-217.5-559.5-216.5-561.5-216.5-562.5-215.5-564.5-215.5-565.5-214.5-566.5-214.5-567.5-213.5-568.5-213.5-569.5-212.5-571.5-212.5-572.5-211.5-573.5-211.5-574.5-210.5-576.5-210.5-577.5-209.5-578.5-209.5-580.5-207.5-580.5-206.5-581.5-205.5-581.5-182.5-582.5-181.5-661.5-181.5-662.5-180.5-664.5-180.5-668.5-176.5-668.5-175.5-669.5-174.5-669.5-73.5-668.5-72.5-668.5-71.5-665.5-68.5-663.5-68.5-662.5-67.5-661.5-67.5-660.5-66.5-658.5-66.5-657.5-65.5-656.5-65.5-655.5-64.5-654.5-64.5-653.5-63.5-652.5-63.5-651.5-62.5-650.5-62.5-649.5-61.5-647.5-61.5-646.5-60.5-645.5-60.5-644.5-59.5-643.5-59.5-642.5-58.5-641.5-58.5-640.5-57.5-638.5-57.5-637.5-56.5-582.5-56.5-581.5-55.5-581.5 55.5-582.5 56.5-638.5 56.5-639.5 57.5-641.5 57.5-643.5 59.5-644.5 59.5-645.5 60.5-646.5 60.5-647.5 61.5-649.5 61.5-650.5 62.5-651.5 62.5-652.5 63.5-653.5 63.5-654.5 64.5-655.5 64.5-656.5 65.5-657.5 65.5-658.5 66.5-659.5 66.5-660.5 67.5-662.5 67.5-663.5 68.5-664.5 68.5-665.5 69.5-666.5 69.5-668.5 71.5-668.5 72.5-669.5 73.5-669.5 179.5-668.5 180.5-668.5 181.5-663.5 186.5-582.5 186.5-581.5 187.5-581.5 202.5-580.5 203.5-580.5 204.5-577.5 207.5-576.5 207.5-575.5 208.5-573.5 208.5-572.5 209.5-570.5 209.5-569.5 210.5-568.5 210.5-567.5 211.5-565.5 211.5-564.5 212.5-562.5 212.5-561.5 213.5-560.5 213.5-559.5 214.5-545.5 214.5-543.5 216.5-543.5 233.5-542.5 234.5-542.5 235.5-541.5 235.5-539.5 237.5-420.5 237.5-419.5 236.5-418.5 236.5-415.5 233.5-415.5 216.5-414.5 215.5-408.5 215.5-407.5 214.5-387.5 214.5-386.5 215.5-367.5 215.5-366.5 214.5-350.5 214.5-349.5 215.5-339.5 215.5-338.5 214.5-282.5 214.5-281.5 215.5-273.5 215.5-272.5 214.5-227.5 214.5-226.5 215.5-225.5 215.5-224.5 214.5-223.5 215.5-223.5 230.5-222.5 231.5-222.5 233.5-221.5 234.5-221.5 235.5-220.5 235.5-218.5 237.5-99.5 237.5-98.5 236.5-97.5 236.5-96.5 235.5-96.5 234.5-95.5 233.5-95.5 216.5-94.5 215.5-77.5 215.5-76.5 214.5-28.5 214.5-27.5 215.5-19.5 215.5-18.5 214.5-0.5 214.5 0.5 215.5 14.5 215.5 15.5 214.5 33.5 214.5 34.5 215.5 43.5 215.5 44.5 214.5 66.5 214.5 67.5 215.5 68.5 215.5 69.5 214.5 100.5 214.5 101.5 215.5 111.5 215.5 112.5 214.5 130.5 214.5 131.5 215.5 146.5 215.5 147.5 214.5 148.5 215.5 148.5 231.5 149.5 232.5 149.5 233.5 150.5 234.5 150.5 235.5 151.5 236.5 152.5 236.5 153.5 237.5 273.5 237.5 274.5 236.5 275.5 236.5 276.5 235.5 276.5 234.5 277.5 233.5 277.5 216.5 278.5 215.5 293.5 215.5 294.5 214.5 309.5 214.5 310.5 213.5 316.5 213.5 317.5 212.5 322.5 212.5 323.5 211.5 327.5 211.5 328.5 210.5 333.5 210.5 334.5 209.5 338.5 209.5 339.5 208.5 343.5 208.5 344.5 207.5 347.5 207.5 348.5 206.5 349.5 206.5 351.5 204.5 351.5 203.5 352.5 202.5 352.5 105.5 351.5 104.5 351.5 103.5 349.5 101.5 348.5 101.5 347.5 100.5 346.5 100.5 344.5 98.5 343.5 98.5 342.5 97.5 341.5 97.5 339.5 95.5 338.5 95.5 336.5 93.5 335.5 93.5 333.5 91.5 332.5 91.5 331.5 90.5 330.5 90.5 328.5 88.5 327.5 88.5 325.5 86.5 324.5 86.5 322.5 84.5 321.5 84.5 319.5 82.5 318.5 82.5 316.5 80.5 315.5 80.5 314.5 79.5 314.5 20.5 315.5 19.5 334.5 19.5 335.5 18.5 339.5 18.5 340.5 19.5 341.5 18.5 342.5 19.5 343.5 18.5 344.5 19.5 345.5 19.5 346.5 18.5 350.5 22.5 351.5 22.5 353.5 24.5 401.5 24.5 402.5 23.5 403.5 23.5 409.5 17.5 574.5 17.5 575.5 18.5 576.5 18.5 577.5 19.5 584.5 19.5 585.5 20.5 592.5 20.5 593.5 21.5 663.5 21.5 664.5 20.5 665.5 20.5 668.5 17.5 668.5 15.5 669.5 14.5 669.5-26.5 668.5-27.5 668.5-29.5 667.5-30.5 667.5-31.5 665.5-33.5 664.5-33.5 663.5-34.5 593.5-34.5 592.5-33.5 584.5-33.5 583.5-32.5 576.5-32.5 575.5-31.5 409.5-31.5 406.5-34.5 406.5-35.5 404.5-37.5 403.5-37.5 402.5-38.5 401.5-38.5 400.5-39.5 356.5-39.5 355.5-38.5 353.5-38.5 352.5-37.5 351.5-37.5 346.5-32.5 315.5-32.5 314.5-33.5 314.5-81.5 318.5-85.5 319.5-85.5 321.5-87.5 322.5-87.5 323.5-88.5 324.5-88.5 326.5-90.5 327.5-90.5 328.5-91.5 329.5-91.5 331.5-93.5 332.5-93.5 334.5-95.5 335.5-95.5 337.5-97.5 338.5-97.5 340.5-99.5 341.5-99.5 343.5-101.5 344.5-101.5 346.5-103.5 347.5-103.5 349.5-105.5 350.5-105.5 351.5-106.5 351.5-107.5 352.5-108.5 352.5-202.5 350.5-204.5 350.5-205.5 348.5-207.5 347.5-207.5 346.5-208.5 341.5-208.5 340.5-209.5 336.5-209.5 335.5-210.5 332.5-210.5 331.5-211.5 327.5-211.5 326.5-212.5 322.5-212.5 321.5-213.5 318.5-213.5 317.5-214.5 313.5-214.5 312.5-215.5 307.5-215.5 306.5-216.5 302.5-216.5 301.5-217.5 298.5-217.5 297.5-218.5 276.5-218.5 275.5-219.5 275.5-233.5 272.5-236.5 271.5-236.5 270.5-237.5 153.5-237.5 152.5-236.5 151.5-236.5 149.5-234.5 149.5-233.5 148.5-232.5 148.5-219.5 147.5-218.5-94.5-218.5-95.5-219.5-95.5-232.5-96.5-233.5-96.5-234.5-98.5-236.5-100.5-236.5-101.5-237.5-218.5-237.5-219.5-236.5-220.5-236.5-221.5-235.5-221.5-234.5-222.5-233.5-222.5-232.5-223.5-231.5-223.5-220.5-222.5-219.5-223.5-218.5-414.5-218.5-415.5-219.5-415.5-231.5-416.5-232.5-416.5-233.5-417.5-234.5-417.5-235.5-418.5-236.5-420.5-236.5-421.5-237.5ZM158.5 215.5L159.5 214.5 267.5 214.5 268.5 215.5 268.5 226.5 267.5 227.5 159.5 227.5 158.5 226.5ZM-213.5 215.5L-212.5 214.5-105.5 214.5-104.5 215.5-104.5 226.5-106.5 228.5-107.5 227.5-211.5 227.5-212.5 228.5-213.5 227.5ZM-534.5 215.5L-533.5 214.5-425.5 214.5-424.5 215.5-424.5 226.5-425.5 227.5-533.5 227.5-534.5 226.5ZM334.5 112.5L335.5 111.5 340.5 111.5 341.5 112.5 341.5 195.5 342.5 196.5 340.5 198.5 335.5 198.5 334.5 199.5 329.5 199.5 328.5 200.5 323.5 200.5 322.5 201.5 321.5 201.5 320.5 200.5 320.5 113.5 321.5 112.5ZM291.5 88.5L292.5 87.5 307.5 87.5 309.5 89.5 310.5 89.5 311.5 90.5 312.5 90.5 314.5 92.5 315.5 92.5 316.5 93.5 317.5 93.5 319.5 95.5 320.5 95.5 321.5 96.5 322.5 96.5 324.5 98.5 325.5 98.5 327.5 100.5 328.5 100.5 329.5 101.5 330.5 101.5 332.5 103.5 331.5 104.5 315.5 104.5 313.5 102.5 312.5 102.5 310.5 100.5 309.5 100.5 307.5 98.5 306.5 98.5 304.5 96.5 303.5 96.5 301.5 94.5 300.5 94.5 299.5 93.5 298.5 93.5 296.5 91.5 295.5 91.5 293.5 89.5 292.5 89.5ZM-658.5 82.5L-657.5 81.5-582.5 81.5-581.5 82.5-581.5 174.5-582.5 175.5-593.5 175.5-594.5 176.5-605.5 176.5-606.5 175.5-620.5 175.5-621.5 176.5-648.5 176.5-649.5 175.5-657.5 175.5-658.5 174.5-658.5 119.5-659.5 118.5-659.5 117.5-658.5 116.5ZM-636.5 67.5L-635.5 66.5-582.5 66.5-581.5 67.5-581.5 72.5-582.5 73.5-645.5 73.5-646.5 72.5-645.5 71.5-644.5 71.5-643.5 70.5-642.5 70.5-641.5 69.5-640.5 69.5-639.5 68.5-638.5 68.5-637.5 67.5ZM283.5 20.5L284.5 19.5 302.5 19.5 303.5 20.5 303.5 78.5 302.5 79.5 284.5 79.5 283.5 78.5ZM409.5-19.5L410.5-20.5 572.5-20.5 573.5-19.5 573.5 5.5 572.5 6.5 411.5 6.5 409.5 4.5 409.5-16.5 410.5-17.5 410.5-18.5ZM151.5-21.5L152.5-22.5 344.5-22.5 345.5-21.5 345.5 7.5 344.5 8.5 152.5 8.5 151.5 7.5ZM587.5-22.5L588.5-23.5 595.5-23.5 596.5-22.5 596.5 9.5 595.5 10.5 591.5 10.5 590.5 9.5 584.5 9.5 583.5 8.5 582.5 8.5 581.5 7.5 581.5-21.5 582.5-22.5ZM604.5-23.5L605.5-24.5 657.5-24.5 658.5-23.5 658.5 10.5 657.5 11.5 605.5 11.5 604.5 10.5ZM359.5-29.5L395.5-29.5 400.5-24.5 400.5-23.5 401.5-22.5 401.5 8.5 400.5 9.5 400.5 10.5 395.5 15.5 393.5 15.5 392.5 14.5 366.5 14.5 365.5 15.5 359.5 15.5 354.5 10.5 354.5-24.5ZM-649.5-73.5L-648.5-74.5-582.5-74.5-581.5-73.5-581.5-68.5-582.5-67.5-635.5-67.5-636.5-68.5-638.5-68.5-639.5-69.5-640.5-69.5-641.5-70.5-643.5-70.5-644.5-71.5-645.5-71.5-646.5-72.5-648.5-72.5ZM283.5-82.5L284.5-83.5 287.5-83.5 288.5-82.5 297.5-82.5 298.5-81.5 302.5-81.5 303.5-80.5 303.5-33.5 302.5-32.5 284.5-32.5 283.5-33.5ZM317.5-107.5L318.5-108.5 320.5-108.5 321.5-107.5 331.5-107.5 332.5-106.5 330.5-104.5 329.5-104.5 327.5-102.5 326.5-102.5 325.5-101.5 324.5-101.5 322.5-99.5 321.5-99.5 320.5-98.5 319.5-98.5 317.5-96.5 316.5-96.5 314.5-94.5 313.5-94.5 312.5-93.5 311.5-93.5 308.5-90.5 307.5-90.5 306.5-89.5 301.5-89.5 300.5-90.5 291.5-90.5 290.5-91.5 291.5-92.5 292.5-92.5 293.5-93.5 294.5-93.5 296.5-95.5 297.5-95.5 298.5-96.5 299.5-96.5 301.5-98.5 302.5-98.5 303.5-99.5 304.5-99.5 306.5-101.5 307.5-101.5 309.5-103.5 310.5-103.5 311.5-104.5 312.5-104.5 313.5-105.5 314.5-105.5 316.5-107.5ZM-173.5-158.5L-172.5-159.5-165.5-159.5-164.5-158.5-160.5-158.5-159.5-157.5-156.5-157.5-155.5-156.5-151.5-156.5-150.5-155.5-147.5-155.5-146.5-154.5-142.5-154.5-141.5-153.5-138.5-153.5-137.5-152.5-133.5-152.5-132.5-151.5-128.5-151.5-127.5-150.5-124.5-150.5-123.5-149.5-119.5-149.5-118.5-148.5-115.5-148.5-114.5-147.5-110.5-147.5-109.5-146.5-106.5-146.5-105.5-145.5-101.5-145.5-100.5-144.5-96.5-144.5-95.5-143.5-92.5-143.5-91.5-142.5-87.5-142.5-86.5-141.5-83.5-141.5-82.5-140.5-78.5-140.5-77.5-139.5-73.5-139.5-72.5-138.5-69.5-138.5-68.5-137.5-64.5-137.5-63.5-136.5-60.5-136.5-59.5-135.5-55.5-135.5-54.5-134.5-51.5-134.5-50.5-133.5-47.5-133.5-46.5-132.5-42.5-132.5-41.5-131.5-37.5-131.5-36.5-130.5-33.5-130.5-32.5-129.5-28.5-129.5-27.5-128.5-24.5-128.5-23.5-127.5-19.5-127.5-18.5-126.5-14.5-126.5-13.5-125.5-10.5-125.5-9.5-124.5-6.5-124.5-5.5-123.5-1.5-123.5-0.5-122.5 2.5-122.5 3.5-121.5 7.5-121.5 8.5-120.5 11.5-120.5 12.5-119.5 16.5-119.5 17.5-118.5 20.5-118.5 23.5-115.5 23.5-114.5 24.5-113.5 24.5-112.5 26.5-110.5 26.5-109.5 27.5-108.5 27.5-107.5 28.5-106.5 28.5-105.5 29.5-104.5 29.5-103.5 31.5-101.5 31.5-100.5 32.5-99.5 32.5-98.5 34.5-96.5 34.5-95.5 35.5-94.5 35.5-93.5 37.5-91.5 37.5-90.5 38.5-89.5 38.5-88.5 40.5-86.5 40.5-85.5 41.5-84.5 41.5-83.5 43.5-81.5 43.5-80.5 44.5-79.5 44.5-78.5 46.5-76.5 46.5-75.5 47.5-74.5 47.5-73.5 48.5-72.5 48.5-71.5 50.5-69.5 50.5-68.5 51.5-67.5 51.5-66.5 52.5-65.5 52.5-64.5 53.5-63.5 53.5-62.5 55.5-60.5 55.5-59.5 56.5-58.5 56.5-57.5 58.5-55.5 58.5-54.5 59.5-53.5 59.5-52.5 62.5-49.5 65.5-49.5 66.5-48.5 68.5-48.5 69.5-47.5 71.5-47.5 72.5-46.5 74.5-46.5 75.5-45.5 77.5-45.5 78.5-44.5 80.5-44.5 82.5-42.5 82.5-38.5 83.5-37.5 83.5-36.5 84.5-35.5 85.5-35.5 86.5-34.5 140.5-34.5 141.5-33.5 141.5 20.5 140.5 21.5 86.5 21.5 85.5 22.5 84.5 22.5 83.5 23.5 83.5 25.5 82.5 26.5 82.5 28.5 81.5 29.5 80.5 29.5 79.5 30.5 77.5 30.5 76.5 31.5 74.5 31.5 73.5 32.5 70.5 32.5 69.5 33.5 67.5 33.5 66.5 34.5 62.5 34.5 59.5 37.5 59.5 38.5 57.5 40.5 57.5 41.5 56.5 42.5 56.5 43.5 55.5 44.5 55.5 45.5 53.5 47.5 53.5 48.5 52.5 49.5 52.5 50.5 51.5 51.5 51.5 52.5 49.5 54.5 49.5 55.5 48.5 56.5 48.5 57.5 47.5 58.5 47.5 59.5 45.5 61.5 45.5 62.5 44.5 63.5 44.5 64.5 43.5 65.5 43.5 66.5 41.5 68.5 41.5 69.5 40.5 70.5 40.5 71.5 38.5 73.5 38.5 74.5 37.5 75.5 37.5 76.5 35.5 78.5 35.5 79.5 34.5 80.5 34.5 81.5 33.5 82.5 33.5 83.5 31.5 85.5 31.5 86.5 30.5 87.5 30.5 88.5 29.5 89.5 29.5 90.5 27.5 92.5 27.5 93.5 26.5 94.5 26.5 95.5 25.5 96.5 25.5 97.5 23.5 99.5 23.5 100.5 21.5 102.5 19.5 102.5 18.5 103.5 14.5 103.5 13.5 104.5 9.5 104.5 8.5 105.5 5.5 105.5 4.5 106.5 1.5 106.5 0.5 107.5-2.5 107.5-3.5 108.5-7.5 108.5-8.5 109.5-12.5 109.5-13.5 110.5-16.5 110.5-17.5 111.5-20.5 111.5-21.5 112.5-25.5 112.5-26.5 113.5-30.5 113.5-31.5 114.5-34.5 114.5-35.5 115.5-38.5 115.5-39.5 116.5-43.5 116.5-44.5 117.5-47.5 117.5-48.5 118.5-52.5 118.5-53.5 119.5-57.5 119.5-58.5 120.5-61.5 120.5-62.5 121.5-65.5 121.5-66.5 122.5-70.5 122.5-71.5 123.5-74.5 123.5-75.5 124.5-79.5 124.5-80.5 125.5-83.5 125.5-84.5 126.5-88.5 126.5-89.5 127.5-92.5 127.5-93.5 128.5-96.5 128.5-97.5 129.5-101.5 129.5-102.5 130.5-105.5 130.5-106.5 131.5-110.5 131.5-111.5 132.5-115.5 132.5-116.5 133.5-119.5 133.5-120.5 134.5-124.5 134.5-125.5 135.5-128.5 135.5-129.5 136.5-133.5 136.5-134.5 137.5-137.5 137.5-138.5 138.5-141.5 138.5-142.5 139.5-146.5 139.5-147.5 140.5-151.5 140.5-152.5 141.5-155.5 141.5-156.5 142.5-160.5 142.5-161.5 143.5-168.5 143.5-169.5 142.5-174.5 142.5-175.5 141.5-179.5 141.5-180.5 140.5-184.5 140.5-185.5 139.5-190.5 139.5-191.5 138.5-196.5 138.5-197.5 137.5-202.5 137.5-203.5 136.5-208.5 136.5-209.5 135.5-213.5 135.5-214.5 134.5-219.5 134.5-220.5 133.5-225.5 133.5-226.5 132.5-231.5 132.5-232.5 131.5-237.5 131.5-238.5 130.5-242.5 130.5-243.5 129.5-249.5 129.5-250.5 128.5-255.5 128.5-256.5 127.5-262.5 127.5-263.5 126.5-268.5 126.5-269.5 125.5-274.5 125.5-275.5 124.5-280.5 124.5-281.5 123.5-286.5 123.5-287.5 122.5-292.5 122.5-293.5 121.5-300.5 121.5-301.5 120.5-306.5 120.5-307.5 119.5-307.5 111.5-310.5 108.5-318.5 108.5-319.5 107.5-325.5 107.5-326.5 106.5-332.5 106.5-333.5 105.5-339.5 105.5-340.5 104.5-346.5 104.5-347.5 103.5-352.5 103.5-353.5 102.5-353.5 92.5-354.5 91.5-354.5 90.5-355.5 90.5-356.5 89.5-359.5 89.5-360.5 88.5-362.5 88.5-363.5 87.5-366.5 87.5-367.5 86.5-370.5 86.5-371.5 85.5-373.5 85.5-374.5 84.5-377.5 84.5-378.5 83.5-380.5 83.5-381.5 82.5-384.5 82.5-385.5 81.5-387.5 81.5-388.5 80.5-389.5 80.5-390.5 79.5-390.5 41.5-393.5 38.5-401.5 38.5-402.5 37.5-403.5 37.5-404.5 36.5-404.5-41.5-403.5-42.5-399.5-42.5-398.5-43.5-393.5-43.5-392.5-44.5-391.5-44.5-391.5-45.5-390.5-46.5-390.5-86.5-388.5-88.5-386.5-88.5-385.5-89.5-383.5-89.5-382.5-90.5-380.5-90.5-379.5-91.5-377.5-91.5-376.5-92.5-374.5-92.5-373.5-93.5-371.5-93.5-370.5-94.5-368.5-94.5-367.5-95.5-365.5-95.5-364.5-96.5-362.5-96.5-361.5-97.5-359.5-97.5-358.5-98.5-356.5-98.5-354.5-100.5-354.5-114.5-353.5-115.5-351.5-115.5-350.5-116.5-344.5-116.5-343.5-117.5-338.5-117.5-337.5-118.5-332.5-118.5-331.5-119.5-326.5-119.5-325.5-120.5-320.5-120.5-319.5-121.5-313.5-121.5-312.5-122.5-310.5-122.5-308.5-124.5-308.5-133.5-307.5-134.5-304.5-134.5-303.5-135.5-298.5-135.5-297.5-136.5-293.5-136.5-292.5-137.5-287.5-137.5-286.5-138.5-281.5-138.5-280.5-139.5-275.5-139.5-274.5-140.5-270.5-140.5-269.5-141.5-264.5-141.5-263.5-142.5-259.5-142.5-258.5-143.5-253.5-143.5-252.5-144.5-247.5-144.5-246.5-145.5-242.5-145.5-241.5-146.5-236.5-146.5-235.5-147.5-231.5-147.5-230.5-148.5-227.5-148.5-226.5-149.5-221.5-149.5-220.5-150.5-216.5-150.5-215.5-151.5-211.5-151.5-210.5-152.5-205.5-152.5-204.5-153.5-199.5-153.5-198.5-154.5-194.5-154.5-193.5-155.5-188.5-155.5-187.5-156.5-183.5-156.5-182.5-157.5-178.5-157.5-177.5-158.5ZM-659.5-169.5L-658.5-170.5-582.5-170.5-581.5-169.5-581.5-84.5-583.5-82.5-657.5-82.5-658.5-83.5-658.5-87.5-659.5-88.5-659.5-89.5-658.5-90.5-658.5-104.5-659.5-105.5-659.5-106.5-658.5-107.5-658.5-117.5-659.5-118.5-659.5-122.5-658.5-123.5-658.5-131.5-659.5-132.5-659.5-143.5-658.5-144.5-658.5-168.5ZM320.5-201.5L321.5-202.5 322.5-201.5 327.5-201.5 328.5-200.5 331.5-200.5 332.5-199.5 337.5-199.5 338.5-198.5 340.5-198.5 341.5-197.5 341.5-116.5 340.5-115.5 325.5-115.5 324.5-116.5 321.5-116.5 320.5-117.5ZM-555.5-206.5L-554.5-207.5 295.5-207.5 296.5-206.5 300.5-206.5 301.5-205.5 305.5-205.5 306.5-204.5 310.5-204.5 311.5-203.5 311.5-115.5 309.5-113.5 308.5-113.5 306.5-111.5 305.5-111.5 303.5-109.5 302.5-109.5 300.5-107.5 299.5-107.5 298.5-106.5 297.5-106.5 295.5-104.5 294.5-104.5 293.5-103.5 292.5-103.5 291.5-102.5 290.5-102.5 289.5-101.5 288.5-101.5 286.5-99.5 285.5-99.5 284.5-98.5 283.5-98.5 281.5-96.5 280.5-96.5 279.5-95.5 278.5-95.5 277.5-94.5 276.5-94.5 273.5-91.5 273.5-33.5 272.5-32.5 152.5-32.5 151.5-33.5 151.5-40.5 147.5-44.5 93.5-44.5 91.5-46.5 91.5-48.5 90.5-49.5 90.5-50.5 87.5-53.5 85.5-53.5 84.5-54.5 81.5-54.5 80.5-55.5 78.5-55.5 77.5-56.5 75.5-56.5 74.5-57.5 72.5-57.5 71.5-58.5 69.5-58.5 66.5-61.5 66.5-62.5 65.5-63.5 65.5-64.5 63.5-66.5 63.5-67.5 62.5-68.5 62.5-69.5 61.5-70.5 61.5-71.5 59.5-73.5 59.5-74.5 58.5-75.5 58.5-76.5 57.5-77.5 57.5-78.5 55.5-80.5 55.5-81.5 54.5-82.5 54.5-83.5 53.5-84.5 53.5-85.5 51.5-87.5 51.5-88.5 50.5-89.5 50.5-90.5 48.5-92.5 48.5-93.5 47.5-94.5 47.5-95.5 45.5-97.5 45.5-98.5 44.5-99.5 44.5-100.5 42.5-102.5 42.5-103.5 41.5-104.5 41.5-105.5 40.5-106.5 40.5-107.5 38.5-109.5 38.5-110.5 37.5-111.5 37.5-112.5 36.5-113.5 36.5-114.5 34.5-116.5 34.5-117.5 33.5-118.5 33.5-119.5 31.5-121.5 31.5-122.5 30.5-123.5 30.5-124.5 28.5-126.5 27.5-126.5 26.5-127.5 25.5-127.5 24.5-128.5 20.5-128.5 19.5-129.5 16.5-129.5 15.5-130.5 11.5-130.5 10.5-131.5 6.5-131.5 5.5-132.5 2.5-132.5 1.5-133.5-1.5-133.5-2.5-134.5-6.5-134.5-7.5-135.5-10.5-135.5-11.5-136.5-15.5-136.5-16.5-137.5-19.5-137.5-20.5-138.5-24.5-138.5-25.5-139.5-28.5-139.5-29.5-140.5-32.5-140.5-33.5-141.5-37.5-141.5-38.5-142.5-42.5-142.5-43.5-143.5-46.5-143.5-47.5-144.5-51.5-144.5-52.5-145.5-55.5-145.5-56.5-146.5-60.5-146.5-61.5-147.5-65.5-147.5-66.5-148.5-69.5-148.5-70.5-149.5-73.5-149.5-74.5-150.5-78.5-150.5-79.5-151.5-82.5-151.5-83.5-152.5-87.5-152.5-88.5-153.5-91.5-153.5-92.5-154.5-96.5-154.5-97.5-155.5-100.5-155.5-101.5-156.5-105.5-156.5-106.5-157.5-109.5-157.5-110.5-158.5-114.5-158.5-115.5-159.5-119.5-159.5-120.5-160.5-124.5-160.5-125.5-161.5-128.5-161.5-129.5-162.5-133.5-162.5-134.5-163.5-137.5-163.5-138.5-164.5-142.5-164.5-143.5-165.5-146.5-165.5-147.5-166.5-151.5-166.5-152.5-167.5-155.5-167.5-156.5-168.5-160.5-168.5-161.5-169.5-164.5-169.5-165.5-170.5-171.5-170.5-172.5-169.5-175.5-169.5-176.5-168.5-180.5-168.5-181.5-167.5-186.5-167.5-187.5-166.5-191.5-166.5-192.5-165.5-197.5-165.5-198.5-164.5-202.5-164.5-203.5-163.5-207.5-163.5-208.5-162.5-213.5-162.5-214.5-161.5-219.5-161.5-220.5-160.5-224.5-160.5-225.5-159.5-229.5-159.5-230.5-158.5-235.5-158.5-236.5-157.5-241.5-157.5-242.5-156.5-246.5-156.5-247.5-155.5-251.5-155.5-252.5-154.5-256.5-154.5-257.5-153.5-262.5-153.5-263.5-152.5-268.5-152.5-269.5-151.5-273.5-151.5-274.5-150.5-279.5-150.5-280.5-149.5-284.5-149.5-285.5-148.5-289.5-148.5-290.5-147.5-294.5-147.5-295.5-146.5-300.5-146.5-301.5-145.5-307.5-145.5-308.5-144.5-312.5-144.5-313.5-143.5-314.5-143.5-317.5-140.5-317.5-139.5-318.5-138.5-318.5-132.5-319.5-131.5-321.5-131.5-322.5-130.5-327.5-130.5-328.5-129.5-333.5-129.5-334.5-128.5-339.5-128.5-340.5-127.5-346.5-127.5-347.5-126.5-352.5-126.5-353.5-125.5-359.5-125.5-363.5-121.5-363.5-108.5-365.5-106.5-368.5-106.5-369.5-105.5-371.5-105.5-372.5-104.5-374.5-104.5-375.5-103.5-377.5-103.5-378.5-102.5-379.5-102.5-380.5-101.5-382.5-101.5-383.5-100.5-385.5-100.5-386.5-99.5-388.5-99.5-389.5-98.5-391.5-98.5-392.5-97.5-395.5-97.5-396.5-96.5-397.5-96.5-400.5-93.5-400.5-53.5-401.5-52.5-410.5-52.5-413.5-49.5-413.5-48.5-414.5-47.5-414.5-46.5-415.5-45.5-415.5 40.5-414.5 41.5-414.5 43.5-413.5 44.5-413.5 45.5-412.5 45.5-410.5 47.5-404.5 47.5-403.5 48.5-401.5 48.5-400.5 49.5-400.5 86.5-399.5 87.5-399.5 88.5-398.5 89.5-397.5 89.5-396.5 90.5-393.5 90.5-392.5 91.5-390.5 91.5-389.5 92.5-386.5 92.5-385.5 93.5-382.5 93.5-381.5 94.5-378.5 94.5-377.5 95.5-375.5 95.5-374.5 96.5-371.5 96.5-370.5 97.5-368.5 97.5-367.5 98.5-364.5 98.5-363.5 99.5-363.5 106.5-362.5 107.5-362.5 109.5-358.5 113.5-350.5 113.5-349.5 114.5-343.5 114.5-342.5 115.5-336.5 115.5-335.5 116.5-329.5 116.5-328.5 117.5-322.5 117.5-321.5 118.5-317.5 118.5-316.5 119.5-316.5 125.5-315.5 126.5-315.5 127.5-313.5 129.5-312.5 129.5-311.5 130.5-305.5 130.5-304.5 131.5-298.5 131.5-297.5 132.5-292.5 132.5-291.5 133.5-286.5 133.5-285.5 134.5-280.5 134.5-279.5 135.5-273.5 135.5-272.5 136.5-267.5 136.5-266.5 137.5-261.5 137.5-260.5 138.5-255.5 138.5-254.5 139.5-248.5 139.5-247.5 140.5-243.5 140.5-242.5 141.5-237.5 141.5-236.5 142.5-230.5 142.5-229.5 143.5-224.5 143.5-223.5 144.5-219.5 144.5-218.5 145.5-213.5 145.5-212.5 146.5-207.5 146.5-206.5 147.5-201.5 147.5-200.5 148.5-196.5 148.5-195.5 149.5-190.5 149.5-189.5 150.5-184.5 150.5-183.5 151.5-179.5 151.5-178.5 152.5-173.5 152.5-172.5 153.5-168.5 153.5-167.5 154.5-161.5 154.5-160.5 153.5-157.5 153.5-156.5 152.5-153.5 152.5-152.5 151.5-148.5 151.5-147.5 150.5-143.5 150.5-142.5 149.5-139.5 149.5-138.5 148.5-134.5 148.5-133.5 147.5-130.5 147.5-129.5 146.5-125.5 146.5-124.5 145.5-121.5 145.5-120.5 144.5-117.5 144.5-116.5 143.5-112.5 143.5-111.5 142.5-107.5 142.5-106.5 141.5-103.5 141.5-102.5 140.5-98.5 140.5-97.5 139.5-94.5 139.5-93.5 138.5-89.5 138.5-88.5 137.5-85.5 137.5-84.5 136.5-81.5 136.5-80.5 135.5-76.5 135.5-75.5 134.5-71.5 134.5-70.5 133.5-67.5 133.5-66.5 132.5-62.5 132.5-61.5 131.5-58.5 131.5-57.5 130.5-54.5 130.5-53.5 129.5-49.5 129.5-48.5 128.5-44.5 128.5-43.5 127.5-39.5 127.5-38.5 126.5-35.5 126.5-34.5 125.5-30.5 125.5-29.5 124.5-26.5 124.5-25.5 123.5-22.5 123.5-21.5 122.5-17.5 122.5-16.5 121.5-13.5 121.5-12.5 120.5-9.5 120.5-8.5 119.5-4.5 119.5-3.5 118.5-0.5 118.5 0.5 117.5 4.5 117.5 5.5 116.5 8.5 116.5 9.5 115.5 13.5 115.5 14.5 114.5 17.5 114.5 18.5 113.5 21.5 113.5 22.5 112.5 26.5 112.5 27.5 111.5 28.5 111.5 31.5 108.5 31.5 107.5 32.5 106.5 32.5 105.5 34.5 103.5 34.5 102.5 35.5 101.5 35.5 100.5 36.5 99.5 36.5 98.5 38.5 96.5 38.5 95.5 39.5 94.5 39.5 93.5 40.5 92.5 40.5 91.5 42.5 89.5 42.5 88.5 43.5 87.5 43.5 86.5 45.5 84.5 45.5 83.5 46.5 82.5 46.5 81.5 47.5 80.5 47.5 79.5 49.5 77.5 49.5 76.5 50.5 75.5 50.5 74.5 51.5 73.5 51.5 72.5 53.5 70.5 53.5 69.5 54.5 68.5 54.5 67.5 56.5 65.5 56.5 64.5 57.5 63.5 57.5 62.5 58.5 61.5 58.5 60.5 60.5 58.5 60.5 57.5 61.5 56.5 61.5 55.5 62.5 54.5 62.5 53.5 64.5 51.5 64.5 50.5 65.5 49.5 65.5 48.5 67.5 46.5 67.5 45.5 68.5 44.5 70.5 44.5 71.5 43.5 73.5 43.5 74.5 42.5 76.5 42.5 77.5 41.5 79.5 41.5 80.5 40.5 82.5 40.5 83.5 39.5 85.5 39.5 86.5 38.5 88.5 38.5 91.5 35.5 91.5 34.5 92.5 33.5 92.5 32.5 93.5 31.5 94.5 31.5 95.5 32.5 144.5 32.5 145.5 31.5 146.5 31.5 147.5 30.5 148.5 30.5 150.5 28.5 150.5 26.5 151.5 25.5 151.5 20.5 152.5 19.5 272.5 19.5 273.5 20.5 273.5 86.5 276.5 89.5 277.5 89.5 278.5 90.5 279.5 90.5 281.5 92.5 282.5 92.5 284.5 94.5 285.5 94.5 286.5 95.5 287.5 95.5 289.5 97.5 290.5 97.5 292.5 99.5 293.5 99.5 294.5 100.5 295.5 100.5 297.5 102.5 298.5 102.5 300.5 104.5 301.5 104.5 302.5 105.5 303.5 105.5 305.5 107.5 306.5 107.5 309.5 110.5 310.5 110.5 311.5 111.5 311.5 201.5 310.5 202.5 307.5 202.5 306.5 203.5 301.5 203.5 300.5 204.5-555.5 204.5-556.5 203.5-558.5 203.5-559.5 202.5-561.5 202.5-562.5 201.5-563.5 201.5-564.5 200.5-566.5 200.5-567.5 199.5-569.5 199.5-571.5 197.5-571.5 195.5-570.5 194.5-570.5 182.5-571.5 181.5-571.5 172.5-570.5 171.5-570.5 161.5-571.5 160.5-571.5 158.5-570.5 157.5-570.5 146.5-571.5 145.5-571.5 124.5-570.5 123.5-570.5 99.5-571.5 98.5-571.5 96.5-570.5 95.5-570.5 82.5-571.5 81.5-571.5 61.5-570.5 60.5-570.5 55.5-571.5 54.5-571.5 41.5-570.5 40.5-570.5 37.5-571.5 36.5-571.5 27.5-570.5 26.5-570.5-15.5-571.5-16.5-571.5-30.5-570.5-31.5-570.5-45.5-571.5-46.5-571.5-55.5-570.5-56.5-570.5-92.5-571.5-93.5-571.5-99.5-570.5-100.5-570.5-120.5-571.5-121.5-571.5-130.5-570.5-131.5-570.5-157.5-571.5-158.5-571.5-164.5-570.5-165.5-570.5-185.5-571.5-186.5-571.5-200.5-570.5-201.5-568.5-201.5-567.5-202.5-566.5-202.5-565.5-203.5-563.5-203.5-562.5-204.5-561.5-204.5-560.5-205.5-558.5-205.5-557.5-206.5ZM157.5-227.5L158.5-228.5 265.5-228.5 266.5-227.5 266.5-219.5 265.5-218.5 158.5-218.5 157.5-219.5ZM-213.5-227.5L-212.5-228.5-106.5-228.5-105.5-227.5-105.5-219.5-106.5-218.5-212.5-218.5-213.5-219.5ZM-534.5-227.5L-533.5-228.5-426.5-228.5-425.5-227.5-425.5-219.5-426.5-218.5-533.5-218.5-534.5-219.5Z"/>
</g>
</g>
</svg>
