<svg width="40" height="25" xmlns="http://www.w3.org/2000/svg">

 <g>
  <title>Layer 1</title>
  <g stroke-width="0" stroke="null" id="svg_1">
   <path stroke="#fff" stroke-width="0.3" id="svg_2" fill="currentColor" d="m4.16028,22.48521c-0.21953,-0.11183 -0.23319,-0.17008 -0.23476,-1.02699l-0.00158,-0.82709l-0.21271,0c-0.11712,0 -0.28098,-0.03122 -0.36449,-0.06943c-0.33035,-0.15191 -0.31564,-0.00839 -0.31564,-3.0409l0,-2.76319l-0.17069,0.08248c-0.14548,0.07083 -0.30934,0.08294 -1.11605,0.08294c-0.90597,0 -0.95376,-0.00466 -1.14756,-0.11183c-0.11134,-0.06104 -0.24737,-0.1766 -0.30199,-0.25628c-0.09559,-0.13839 -0.09926,-0.29822 -0.09979,-3.94674l0,-3.80229l0.11817,-0.15424c0.25472,-0.33177 0.31302,-0.34761 1.34976,-0.36345c0.75681,-0.01165 0.97319,-0.00093 1.13233,0.05825c0.10767,0.04007 0.20483,0.07269 0.21586,0.07269c0.01103,0 0.01996,-0.38302 0.01996,-0.85179c0,-0.931 0.01681,-0.99158 0.31564,-1.12904c0.08351,-0.03821 0.24737,-0.06943 0.36449,-0.06943l0.21271,0l0,-0.83455l0,-0.83455l0.16281,-0.12162l0.16229,-0.12115l4.5687,0.01212l4.5687,0.01258l0.1271,0.13094c0.12342,0.12721 0.12657,0.15144 0.12657,0.94358l0,0.81265l6.48305,0l6.48253,0l0.01681,-0.84293l0.01628,-0.84293l0.14758,-0.1123l0.14706,-0.1123l5.12121,0c3.79298,0 5.15115,0.01398 5.23623,0.05405c0.22899,0.10857 0.24212,0.16495 0.24422,1.02932l0.00158,0.82709l0.87183,0c0.96899,0 1.17014,0.0438 1.30985,0.28377c0.11554,0.19757 0.11554,15.49713 0,15.6947c-0.1397,0.23997 -0.34085,0.28377 -1.30985,0.28377l-0.87183,0l0,0.83455l0,0.83455l-0.16229,0.12162l-0.16281,0.12115l-5.17268,-0.01258l-5.17268,-0.01212l-0.1271,-0.13094c-0.12342,-0.12721 -0.12657,-0.15144 -0.12657,-0.94358l0,-0.81265l-6.4862,0l-6.4862,0l0,0.81917l0,0.8187l-0.15336,0.13653l-0.15388,0.13606l-4.53351,-0.0014c-3.31138,-0.00093 -4.5624,-0.01584 -4.63908,-0.05498zm8.53448,-1.31822l0,-0.53586l-3.93899,0l-3.93899,0l0,0.53586l0,0.53586l3.93899,0l3.93899,0l0,-0.53586zm23.94905,0l0,-0.53586l-4.54297,0l-4.54297,0l0,0.53586l0,0.53586l4.54297,0l4.54297,0l0,-0.53586zm-30.04136,-8.66699l0,-7.29239l-1.33926,0l-1.33926,0l0,7.29239l0,7.29239l1.33926,0l1.33926,0l0,-7.29239zm17.33155,0l0,-7.29239l-8.1931,0l-8.1931,0l0,7.29239l0,7.29239l8.1931,0l8.1931,0l0,-7.29239zm4.14907,0l0,-7.29239l-1.60186,0l-1.60186,0l0,7.29239l0,7.29239l1.60186,0l1.60186,0l0,-7.29239zm10.76657,0l0,-7.29239l-4.91061,0l-4.91061,0l0,7.29239l0,7.29239l4.91061,0l4.91061,0l0,-7.29239zm-36.44878,-1.91186l0,-3.51945l-0.64337,0.01305l-0.64337,0.01305l-0.01366,3.5064l-0.01313,3.5064l0.6565,0l0.65702,0l0,-3.51945zm10.29389,-6.75513l0,-0.53586l-3.93899,0l-3.93899,0l0,0.53586l0,0.53586l3.93899,0l3.93899,0l0,-0.53586zm23.94905,0l0,-0.53586l-4.54297,0l-4.54297,0l0,0.53586l0,0.53586l4.54297,0l4.54297,0l0,-0.53586z"/>
  </g>
 </g>
</svg>
