<?xml version="1.0" encoding="UTF-8" standalone="no"?><!DOCTYPE svg PUBLIC "-//W3C//DTD SVG 1.1//EN" "http://www.w3.org/Graphics/SVG/1.1/DTD/svg11.dtd"><svg xmlns="http://www.w3.org/2000/svg" xmlns:xlink="http://www.w3.org/1999/xlink" version="1.1" width="44" height="25" viewBox="5 5 44 25">
<g transform="matrix(0 0.14569 -0.16258 0 42.12973 17.60108)" id="svg_2" >
<rect transform="translate(0,0)" style="stroke: currentColor; stroke-linecap: round; stroke-linejoin: round; fill: none" x="-65" y="-36" rx="1" ry="1" width="130" height="72" vector-effect="non-scaling-stroke"/>
</g>
<path transform="translate(0,0)" style="stroke: currentColor; stroke-linecap: round; stroke-linejoin: round; fill: none" vector-effect="non-scaling-stroke" stroke-linecap="round" d="M45.544 8.1311L45.544 5.8 34.6511 5.8 34.6511 8.1311"/>
<path transform="translate(0,0)" style="stroke: currentColor; stroke-linecap: round; stroke-linejoin: round; fill: none" vector-effect="non-scaling-stroke" stroke-linecap="round" d="M45.544 27.0711L45.544 29.4022 34.6511 29.4022 34.6511 27.0711"/>
<g transform="matrix(0 0.14569 -0.16258 0 34.00095 17.60108)" id="svg_5">
<rect transform="translate(0,0)" style="stroke: currentColor; stroke-linecap: round; stroke-linejoin: round; fill: none" x="-65" y="-14" rx="1" ry="1" width="130" height="28" vector-effect="non-scaling-stroke"/>
</g>
<g transform="matrix(0 0.14569 -0.16258 0 22.29551 17.60108)" id="svg_6">
<rect transform="translate(0,0)" style="stroke: currentColor; stroke-linecap: round; stroke-linejoin: round; fill: none" x="-65" y="-58" rx="1" ry="1" width="130" height="116" vector-effect="non-scaling-stroke"/>
</g>
<path transform="translate(0,0)" style="stroke: currentColor; stroke-linecap: round; stroke-linejoin: round; fill: none" vector-effect="non-scaling-stroke" stroke-linecap="round" d="M19.5319 8.1311L19.5319 5.8 9.9396 5.8 9.9396 8.1311"/>
<path transform="translate(0,0)" style="stroke: currentColor; stroke-linecap: round; stroke-linejoin: round; fill: none" vector-effect="non-scaling-stroke" stroke-linecap="round" d="M19.5319 27.0711L19.5319 29.4022 9.9396 29.4022 9.9396 27.0711"/>
<g transform="matrix(0 0.14569 -0.16258 0 10.91521 17.60108)" id="svg_9">
<rect transform="translate(0,0)" style="stroke: currentColor; stroke-linecap: round; stroke-linejoin: round; fill: none" x="-65" y="-12" rx="1" ry="1" width="130" height="24" vector-effect="non-scaling-stroke"/>
</g>
<g transform="matrix(0 0.14569 -0.16258 0 7.09469 15.27001)" id="svg_10">
<rect transform="translate(0,0)" style="stroke: currentColor; stroke-linecap: round; stroke-linejoin: round; fill: none" x="-33" y="-7.5" rx="3" ry="3" width="66" height="15" vector-effect="non-scaling-stroke"/>
</g>
</svg>
