<svg width="698" height="414" xmlns="http://www.w3.org/2000/svg">
 <g>
  <title>Layer 1</title>
  <g transform="rotate(90 347.979 207.69)">
   <g>
    <path fill="currentColor" d="m509.74657,263.00258l-2.08,2.63l-318.94,0l-2.46,-2.45l-2.45,-2.46l0,-78.34c0,-59.61 -0.29,-78.64 -1.2,-79.55c-1.7,-1.7 -14.18,-1.51 -21.34,0.33c-3.28,0.84 -8.13,2.87 -10.78,4.5c-5.14,3.17 -7.93,2.91 -9.12,-0.84c-0.85,-2.68 1.12,-11.81 3.79,-17.62c5.09,-11.03 17.72,-19.39 32.81,-21.72l7.65,-1.18l2.21,-4.72c1.22,-2.6 3.26,-5.85 4.53,-7.23l2.32,-2.5l-6.42,-0.4c-10.34,-0.66 -15.81,-6.18 -16.95,-17.11c-0.35,-3.41 -0.5,-27.62 -0.32,-53.78l0.32,-47.58l2.79,-4.21c3.59,-5.43 7.45,-7.72 15.37,-9.09c10.96,-1.91 10.47,-1.41 14.81,-15.2c5.57,-17.69 6.63,-18.63 30.03,-26.64c23.34,-7.99 33.43,-10.61 54.61,-14.15c46.64,-7.82 99.83,-6.14 141.91,4.46c8.11,2.04 38.74,11.99 47.14,15.31c6.19,2.45 9.54,7.48 13.49,20.26c2.57,8.32 4.39,12.55 5.8,13.46c1.13,0.74 4.87,1.79 8.32,2.34c9.06,1.45 13.75,4.42 16.79,10.64l2.51,5.13l-0.29,52.49l-0.28,52.5l-2.82,4.25c-3.31,5.01 -7.62,7.1 -14.61,7.1l-4.99,0l3.14,5.25c1.73,2.89 3.68,6.17 4.35,7.3c0.94,1.59 3.01,2.34 9.07,3.28c19.75,3.06 32.6,14.85 35.66,32.69c1.03,6.01 0.96,6.67 -0.89,8.51c-1.99,2 -2,2 -8.95,-1.56c-9.4,-4.81 -28.16,-7.37 -31.26,-4.27c-0.91,0.91 -1.2,19.9 -1.2,79.37c0,77.56 -0.02,78.18 -2.07,80.8zm-152.49,284.99c-0.83,1.9 -1.86,2.17 -9.19,2.43c-7.94,0.28 -8.3,0.2 -9.38,-2.18c-1.53,-3.36 -8.11,-4.61 -10.91,-2.08c-1.48,1.35 -2.85,1.58 -6.14,1.06c-6.79,-1.09 -12.82,-4.15 -12.82,-6.51c0,-3.07 -7.45,-6.65 -10.73,-5.16c-2.13,0.97 -3.18,0.63 -8.11,-2.65c-4.65,-3.1 -5.71,-4.34 -5.97,-6.95c-0.22,-2.34 -1.46,-4.12 -4.67,-6.75c-2.39,-1.96 -5.1,-3.57 -6,-3.57c-2.88,0 -5.09,-1.75 -9.38,-7.43c-3.59,-4.75 -4.01,-5.81 -2.98,-7.45c1.78,-2.86 -1.25,-7.12 -5.06,-7.12c-2.44,0 -3.14,-0.68 -4.9,-4.75c-1.87,-4.32 -1.92,-4.91 -0.5,-6.47c1.31,-1.45 1.36,-2.21 0.33,-4.7c-0.73,-1.76 -2.1,-3.09 -3.38,-3.27c-1.71,-0.25 -2.45,-1.5 -3.63,-6.14c-1.36,-5.4 -1.34,-5.91 0.25,-6.8c1.18,-0.66 1.73,-2.21 1.73,-4.85c0,-3.26 -0.36,-3.93 -2.25,-4.2c-2.08,-0.3 -2.27,-0.9 -2.54,-8.02c-0.28,-7.29 -0.16,-7.79 2.25,-9.37c2.94,-1.92 3.63,-7.8 1.04,-8.79c-1.92,-0.74 -1.9,-3.47 0.07,-10.24c1.19,-4.09 2.03,-5.4 3.48,-5.4c1.08,0 2.54,-1.23 3.37,-2.85c1.28,-2.47 1.29,-3.12 0.06,-4.88c-1.27,-1.81 -1.13,-2.61 1.3,-7.4c2.14,-4.23 3.29,-5.44 5.4,-5.68c3.83,-0.44 8.29,-6.44 6.83,-9.18c-1.35,-2.51 -0.44,-4.28 4.81,-9.36c2.91,-2.83 4.5,-3.68 5.97,-3.22c2.8,0.89 9.63,-5.53 8.77,-8.24c-0.49,-1.54 0.7,-2.78 5.95,-6.2c5.81,-3.78 6.86,-4.14 9.06,-3.14c3.55,1.62 10.03,-1.46 9.7,-4.61c-0.2,-1.86 0.7,-2.46 6.35,-4.21c7.84,-2.41 11.69,-2.57 13.38,-0.53c0.68,0.83 2.31,1.5 3.62,1.5c2.39,0 6.38,-3.13 6.38,-5c0,-0.59 3.61,-1 8.84,-1c8.33,0 8.9,0.14 9.92,2.38c1.49,3.26 6.82,4.04 9.48,1.38c2.05,-2.05 2.49,-2.03 12.51,0.81c4.41,1.25 5.25,1.86 5.25,3.82c0,1.85 0.94,2.7 4.53,4.07c3.57,1.36 4.84,1.48 5.98,0.53c1.16,-0.97 2.59,-0.57 7.22,2.01c3.17,1.77 7.2,4.57 8.95,6.24c2.64,2.51 2.99,3.32 2.05,4.82c-1.7,2.72 2.67,6.14 6.92,5.42c2.84,-0.48 3.61,0 7.81,4.92c4.1,4.8 4.51,5.68 3.41,7.44c-1.06,1.7 -0.85,2.5 1.5,5.57c1.72,2.26 3.57,3.59 5,3.59c1.78,0 2.87,1.28 5.14,6.02c2.67,5.58 2.76,6.14 1.24,7.66c-1.47,1.46 -1.48,1.94 -0.17,4.48c0.85,1.63 2.29,2.84 3.4,2.84c1.98,0 3.34,3.25 4.63,11.1c0.46,2.76 0.22,3.75 -1.01,4.22c-1.05,0.41 -1.6,1.83 -1.6,4.17c0,2.82 0.52,3.79 2.5,4.69c2.36,1.08 2.5,1.59 2.5,9.01c0,7.46 -0.13,7.91 -2.5,8.81c-1.94,0.74 -2.5,1.66 -2.5,4.11c0,1.85 0.72,3.7 1.73,4.43c1.6,1.17 1.62,1.71 0.25,7.09c-1.1,4.33 -2.1,6.14 -3.9,7.03c-3.61,1.79 -4.58,4.13 -2.6,6.32c1.55,1.71 1.51,2.16 -0.53,6.92c-1.88,4.37 -2.59,5.1 -4.96,5.1c-3.49,0 -6.24,3.66 -4.65,6.18c0.78,1.24 0.69,2.39 -0.33,4.3c-2.11,3.95 -8,10.52 -9.42,10.52c-1.34,0 -12.68,7.62 -13.69,9.19c-0.33,0.52 -0.43,1.92 -0.22,3.12c0.31,1.77 -0.91,3.03 -6.33,6.57c-5.81,3.79 -6.98,4.21 -8.68,3.15c-1.63,-1.02 -2.79,-0.85 -6.82,1.04c-3.12,1.46 -4.85,2.9 -4.85,4.04c0,2.31 -0.92,2.81 -9.07,4.91c-6.61,1.7 -6.88,1.69 -8.13,-0.1c-1.83,-2.62 -9.01,-1.63 -10.36,1.44zm-120.92,-135.36l-1.22,3.5l-20.49,0.27c-19.49,0.26 -20.62,0.17 -23.15,-1.82l-2.66,-2.1l0,-64.29c0,-63.53 0.02,-64.32 2.07,-66.93l2.08,-2.63l310.74,0l1.55,2.22c1.37,1.96 1.56,9.95 1.56,66.55l0,64.32l-4.95,4.95l-20.6,-0.27l-20.6,-0.27l-4.25,-10.5c-5.78,-14.31 -7.76,-17.98 -15.61,-29.03c-7.01,-9.88 -16.17,-19.16 -26.12,-26.49c-7.02,-5.16 -23.18,-13.56 -31.44,-16.34c-16.82,-5.65 -45.27,-6.69 -62.19,-2.26c-26.8,7.02 -52.68,25.4 -67.77,48.12c-5.88,8.84 -14.11,24.87 -16.95,33zm-7.52,-314.75l3.03,2.75l115.74,0c112.51,-0.01 115.82,-0.06 118.89,-1.93c3.82,-2.34 3.46,-1.2 7.86,-24.54c4,-21.2 3.95,-21.8 -2.37,-25.29c-4.06,-2.24 -20.86,-5.14 -47.65,-8.22c-58.3,-6.69 -133.5,-4.69 -187.82,5.01c-10.8,1.93 -15.59,4.07 -17.64,7.89c-0.67,1.25 0.22,7.73 2.99,21.68c3.68,18.6 4.13,20.08 6.97,22.65zm103.5,404.88c7.03,2.02 22.36,2.41 29.31,0.74c9.36,-2.25 20.46,-8.26 27.65,-14.96c13.48,-12.57 19.65,-26.38 19.82,-44.41c0.18,-17.68 -4.91,-30.64 -17.14,-43.67c-5.92,-6.31 -8.95,-8.62 -15.5,-11.83c-8.61,-4.22 -19.57,-7 -27.62,-7c-6.26,0 -18.15,2.29 -24.57,4.74c-16.83,6.4 -31.35,23.41 -36.06,42.25c-2.27,9.06 -1.49,25.03 1.69,34.51c6.1,18.22 23.06,34.06 42.42,39.63zm-127.03,-256.35c0.36,0.95 2.49,1.23 7.77,1.01l7.26,-0.29l0.29,-5c0.37,-6.28 1.9,-7.5 9.4,-7.5l5.81,0l0.02,-6.25c0.03,-10.62 1.61,-18.73 4.17,-21.47c4.82,-5.16 5.65,-5.28 36.36,-5.28c31.04,0 32.92,0.29 36.78,5.58c2.02,2.77 3.62,11.8 3.65,20.63c0.02,4.62 0.39,5.92 1.95,6.75c2.97,1.59 57.23,1.4 59.31,-0.21c1.29,-0.99 1.69,-3.55 1.94,-12.43c0.36,-12.51 1.42,-15.03 7.84,-18.47c3.13,-1.68 6.12,-1.85 31.96,-1.85c25.16,0 28.93,0.21 31.99,1.75c5.33,2.69 7.01,6.61 7.97,18.6c0.46,5.77 1.14,10.98 1.51,11.57c0.37,0.59 3.31,1.08 6.54,1.08c7.44,0 9.01,1.41 9.01,8.12l0,4.97l6.75,-0.29l6.75,-0.3l0.27,-87.5c0.25,-79.99 0.13,-87.82 -1.4,-91.25c-0.92,-2.06 -1.99,-3.75 -2.38,-3.75c-0.4,0 -1.27,3.49 -1.95,7.75c-0.68,4.26 -2.76,15.28 -4.64,24.49l-3.4,16.73l0,111.03l-8,0l-0.01,-6.75c-0.02,-10.97 -5.89,-20.86 -14.85,-24.99c-5.56,-2.57 -54.95,-3.14 -63.82,-0.75c-11.81,3.19 -18.27,11.41 -19.26,24.49l-0.56,7.5l-44.5,0.54l0,-5.48c0,-12.75 -7.6,-23.93 -18.39,-27.07c-5.17,-1.5 -8.98,-1.62 -32.98,-0.96c-18.88,0.51 -28.33,1.16 -31.06,2.12c-9.76,3.45 -15.2,11.59 -16.27,24.36l-0.6,7.09l-3.6,-0.3l-3.6,-0.3l-0.54,-58.5l-0.53,-58.5l-3.7,-19.12c-2.03,-10.52 -4.11,-20.19 -4.62,-21.5c-0.89,-2.31 -0.97,-2.26 -2.76,1.62c-1.75,3.78 -1.86,8.85 -2.12,90.49c-0.14,47.56 -0.04,87.07 0.24,87.79zm16.03,307.87c-4.77,2.22 -6.01,2.33 -26.5,2.26c-22.47,-0.07 -25.26,-0.49 -30.84,-4.65c-5.01,-3.74 -7.15,-7.94 -7.16,-14.01l0,-5.25l4.5,0c5.5,0 6.12,-2.22 1.34,-4.8c-2.34,-1.26 -3.88,-2.07 -4.89,-3.3c-1.95,-2.39 -1.95,-6.37 -1.95,-18.28l0,-0.62l0,-17l86.78,0l0.58,2.25c0.9,3.55 13.79,22.68 19.45,28.86c2.83,3.09 4.85,5.9 4.5,6.25c-0.36,0.35 -8.56,0.68 -18.23,0.72c-13.62,0.06 -18.69,0.46 -22.51,1.75c-2.71,0.92 -5.09,2.18 -5.29,2.79c-0.42,1.31 2.85,2.35 7.47,2.37c2.65,0.01 3.28,0.42 3.4,2.26c0.58,8.63 -3.02,14.85 -10.65,18.4zm308,-0.24c-3.67,1.92 -5.85,2.11 -26.5,2.3c-20.68,0.19 -22.86,0.04 -27,-1.82c-8.28,-3.72 -12,-8.78 -12,-16.34c0,-4.51 0.03,-4.55 3.42,-4.55c8.11,0 8.93,-3.22 1.4,-5.46c-3.79,-1.13 -9.81,-1.54 -22.33,-1.54c-9.44,0 -17.38,-0.23 -17.66,-0.5c-0.28,-0.28 1.47,-2.64 3.88,-5.25c5.53,-5.98 17.7,-23.97 19.4,-28.69l1.29,-3.56l86.6,0l0,17.02c0,11.91 0,16.14 -2.07,18.69c-1.15,1.42 -2.95,2.32 -5.74,3.73c-4.6,2.32 -3.53,4 2.76,4.37l5.29,0.3l-0.46,5.48c-0.56,6.74 -4.49,12.8 -10.28,15.82zm-353.01,-73.66c-0.51,2.18 -0.89,2.25 -12.99,2.25c-12.36,0 -12.5,-0.02 -15.73,-2.92l-3.27,-2.92l0,-77.33c0,-3.42 0,-6.71 0,-9.86c-0.01,-63.69 -0.01,-72.34 4.26,-77.3c0.89,-1.02 1.95,-1.89 3.24,-3.05c4.46,-4.03 7.73,-4.86 17.5,-4.43l7,0.31l0.26,86.5c0.14,47.58 0.02,87.51 -0.27,88.75zm369.41,1.3c-3.04,1.55 -5.72,1.93 -13.11,1.83c-5.11,-0.06 -10.08,-0.32 -11.04,-0.57c-1.65,-0.43 -1.75,-5.53 -1.75,-89.36l0,-88.91l2.59,-0.65c4.29,-1.08 13.43,0.35 18.3,2.86c3.14,1.61 5.54,3.9 7.6,7.23l3.01,4.86l0.27,77.57c0.21,57.39 -0.03,78.29 -0.89,80.38c-0.66,1.6 -2.82,3.66 -4.98,4.76zm-280.63,-300.91c3.77,1.32 7.35,1.75 12.81,1.52c19.27,-0.79 33.49,-14.33 34.69,-33.02c0.62,-9.57 -1.47,-16.66 -7.21,-24.44c-5.21,-7.09 -10.59,-10.55 -20.04,-12.88c-5.83,-1.44 -7.83,-1.51 -13.91,-0.48c-13.61,2.31 -22.91,9.17 -28.45,20.98c-2.26,4.84 -2.66,7.02 -2.65,14.68c0,8 0.33,9.66 2.99,14.92c4.63,9.17 11.55,15.12 21.77,18.72zm-29.88,293.03c-0.28,0.46 -9.4,0.83 -20.26,0.83c-18.46,0 -19.9,-0.13 -21.93,-2.03c-3.13,-2.91 -3.37,-4.8 -3.02,-23.4c0.29,-15.2 0.5,-16.86 2.26,-18.15c1.52,-1.11 6.13,-1.42 21,-1.41l19.06,0l0.13,15.25c0.09,10.01 0.68,17.44 1.71,21.66c0.86,3.54 1.33,6.8 1.05,7.25zm268.16,-1.62c-2.45,2.44 -2.52,2.45 -23.11,2.45c-18.78,0 -20.6,-0.15 -20.02,-1.65c2.01,-5.25 3.67,-20.56 3.39,-31.38l-0.31,-11.97l19.69,0c19.22,0 19.73,0.05 21.25,2.22c1.27,1.81 1.56,5.54 1.56,20.05c0,17.59 -0.03,17.85 -2.45,20.28zm-292.11,-79.97c2.78,2.03 5.21,1.75 7,-0.8c1.35,-1.93 1.56,-7.89 1.56,-44.81c0,-41.48 -0.05,-42.65 -2.04,-44.78c-2.55,-2.74 -4.38,-2.77 -7.05,-0.1c-2.07,2.07 -2.09,2.58 -1.75,45.58c0.33,41.69 0.42,43.55 2.28,44.91zm267.21,-0.41c2.23,2.46 4.9,2.31 6.79,-0.39c1.35,-1.93 1.56,-7.9 1.56,-45c0,-41.45 -0.06,-42.84 -2,-44.78c-2.41,-2.41 -2.92,-2.45 -5.78,-0.44l-2.22,1.55l0,43.62c0,39.18 0.17,43.8 1.65,45.44zm-124.27,65.44c-4.67,1.96 -8.26,1.71 -12.88,-0.89c-4.83,-2.72 -7.5,-7.6 -7.49,-13.72c0,-5.65 2.65,-10.14 7.27,-12.33c10.91,-5.17 22.45,2.61 21.43,14.45c-0.48,5.63 -3.79,10.6 -8.33,12.49zm108.38,-459.36c1.88,2.12 3.6,2.23 5.18,0.33c0.16,-0.2 0.3,-0.36 0.42,-0.54c0.83,-1.27 0.2,-3.48 -6.21,-26.24l-0.65,-2.3c-2.95,-10.45 -7.69,-27.55 -10.53,-38c-2.85,-10.45 -5.82,-19.67 -6.59,-20.48c-1.64,-1.72 -4.66,-0.4 -5.19,2.26c-0.17,0.86 3.58,15.66 8.33,32.89c4.74,17.23 9.77,35.6 11.16,40.83c1.39,5.23 3.22,10.29 4.08,11.25zm-233.56,0.55c1.56,1.56 3.29,1.52 4.62,-0.09c0.59,-0.7 4.46,-13.69 8.59,-28.85c4.14,-15.17 9.32,-34 11.52,-41.85c4.06,-14.51 4.17,-18.01 0.56,-18.01c-2.64,0 -4.26,4.3 -11.51,30.5c-3.95,14.3 -8.93,32.3 -11.07,40c-4.28,15.46 -4.44,16.57 -2.71,18.3zm116.24,181.74c2.65,2.64 4.97,2.43 6.59,-0.59c1.49,-2.79 1.28,-57.24 -0.23,-58.75c-1.69,-1.69 -4.82,-1.49 -6.97,0.45c-1.69,1.53 -1.83,3.78 -1.83,29.05l0,27.39l2.44,2.45zm-26.34,281.89c-10.84,7.21 -15.47,5.98 -18.65,-4.96c-3.09,-10.62 -0.05,-13.47 14.38,-13.47c6.07,0 9.27,0.41 10,1.29c1.67,2.02 3,9.25 2.02,11.01c-0.48,0.86 -3.96,3.62 -7.75,6.13zm74.09,1.53c-3.2,4.3 -6.83,3.84 -15.51,-1.96c-4.19,-2.81 -7.86,-5.49 -8.15,-5.95c-0.88,-1.42 1.19,-10.26 2.61,-11.16c2.02,-1.27 19.37,-1.07 22.29,0.26c1.39,0.64 2.79,1.96 3.1,2.94c0.78,2.46 -2.04,12.77 -4.34,15.87zm-19.14,-41.58c-3.55,2.54 -7.44,4.62 -8.64,4.62c-2.46,0 -8.41,-5.06 -8.41,-7.15c0,-3.24 5.39,-17.51 7.21,-19.1c3,-2.61 6.96,-2.13 11.89,1.42c5.69,4.11 6.83,5.67 6.87,9.39c0.04,3.88 -1.01,5.16 -8.92,10.82zm-38.13,2.03c-1.69,1.43 -4.05,2.58 -5.25,2.56c-1.19,-0.01 -5.65,-2.6 -9.91,-5.75c-7.11,-5.26 -7.73,-6.01 -7.75,-9.27c-0.01,-3.93 3.77,-8.36 9.69,-11.34c6.93,-3.49 10.52,-0.9 14.07,10.11c2.92,9.06 2.82,10.6 -0.85,13.69zm20.42,67.48c-4.25,1.94 -13.71,1.39 -16.71,-0.96c-3.29,-2.59 -3.3,-4.7 -0.09,-14.86c2.7,-8.54 4.12,-10.07 9.39,-10.07c4.37,0 6.48,2.65 9.46,11.84c2.91,8.99 2.47,11.99 -2.05,14.05zm-74.26,-338.81c-1.61,1.6 -3.9,2.92 -5.08,2.92c-2.73,0 -8,-5.19 -8,-7.88c0,-8.44 10.83,-12.21 14.53,-5.05c2.18,4.2 1.81,6.75 -1.45,10.01zm-12.63,-17.33c-1.41,1.24 -2.87,2.24 -3.26,2.22c-0.38,-0.01 -2.84,-1.25 -5.47,-2.75c-3.91,-2.23 -4.73,-3.17 -4.5,-5.19c0.31,-2.71 5.82,-7.03 8.97,-7.03c1.31,0 2.66,1.62 4.36,5.25l2.46,5.25l-2.56,2.25zm33.5,20.49c-1.4,5.03 -3.54,6.04 -7.95,3.75c-5.76,-2.99 -8.06,-5.66 -7.11,-8.25c0.7,-1.88 1.7,-2.29 6.17,-2.55c6.34,-0.37 9.94,0.39 9.93,2.08c0,0.68 -0.47,2.91 -1.04,4.97zm-40.7,1.87c-4.62,4.31 -7.09,4.83 -9.64,2.01c-2.16,-2.39 -3.24,-8.61 -1.67,-9.59c0.64,-0.39 3.84,-0.93 7.1,-1.19c5.67,-0.45 6,-0.35 7.16,2.2c1.14,2.5 0.95,2.93 -2.95,6.57zm19.78,15.07c-2.71,2.19 -5.57,2.26 -9.33,0.22c-2.97,-1.61 -2.98,-2.17 -0.18,-9.03c1.58,-3.86 2.29,-4.32 5.69,-3.67c2.2,0.42 3.01,1.45 4.38,5.59c1.67,5.01 1.67,5.08 -0.56,6.89zm10.54,-38.23c-5.24,3.6 -5.55,3.64 -8.34,1.05c-2.03,-1.9 -2.07,-2.21 -0.67,-6.16c2.69,-7.63 5.15,-8.64 10.36,-4.25c4.22,3.55 3.91,5.75 -1.35,9.36z"/>
   </g>
  </g>
 </g>

</svg>