<svg width="40" height="25" xmlns="http://www.w3.org/2000/svg">

 <g>
  <g  id="svg_1">
   <path fill="currentColor" stroke="#fff" stroke-width="0.5" id="svg_2"  d="m4.58413,23.90515c-0.1315,-0.02797 -0.3014,-0.08288 -0.37788,-0.12155c-0.18963,-0.09669 -0.48792,-0.4016 -0.57201,-0.58531c-0.14845,-0.32425 -0.15434,-0.38641 -0.16852,-1.76075c-0.01177,-1.12468 -0.00588,-1.35259 0.03737,-1.45619c0.12631,-0.30146 0.53325,-0.35118 0.76683,-0.09393c0.06609,0.07252 0.0699,0.13813 0.08651,1.42787c0.01626,1.27973 0.02111,1.35846 0.08755,1.47276c0.14776,0.25346 0.00242,0.24172 2.94034,0.24172c2.93792,0 2.79258,0.01174 2.94034,-0.24172c0.0654,-0.11292 0.07094,-0.18923 0.08167,-1.14817l0.01142,-1.02731l-2.22956,0l-2.22956,0l-0.13496,-0.10014c-0.07405,-0.0549 -0.84123,-0.80631 -1.70427,-1.66993l-1.56966,-1.56945l-0.15364,0.03246c-0.08443,0.0183 -0.38272,0.02763 -0.66267,0.02106c-0.46162,-0.0107 -0.52633,-0.02037 -0.70074,-0.10152c-0.25365,-0.11879 -0.41248,-0.26244 -0.53637,-0.4862c-0.09309,-0.16713 -0.10208,-0.21306 -0.10208,-0.51175c0,-0.38192 0.06713,-0.55941 0.29829,-0.79008c0.27649,-0.27625 0.6035,-0.36465 1.26756,-0.3429l0.4239,0.01381l0,-2.43584l0,-2.43618l-0.57962,0c-0.55644,0 -0.58758,-0.0038 -0.77756,-0.09254c-0.43359,-0.2027 -0.66614,-0.58738 -0.64364,-1.06425c0.02076,-0.43958 0.24569,-0.77454 0.64606,-0.9617c0.18721,-0.08771 0.22043,-0.09151 0.77514,-0.09151c0.55644,0 0.57962,-0.00276 0.57962,-0.06906c0.00104,-0.26969 0.01177,-0.28212 1.74129,-2.01145c0.91633,-0.91612 1.71534,-1.68927 1.77555,-1.71793c0.09412,-0.04455 0.4239,-0.0518 2.31365,-0.0518l2.20361,0l-0.01177,-0.92371c-0.01246,-1.01798 -0.02145,-1.06529 -0.22804,-1.20411c-0.16783,-0.11257 -0.46024,-0.12328 -3.0708,-0.1105c-2.23787,0.0107 -2.32334,0.01347 -2.45588,0.08011c-0.07648,0.03833 -0.16887,0.12293 -0.20763,0.18992c-0.06609,0.11361 -0.07129,0.19545 -0.08755,1.36399c-0.01384,0.99347 -0.02699,1.25798 -0.06644,1.31668c-0.17233,0.25898 -0.59866,0.24103 -0.76545,-0.03211c-0.06333,-0.10359 -0.06748,-0.18094 -0.06782,-1.26005c0,-1.26419 0.02907,-1.53388 0.20036,-1.84915c0.12596,-0.23171 0.41456,-0.48551 0.65437,-0.57495c0.34777,-0.12984 0.65299,-0.14192 3.2805,-0.13053c2.7341,0.01209 2.64828,0.00622 3.02962,0.20028c0.17544,0.08909 0.40487,0.32943 0.50834,0.53247c0.16506,0.32494 0.18133,0.45305 0.18167,1.46067l0.00035,0.94098l0.69209,0l0.69209,0l0.00035,-0.94098c0.00035,-1.01246 0.01592,-1.13504 0.18583,-1.46862c0.20486,-0.40229 0.58758,-0.64159 1.12084,-0.70099c0.19136,-0.02141 1.27517,-0.03004 2.79846,-0.02279c2.12333,0.01001 2.51194,0.01968 2.6597,0.06526c0.50695,0.15643 0.77029,0.41507 0.962,0.94443c0.0218,0.06008 0.04568,0.52419 0.05675,1.105l0.01938,1.00141l0.472,0.00967l0.472,0.00932l0.01626,-0.9762c0.01799,-1.07323 0.03287,-1.16474 0.24119,-1.51005c0.15226,-0.25277 0.41871,-0.46306 0.70974,-0.56044c0.23393,-0.07839 0.23669,-0.07839 2.84379,-0.08978c1.72468,-0.00725 2.68946,0.00104 2.84621,0.02555c0.38203,0.05905 0.60454,0.16471 0.84227,0.39953c0.3675,0.36292 0.43083,0.63952 0.43186,1.88955l0.00069,0.82012l0.60558,0l0.60558,0l0.00069,-0.88918c0.00069,-1.19306 0.05433,-1.43478 0.39968,-1.80322c0.17614,-0.1882 0.40383,-0.31872 0.67236,-0.38537c0.28133,-0.0701 5.53498,-0.06941 5.81354,0.00069c0.55679,0.13985 0.90214,0.50105 1.02291,1.06978c0.06955,0.32701 0.07129,2.47659 0.00208,2.6413c-0.07371,0.17611 -0.20901,0.26382 -0.40729,0.26382c-0.14395,0 -0.1879,-0.01727 -0.29794,-0.1181l-0.12942,-0.1181l-0.0173,-1.25452c-0.01626,-1.18028 -0.02145,-1.26177 -0.08755,-1.37538c-0.03876,-0.06699 -0.13115,-0.15159 -0.20763,-0.18992c-0.13392,-0.06734 -0.20624,-0.06906 -2.78462,-0.06906c-2.57838,0 -2.6507,0.00173 -2.78462,0.06906c-0.07648,0.03833 -0.16887,0.12293 -0.20763,0.18992c-0.06575,0.11326 -0.07025,0.17956 -0.07025,1.03594l0,0.91508l2.28389,0.01727c1.6662,0.01243 2.30258,0.02832 2.3531,0.05801c0.03806,0.02245 0.82635,0.7994 1.75168,1.72657c1.39006,1.39265 1.68627,1.70619 1.70427,1.80253c0.01211,0.06388 0.0218,2.14819 0.0218,4.63134c0,2.48315 -0.00969,4.56746 -0.0218,4.63134c-0.01799,0.09634 -0.31421,0.40989 -1.70427,1.80253c-0.92532,0.92717 -1.72468,1.70826 -1.7759,1.7352c-0.07821,0.04144 -0.4592,0.04938 -2.32888,0.04938l-2.23579,0l0.01073,1.04457c0.00969,0.96342 0.01557,1.0532 0.07786,1.15576c0.13496,0.22273 0.05294,0.21686 2.96975,0.21686c2.94657,0 2.80054,0.01174 2.9483,-0.24172c0.06644,-0.1143 0.07129,-0.19338 0.08755,-1.45031c0.01869,-1.4441 0.0173,-1.43305 0.21835,-1.55564c0.21039,-0.12811 0.48446,-0.06078 0.61354,0.15021c0.06367,0.10428 0.06748,0.18129 0.06713,1.38816c-0.00069,1.35984 -0.02145,1.58637 -0.17233,1.88161c-0.09862,0.19303 -0.32459,0.43371 -0.50799,0.54111c-0.34466,0.20132 -0.28376,0.19717 -3.12478,0.20995c-1.75202,0.00794 -2.69153,-0.00035 -2.85487,-0.02521c-0.59866,-0.09185 -1.02291,-0.45616 -1.18589,-1.01902c-0.03668,-0.12638 -0.05502,-0.45685 -0.06817,-1.23449l-0.01799,-1.06184l-0.61873,0l-0.61873,0l-0.00104,0.90645c-0.00138,1.01833 -0.02907,1.31668 -0.1488,1.59984c-0.17925,0.42508 -0.59243,0.7293 -1.09592,0.80769c-0.30625,0.04765 -5.09827,0.04696 -5.39829,-0.00069c-0.4547,-0.07252 -0.83916,-0.3315 -1.01979,-0.68717c-0.16749,-0.32977 -0.19032,-0.52211 -0.19102,-1.61607l-0.00035,-1.01004l-0.53637,0l-0.53637,0l-0.00035,0.95824c0,0.52695 -0.01626,1.05804 -0.03633,1.17993c-0.10381,0.63848 -0.54675,1.06874 -1.20908,1.17476c-0.29933,0.048 -4.91833,0.04903 -5.22527,0.00104c-0.4592,-0.07148 -0.91321,-0.38088 -1.06201,-0.72378c-0.14465,-0.33288 -0.15745,-0.44407 -0.17441,-1.52836l-0.01661,-1.06184l-0.70593,0l-0.70558,0l0,1.01695c0,0.62191 -0.01523,1.08808 -0.0391,1.19996c-0.12561,0.59118 -0.58101,1.01108 -1.18935,1.09706c-0.14326,0.02037 -1.26721,0.0335 -2.75105,0.03211c-2.08007,-0.00173 -2.54965,-0.01105 -2.74828,-0.05352zm14.68681,-0.9358c0.07509,-0.03729 0.14741,-0.11292 0.19032,-0.19856c0.06436,-0.12846 0.06921,-0.20719 0.06921,-1.13953l0,-1.00141l-2.93273,-0.00898l-2.93273,-0.00863l0,1.028c0,0.93062 0.00588,1.03939 0.06333,1.14851c0.13323,0.25208 0.00035,0.24103 2.86075,0.24103c2.36867,0 2.56972,-0.00449 2.68184,-0.06043zm8.97604,-0.02417c0.18306,-0.12397 0.19413,-0.1989 0.19413,-1.31288l0,-1.01971l-3.01059,0l-3.01059,0l0.00035,0.95824c0,0.97137 0.02042,1.17165 0.13288,1.29976c0.1398,0.15953 0.10727,0.15781 2.92926,0.14952c2.57976,-0.00725 2.66766,-0.00967 2.76455,-0.07493zm8.9577,-4.70662l1.47899,-1.47621l0.00069,-4.36752l0.00069,-4.36752l-1.47899,-1.47621l-1.47899,-1.47621l-14.72522,0l-14.72488,-0.00035l-0.94297,0.94029c-0.51872,0.51693 -0.94297,0.95099 -0.94297,0.96446c0,0.01347 0.06609,-0.00553 0.14707,-0.04213c0.1135,-0.05111 0.22631,-0.06665 0.49311,-0.06734c0.31006,-0.00069 0.36785,0.00967 0.55575,0.09841c0.25019,0.1181 0.43602,0.32045 0.53395,0.58151c0.06436,0.17162 0.06955,0.26831 0.06955,1.31944c0,1.31944 -0.01004,1.37987 -0.28272,1.67753c-0.24881,0.27142 -0.44121,0.34566 -0.89383,0.34428c-0.32667,-0.00069 -0.38134,-0.01036 -0.54294,-0.09427c-0.22043,-0.11499 -0.39864,-0.29386 -0.5028,-0.5045c-0.07786,-0.15746 -0.0789,-0.17818 -0.0789,-1.42027c0,-1.1423 0.00588,-1.27075 0.0616,-1.37262c0.03357,-0.06181 0.04948,-0.11223 0.03495,-0.11223c-0.01419,0 -0.17025,0.1433 -0.34674,0.31872l-0.32078,0.31872l0,4.3689l0,4.36856l1.47934,1.47656l1.47899,1.47621l14.72453,0l14.72453,0l1.47899,-1.47621zm-34.92452,-1.84881c0.10658,-0.05352 0.1353,-0.22963 0.05121,-0.31354c-0.0834,-0.08322 -0.89902,-0.08253 -0.99142,0.00069c-0.10554,0.09565 -0.07959,0.23827 0.05779,0.31631c0.0962,0.05421 0.77237,0.0518 0.88241,-0.00345zm2.96906,-6.45425c0.03045,-0.03039 0.04153,-0.31182 0.04153,-1.05079c0,-1.15266 0.00865,-1.11778 -0.27822,-1.11778c-0.13184,0 -0.17717,0.01485 -0.20486,0.06665c-0.05398,0.10014 -0.04845,2.04805 0.00554,2.10192c0.05398,0.05387 0.38203,0.05387 0.43602,0zm-2.90124,-0.6813c0.05156,-0.096 0.04429,-0.19648 -0.01834,-0.25898c-0.08167,-0.08149 -0.89902,-0.07908 -0.98969,0.00276c-0.0789,0.07113 -0.08132,0.1768 -0.00623,0.25968c0.05018,0.05525 0.11592,0.06319 0.51803,0.06319c0.4201,0 0.4637,-0.00587 0.49623,-0.06665zm17.22782,-6.0195c-0.01211,-1.06909 -0.02145,-1.10915 -0.28583,-1.22483c-0.12907,-0.05663 -0.3284,-0.06216 -2.53685,-0.07183c-2.60952,-0.0114 -2.82857,-0.00035 -2.98532,0.14952c-0.14845,0.14192 -0.17198,0.31182 -0.17198,1.24002l0,0.84809l2.99536,0l2.99536,0l-0.01073,-0.94098zm8.86531,0.01727c0,-1.05528 -0.01177,-1.11087 -0.25953,-1.23449c-0.13461,-0.06734 -0.20763,-0.06906 -2.76835,-0.06906c-2.56073,0 -2.63374,0.00173 -2.76835,0.06906c-0.24777,0.12362 -0.25953,0.17922 -0.25953,1.23449l0,0.92371l3.02789,0l3.02789,0l0,-0.92371zm-1.83403,15.26905c-0.04775,-0.00829 -0.20347,-0.03142 -0.34604,-0.0518c-0.59693,-0.08391 -1.36134,-0.33461 -1.90324,-0.62398c-2.53927,-1.3557 -3.78572,-4.22836 -3.02962,-6.98258c0.45885,-1.6727 1.63437,-3.08917 3.18534,-3.8385c3.24555,-1.56876 7.1074,-0.03246 8.37808,3.33262l0.11073,0.29352l0.60004,-0.01174c0.65852,-0.01278 0.9845,0.02452 1.23469,0.14089c0.19067,0.08909 0.49104,0.37605 0.56163,0.53731c0.04014,0.09151 0.06333,0.10877 0.11904,0.08944c0.03806,-0.01347 0.46612,-0.03108 0.95162,-0.03902c1.0191,-0.01658 1.18416,0.00932 1.50114,0.2355c0.37892,0.27073 0.52287,0.6081 0.52287,1.2231c0,0.615 -0.14395,0.95237 -0.52287,1.2231c-0.31698,0.22618 -0.48204,0.25208 -1.50114,0.2355c-0.4855,-0.00794 -0.91356,-0.02555 -0.95162,-0.03902c-0.05571,-0.01934 -0.0789,-0.00207 -0.11904,0.08944c-0.07059,0.16126 -0.37096,0.44822 -0.56128,0.53696c-0.08893,0.04144 -0.26023,0.09116 -0.38065,0.11085c-0.40937,0.0663 -1.30528,0.03695 -1.61014,-0.05249c-0.06644,-0.01934 -0.09101,0.00863 -0.20209,0.22894c-0.85127,1.68685 -2.40051,2.87577 -4.25288,3.2639c-0.33774,0.07079 -0.54052,0.09013 -1.05786,0.10049c-0.35193,0.00691 -0.67894,0.00587 -0.72669,-0.00242zm1.45339,-0.9686c1.55235,-0.25035 2.99951,-1.30148 3.7089,-2.69344c0.26507,-0.52039 0.31628,-0.67543 0.27337,-0.82979c-0.02249,-0.08115 -0.03703,-0.55077 -0.03703,-1.20583c-0.00035,-1.11018 0.02042,-1.30632 0.15987,-1.51869c0.04499,-0.06872 0.0391,-0.11015 -0.05814,-0.41714c-0.136,-0.42784 -0.3893,-0.95065 -0.63188,-1.30287c-0.18825,-0.27349 -0.60904,-0.77523 -0.65333,-0.77937c-0.01315,-0.00138 -0.02872,0.43648 -0.0346,0.97309c-0.00969,0.87364 -0.0173,0.98829 -0.07544,1.09637c-0.09066,0.16989 -0.18998,0.27107 -0.35054,0.3574c-0.13357,0.07148 -0.17821,0.07424 -1.24576,0.07424c-1.06755,0 -1.11219,-0.00276 -1.24576,-0.07424c-0.16056,-0.08633 -0.25988,-0.1875 -0.35054,-0.3574c-0.05883,-0.11015 -0.06575,-0.22756 -0.07509,-1.32428c-0.01177,-1.38781 -0.00415,-1.4403 0.25088,-1.67477c0.19655,-0.1806 0.32355,-0.21133 0.88414,-0.21478l0.46716,-0.00276l-0.19032,-0.06872c-0.43152,-0.15608 -0.90214,-0.24068 -1.45339,-0.26071c-1.25164,-0.04593 -2.27836,0.27038 -3.32998,1.02523c-0.31282,0.22445 -0.83985,0.7659 -1.09419,1.12365c-0.25157,0.35429 -0.58551,1.01349 -0.71216,1.40611c-0.51042,1.58361 -0.22597,3.29912 0.77479,4.67105c0.25607,0.35118 0.88657,0.94857 1.26652,1.19996c1.11772,0.73966 2.40985,1.01453 3.7525,0.79767zm6.4738,-3.56708l0.10104,-0.10118l0,-1.05838l0,-1.05838l-0.10104,-0.10118l-0.10139,-0.10083l-0.6125,0l-0.61284,0l0.02007,0.12949c0.08617,0.5639 0.05433,1.3557 -0.08063,2.01248c-0.05121,0.25035 -0.05675,0.33046 -0.02457,0.35118c0.02318,0.0145 0.3277,0.02693 0.67652,0.02693l0.63395,0.00069l0.10139,-0.10083zm2.94138,-0.71998c0.09655,-0.10774 0.10104,-0.12708 0.10104,-0.43958c0,-0.31251 -0.0045,-0.33185 -0.10104,-0.43958l-0.10104,-0.11292l-0.79625,0l-0.79659,0l-0.10589,0.10152c-0.10485,0.10014 -0.10624,0.10601 -0.10624,0.45098c0,0.33668 0.00346,0.35291 0.09516,0.43924c0.05225,0.04903 0.12631,0.09738 0.16437,0.10705c0.03806,0.01001 0.40141,0.01519 0.80732,0.01209l0.73846,-0.00587l0.1007,-0.11292zm-7.60605,-3.78049l-0.00727,-0.90645l-0.74642,0l-0.74642,0l-0.00727,0.90645l-0.00761,0.90645l0.7613,0l0.7613,0l-0.00761,-0.90645zm-25.25985,7.88902c-0.25538,-0.09116 -0.41075,-0.2065 -0.54606,-0.40436c-0.19136,-0.28039 -0.19725,-0.33323 -0.18548,-1.64024c0.01073,-1.16543 0.0128,-1.19444 0.09032,-1.33981c0.11592,-0.21617 0.28999,-0.39435 0.48031,-0.49138c0.14084,-0.07183 0.22631,-0.08702 0.54225,-0.09703c0.36196,-0.0114 0.38307,-0.00794 0.59554,0.09634c0.26196,0.1288 0.43705,0.31907 0.53602,0.58323c0.06748,0.17991 0.07059,0.24932 0.0609,1.38367l-0.01038,1.19444l-0.09205,0.17266c-0.11939,0.22342 -0.31455,0.4092 -0.5291,0.50381c-0.24327,0.10705 -0.69866,0.12569 -0.94228,0.03868zm0.63949,-0.91197c0.03045,-0.03039 0.04153,-0.31182 0.04153,-1.05079c0,-1.15266 0.00865,-1.11778 -0.27822,-1.11778c-0.13184,0 -0.17717,0.01485 -0.20486,0.06665c-0.05398,0.10014 -0.04845,2.04805 0.00554,2.10192c0.05398,0.05387 0.38203,0.05387 0.43602,0zm22.22746,0.72757c-0.44017,-0.07286 -0.8793,-0.31976 -1.23088,-0.69166c-0.41768,-0.44166 -0.6163,-0.94029 -0.6163,-1.54838c0,-0.60741 0.19828,-1.10638 0.61561,-1.54838c0.28791,-0.30526 0.57305,-0.48689 0.96754,-0.61604c0.38619,-0.12638 0.95197,-0.13329 1.33227,-0.01623c0.39172,0.12051 0.67686,0.29386 0.96927,0.58876c0.44086,0.44511 0.65714,0.97413 0.65714,1.60743c0,0.3871 -0.06125,0.63883 -0.24846,1.02005c-0.20313,0.41403 -0.58966,0.79871 -0.99938,0.99519c-0.46197,0.22169 -0.94885,0.29213 -1.44681,0.20926zm0.80005,-0.93304c0.20763,-0.04593 0.53325,-0.25415 0.67167,-0.42957c0.44813,-0.56839 0.40972,-1.35639 -0.08997,-1.84225c-0.40902,-0.3978 -1.02152,-0.50347 -1.54128,-0.26589c-0.24915,0.11395 -0.54848,0.41334 -0.66856,0.66887c-0.08305,0.1768 -0.09343,0.23999 -0.09343,0.56182c0,0.32114 0.01073,0.38502 0.09274,0.5601c0.12665,0.27003 0.37304,0.5228 0.63361,0.65092c0.33739,0.16575 0.57616,0.18889 0.99522,0.096zm-4.97716,-0.81977c-0.19136,-0.11637 -0.22216,-0.23896 -0.22216,-0.88193c0,-0.42197 0.01315,-0.60602 0.04983,-0.69339c0.05087,-0.12155 0.23047,-0.25829 0.33947,-0.25864c0.05606,0 0.0609,-0.06837 0.06402,-0.92371c0.00173,-0.50796 0.01453,-0.96239 0.02838,-1.01004c0.02042,-0.0701 -0.00035,-0.11533 -0.11073,-0.24172c-0.61354,-0.70202 -0.41629,-1.74245 0.40937,-2.15821c0.19171,-0.09634 0.23254,-0.10359 0.58655,-0.10359c0.3412,0 0.40141,0.00967 0.58032,0.09323c0.25711,0.12017 0.5554,0.41783 0.67582,0.6744c0.08305,0.1768 0.09343,0.23999 0.09343,0.56182c0,0.31976 -0.01073,0.38571 -0.09136,0.55664c-0.04983,0.1067 -0.14915,0.25829 -0.22008,0.33633l-0.12873,0.14261l0.00554,1.32082l0.00554,1.32117l-0.10658,0.21237c-0.14326,0.28592 -0.33982,0.43544 -0.64849,0.49345c-0.15053,0.02832 -0.23808,0.02003 -0.52876,-0.05042c-0.08374,-0.02003 -0.08651,-0.01485 -0.09205,0.1692c-0.00588,0.21582 -0.07959,0.365 -0.22078,0.44822c-0.12769,0.07528 -0.33705,0.07148 -0.46854,-0.00863zm1.39767,-4.56297c0.11558,-0.0701 0.2142,-0.24552 0.2142,-0.38123c0,-0.12362 -0.1097,-0.31285 -0.22216,-0.3833c-0.07994,-0.05042 -0.14949,-0.06319 -0.27753,-0.05214c-0.14257,0.01209 -0.18963,0.03522 -0.28549,0.13951c-0.09516,0.10359 -0.11454,0.15194 -0.11454,0.28385c0,0.27901 0.17025,0.46099 0.43256,0.46237c0.07924,0.00035 0.18756,-0.02901 0.25296,-0.06906z"/>
  </g>
 </g>
</svg>
