<svg width="754" height="430" xmlns="http://www.w3.org/2000/svg">
 <g>
  <title>Layer 1</title>
  <g transform="rotate(90 376.509 214.61)">
   <g>
    <path fill="currentColor" d="m358.39522,547.14805c0.25,1.97 -0.41,2 -40.41,2.26l-40.66,0.26l-3.22,-2.7c-1.76,-1.49 -5.4,-5.34 -8.09,-8.57c-4.66,-5.6 -4.87,-6.12 -4.87,-11.97c0,-6.75 -1.06,-7.07 -1.94,-0.58l-0.56,4.17l-15.25,-19.35l-15.25,-19.34l0,-36.68l-6.33,0c-5.31,0 -6.67,-0.37 -8.5,-2.31c-2.17,-2.32 -2.17,-2.39 -2.17,-51.2l0,-48.88l2.65,-2.77c2.25,-2.35 2.46,-3.01 1.34,-4.35c-2.48,-2.99 0.36,-4.01 10.3,-3.7c9.82,0.3 13.24,1.6 14.52,5.51c0.39,1.21 0.48,25.01 0.2,52.89l-0.51,50.68l-2.91,3.04c-2.33,2.42 -2.61,3.15 -1.4,3.61c0.83,0.32 2.14,0.44 2.91,0.28c1.14,-0.25 1.43,2.36 1.57,14.2l0.17,14.5l6.47,0.29l6.48,0.3l0.63,4.23c0.35,2.33 1.73,6.02 3.08,8.21c2.87,4.68 3.19,3.18 0.77,-3.63c-1.63,-4.6 -1.63,-5.01 0,-7.78c1.52,-2.57 1.73,-6.06 1.73,-28.33l0,-25.4l-3.11,-4.94c-1.71,-2.72 -4.57,-6.75 -6.35,-8.95l-3.24,-4l-0.7,-34.41c-0.74,-35.64 -1,-37.68 -5.19,-41.16c-0.94,-0.79 -4.24,-1.65 -7.31,-1.93l-5.6,-0.5l-0.54,-43.45l-4.98,-7.78l-4.98,-7.77l0,-30.25l0,-30.25l14.84,0l7.58,-9.03l7.58,-9.04l0,-17.81c0,-19.7 -0.91,-36.12 -2.01,-36.12c-0.39,0 -1.04,11.59 -1.45,25.75l-0.73,25.75l-5.49,6.25l-5.49,6.25l-14.6,0l-0.38,-83.46c-0.2,-45.9 -0.2,-87.08 0,-91.5l0.36,-8.04l14.79,0l-0.01,14.25c-0.01,18.08 2.14,62.75 3.03,62.75c0.96,0 1.97,-30.48 1.98,-59.79l0,-25.3l5,-6.01l5,-6l0,-9.3c0,-11.85 -1.07,-24.6 -2.06,-24.6c-0.42,0 -0.92,7.09 -1.1,15.75l-0.34,15.75l-12,14.45l-6.69,0.03c-3.68,0.01 -6.93,-0.37 -7.22,-0.84c-0.29,-0.47 -0.59,-19.16 -0.66,-41.53l-0.13,-40.67l3.45,-4.22c2.99,-3.66 19.71,-26.71 28.06,-38.69c2.92,-4.17 4.69,-5.13 4.69,-2.53c0,0.82 0.47,1.5 1.04,1.5c0.57,0 0.94,-1.68 0.82,-3.75c-0.27,-4.74 0.35,-5.88 12.14,-22.25c6.12,-8.49 9.97,-14.83 10.38,-17.07c0.35,-1.97 1.88,-4.76 3.38,-6.2c0.84,-0.81 1.5,-1.5 2.23,-2.09c4.51,-3.65 11.96,-3.65 82.85,-3.64c3.22,0 6.57,0 10.06,0c57.6,0 85.88,0.34 87.78,1.06c3.83,1.45 7.93,5.52 9.36,9.31c2.28,5.99 3.98,9.47 4.8,9.8c0.95,0.38 15.67,20.54 19.04,26.08c1.26,2.06 1.8,3.75 1.2,3.75c-0.59,0 -1.08,1.12 -1.08,2.5c0,3.1 1.74,3.32 2.18,0.27c0.29,-1.99 0.67,-1.76 3.53,2.14c2.76,3.77 3.13,4.95 2.65,8.5c-0.45,3.26 -0.13,4.63 1.54,6.6c2.05,2.43 2.13,2.44 3.59,0.56c0.82,-1.06 1.63,-1.73 1.79,-1.5c0.17,0.24 3.19,4.48 6.7,9.43c3.51,4.95 8.56,11.63 11.2,14.84l4.82,5.83l0,40.86c0,23.06 -0.39,41.09 -0.9,41.41c-0.49,0.3 -4.31,0.26 -8.49,-0.09l-7.6,-0.64l-5,-6.49l-5.01,-6.48l0,-8.12c-0.01,-12.26 -1.21,-30.62 -2.01,-30.62c-0.39,0 -0.74,1.24 -0.78,2.75c-0.04,1.51 -0.37,10.63 -0.73,20.25l-0.65,17.5l9.97,12.15l0.7,34.42c0.38,18.94 0.99,38.26 1.36,42.93l0.68,8.5l0.7,-7c0.39,-3.85 1.02,-21.29 1.38,-38.75l0.67,-31.75l15.72,0l-0.51,182.5l-7.6,0.29l-7.6,0.29l-5.5,-6.44l-5.5,-6.45l-0.54,-25.65c-0.5,-24.01 -0.84,-27.79 -2.36,-26.27c-0.34,0.33 -0.83,12.67 -1.09,27.42l-0.49,26.81l7.39,9l7.39,9l8.24,0.29l8.24,0.29l-0.29,30.21l-0.29,30.21l-9,14l-0.62,22.5c-0.34,12.38 -0.68,22.67 -0.75,22.88c-0.07,0.21 -2.02,0.13 -4.34,-0.18c-2.92,-0.39 -5.04,-0.07 -6.94,1.05c-5.5,3.24 -5.75,4.86 -6.66,41.75l-0.83,34l-12.61,18.66l0.18,24.58c0.11,15.22 0.59,25.35 1.25,26.59c0.61,1.14 0.84,4.52 0.54,7.84c-0.63,6.94 0.6,6.85 2.28,-0.17l1.2,-5l5.32,0c0.36,0 0.71,0 1.05,0c2.98,0.01 4.76,0.02 5.84,-0.85c1.6,-1.31 1.6,-4.6 1.59,-12.82c0,-0.62 0,-1.26 0,-1.94c0,-13.58 0.11,-14.39 1.94,-14.39c3.15,0 3.46,-1.97 0.74,-4.83l-2.53,-2.67l-0.27,-51.78l-0.27,-51.79l2.71,-2.71c2.4,-2.4 3.61,-2.75 10.57,-3.06c4.47,-0.21 8.74,0.11 9.89,0.72c1.11,0.6 3.02,3.13 4.23,5.63c2.15,4.45 2.21,5.63 2.7,53.27l0.5,48.72l-2.56,2.75c-2.28,2.46 -3.25,2.75 -9.1,2.75l-6.55,0l0,36.19l-14.02,17.65c-22.41,28.23 -26.74,33.43 -31.12,37.42l-4.14,3.76l-55.42,-0.26l-55.43,-0.26l-1.68,-3c-0.93,-1.65 -1.83,-3.21 -1.99,-3.47c-0.64,-0.99 -2.18,2.56 -1.95,4.47zm9.25,-349.15c7.75,0.53 22.1,-0.34 31.85,-1.94c25.01,-4.09 55.48,-24.06 70.52,-46.22c13.95,-20.55 19.22,-39.71 19.19,-69.69c-0.04,-29.45 -2.98,-42.03 -12.17,-52c-8.63,-9.37 -37.43,-26.19 -54.66,-31.92l-7.99,-2.66l-0.45,-5.39c-0.54,-6.53 -4.42,-12.31 -8.87,-13.2l-2.92,-0.58l0,-34.47l0,-2.62c0,-26.59 0,-33.32 -3.12,-37.93c-1.16,-1.72 -2.75,-3.14 -4.93,-5.18c-4.2,-3.93 -5.45,-4.55 -9.16,-4.57c-2.36,0 -4.81,-0.34 -5.44,-0.75c-0.82,-0.52 -0.99,-5.07 -0.6,-15.98l0.54,-15.25l77.71,0l0,15.51l-8.75,-0.67c-10.47,-0.8 -42.8,-1.05 -42.08,-0.33c0.28,0.28 4.3,0.96 8.92,1.52c4.63,0.56 12.69,1.7 17.91,2.55c5.33,0.86 13.67,1.4 19,1.22l9.5,-0.3l0.28,-13.22c0.27,-13.06 0.25,-13.23 -2.01,-13.8c-2.78,-0.7 -168.4,-0.19 -169.09,0.52c-0.26,0.27 -0.64,6.46 -0.83,13.75l-0.35,13.25l9.5,0.02c5.23,0 18.05,-1.18 28.5,-2.62c20.31,-2.82 27.1,-4.99 12.5,-4.01c-4.67,0.32 -16.94,0.86 -27.25,1.2l-18.75,0.63l0,-15.22l79.5,0.01l0.2,15.37l0.2,15.38l-5.1,0.67c-6.08,0.81 -9.38,2.4 -12.94,6.23c-1.25,1.35 -2.24,2.41 -3.01,3.6c-2.85,4.38 -2.85,10.61 -2.85,40.15l0,35.43l-3.69,1.83c-5.02,2.5 -7.66,6.46 -8.29,12.43l-0.52,5.02l-7.27,2.44c-10.02,3.37 -28.99,13.03 -39.85,20.29c-12.04,8.06 -21.77,18.37 -23.81,25.23c-2.58,8.7 -3.84,25.85 -3.32,45.19c0.58,21.3 2.86,31.87 10.21,47.41c7.14,15.08 14.78,24.86 28.18,36.09c21.11,17.68 40.66,25.86 65.86,27.58zm30,-16.17c-14.28,1.35 -29.9,1.73 -34.5,0.84c-2.48,-0.48 -6.8,-0.91 -9.6,-0.95c-3.88,-0.05 -7.5,-1.19 -15,-4.69c-14.36,-6.7 -22.61,-12.41 -32.89,-22.74c-19.46,-19.56 -26.93,-37.09 -28.22,-66.14c-0.63,-14.34 2.01,-42.76 4.29,-46.26c2.32,-3.54 15.68,-13.74 25.86,-19.73c11.23,-6.61 28.59,-15.49 30.31,-15.5c0.89,-0.01 1.25,2.16 1.25,7.54c0,8.6 1.08,11.28 6.67,16.59c6.99,6.64 7.97,6.86 30.53,6.84c20.2,-0.03 20.32,-0.04 25.26,-2.75c2.73,-1.5 6.44,-4.68 8.25,-7.06c2.76,-3.63 3.29,-5.18 3.29,-9.62c0,-2.92 0.28,-6.72 0.63,-8.45c0.82,-4.08 0.95,-4.03 20.37,6.64c18.36,10.09 26,14.86 26,16.25c0,0.63 -5.45,1.01 -14.7,1.01c-10.29,0 -14.38,0.32 -13.65,1.05c1.64,1.64 23.27,1.64 27.22,0c3.24,-1.34 3.36,-1.29 7.65,3.04c6.35,6.42 7.88,14.58 7.93,42.41c0.04,22.74 -1,29.89 -5.93,41.05c-2.35,5.31 -2.56,5.5 -4.74,4.25c-1.62,-0.93 -6.3,-1.24 -16.28,-1.1c-15.24,0.21 -20.88,0.88 -19.97,2.35c0.34,0.54 8.47,0.95 19.03,0.95c10.14,0 18.44,0.24 18.44,0.53c0,1.87 -5.81,11.35 -10.77,17.6c-14.97,18.82 -39.53,34.43 -56.73,36.05zm12.86,208.81c1.93,0.61 14.45,0.81 32.4,0.51c26.37,-0.42 29.64,-0.66 33.05,-2.4c4.57,-2.34 11.89,-10.05 12.74,-13.44c0.91,-3.63 -0.01,-149.86 -0.96,-151.91c-0.44,-0.96 -1.13,-1.75 -1.53,-1.75c-0.77,0 -0.96,5.3 -1.94,54l-0.62,30.5l-83,0l-0.66,-42.33c-0.37,-23.28 -0.94,-42.6 -1.27,-42.93c-0.33,-0.34 -1.16,-0.05 -1.84,0.63c-1.81,1.81 -2.49,151.89 -0.7,156.19c1.58,3.83 10.24,11.64 14.33,12.93zm168.79,-378.23c-4.34,2.56 -5.55,2.76 -18.15,3.08c-7.42,0.18 -13.84,0 -14.25,-0.42c-0.41,-0.41 -0.75,-4.73 -0.75,-9.59c0,-8.78 0.01,-8.83 2.53,-8.83c1.39,0 2.79,0.67 3.11,1.49c0.31,0.83 1,1.23 1.53,0.9c1.54,-0.95 -2.24,-4.39 -4.82,-4.39c-2.26,0 -2.35,-0.3 -2.35,-7.48c0,-0.5 0,-0.97 0,-1.41c-0.02,-3.25 -0.02,-4.79 0.74,-5.67c0.8,-0.92 2.43,-1.11 5.76,-1.74c1.97,-0.38 0.86,-1.05 -5.25,-3.2c-0.86,-0.3 -1.25,-2.91 -1.25,-8.3l0,-7.85l2.81,0.41c1.78,0.26 3.3,-0.18 4.15,-1.22c1.69,-2.02 0.52,-3.28 -3.46,-3.71l-3,-0.33l0,-14l3.5,-1.13c5.22,-1.69 4.67,-4.36 -1.36,-6.51c-2.67,-0.96 -4.94,-1.88 -5.04,-2.05c-0.1,-0.17 -2.75,-3.55 -5.89,-7.5c-3.14,-3.96 -5.27,-7.46 -4.75,-7.78c1.51,-0.94 0.11,-3.3 -2.33,-3.91c-1.22,-0.3 -4.31,-3.46 -6.86,-7.01c-5.09,-7.08 -4.94,-7.61 2.25,-7.61c4.48,0 6.09,-1.71 3.44,-3.65c-2.11,-1.55 -7.24,-1.77 -10.68,-0.46c-2.17,0.83 -2.92,0.04 -10.06,-10.42l-7.72,-11.31l3.07,-3.07c5.56,-5.57 10.36,-6.25 41.64,-5.9c26.43,0.29 27.99,0.42 31.91,2.52c4.93,2.63 8.84,7.03 10.22,11.51c2.91,9.44 3.66,22.2 3.65,62.28c-0.02,56.71 -1.92,68.14 -12.34,74.26zm-374.07,-14.76l-0.58,17.5l-12,0.22c-12.65,0.23 -16.7,-0.59 -22.24,-4.54c-3.81,-2.71 -5.77,-6.84 -7.44,-15.68c-1.85,-9.8 -1.87,-102.7 -0.02,-113.5c1.55,-9.05 4.62,-14.12 10.45,-17.23c4.16,-2.22 4.94,-2.27 35.25,-2.27l31,0l4.41,2.5c7.28,4.13 7.26,4.34 -0.94,16.9l-7.32,11.22l-3.8,-0.65c-4.79,-0.8 -9.85,0.26 -9.85,2.08c0,0.9 1.72,1.61 5,2.04c2.75,0.37 5,0.83 5,1.03c0,0.2 -1.46,2.32 -3.25,4.71c-1.79,2.39 -4.19,5.64 -5.34,7.23c-2.05,2.83 -2.27,2.89 -12.37,3.07c-7.59,0.14 -10.68,0.58 -11.78,1.68c-1.32,1.32 -1.19,1.69 1.12,3.21c1.8,1.17 3.63,1.51 5.87,1.09c1.79,-0.35 5.23,-0.91 7.65,-1.26l4.39,-0.64l-5.39,6.74c-3.53,4.4 -6.94,7.49 -9.85,8.89c-2.45,1.19 -4.57,2.61 -4.71,3.16c-0.14,0.55 1.19,1.91 2.95,3.02c3.03,1.9 3.23,2.39 3.51,8.75l0.29,6.73l-2.92,0c-6.09,0 -6.03,3.92 0.08,5.38c2.73,0.65 2.75,0.72 2.75,9.08l0,8.41l-3.17,0.32c-1.75,0.17 -3.33,0.78 -3.52,1.36c-0.21,0.65 1.01,0.89 3.22,0.64l3.55,-0.42l-0.29,8.37c-0.27,7.81 -0.44,8.38 -2.54,8.68c-3.08,0.44 -2.85,2.18 0.29,2.18l2.54,0zm372.58,543.58c-5.07,2.36 -5.67,2.4 -33.16,2.37c-30.55,-0.04 -33.51,-0.47 -38.63,-5.64l-2.78,-2.81l4.21,-5.18l4.2,-5.18l9.22,0.18c8.12,0.16 9.04,0 7.74,-1.29c-1.62,-1.61 -8.61,-2.02 -12.21,-0.71c-3.52,1.28 -2.79,-0.86 2.64,-7.68c6.94,-8.72 8.99,-10.45 10.16,-8.6c0.98,1.55 1.27,0.78 1.01,-2.64c-0.09,-1.16 0.76,-3.68 1.9,-5.61c1.71,-2.9 2.17,-5.9 2.71,-17.64c0.43,-9.41 0.5,-13.07 2.14,-14c1.02,-0.58 2.66,-0.1 5.38,0.71c0.23,0.07 0.46,0.14 0.69,0.21c2.88,0.85 4.4,0.74 7.44,-0.54c4.87,-2.06 4.6,-4.57 -0.67,-6.05c-3.38,-0.94 -3.65,-1.23 -2.24,-2.4c0.88,-0.73 3.19,-3.96 5.15,-7.17c3.13,-5.16 3.4,-6.11 2.29,-8.13c-0.69,-1.25 -1.56,-5.19 -1.94,-8.75c-0.57,-5.33 -0.41,-6.67 0.91,-7.64c1.23,-0.9 1.34,-1.49 0.46,-2.55c-0.75,-0.91 -1.15,-6.65 -1.16,-16.61l-0.01,-15.23l10.19,0.02c7.73,0.02 11.18,0.47 14.24,1.86c4.96,2.25 9.09,6.99 10.38,11.92c2.09,7.99 3.07,28.29 3.08,63.76c0,55.97 -1.82,65.65 -13.34,71.02zm-337.89,0.87c-3.05,1.28 -8.52,1.54 -30.99,1.48c-30.37,-0.07 -33.78,-0.6 -39.44,-6.09c-7.27,-7.04 -8.82,-22.57 -8.04,-80.77c0.61,-46.22 1.23,-51.83 6.29,-57.22c5.05,-5.38 9.57,-6.8 21.66,-6.83l10.75,-0.02l0,5.54c0,3.51 -0.62,6.47 -1.69,8.12c-1.6,2.43 -1.6,2.66 0,3.82c2.04,1.5 2.33,9.52 0.45,12.53c-0.99,1.58 -0.99,2.4 0,3.98c1.97,3.16 1.55,10.8 -0.76,13.74c-2.06,2.61 -2.7,7.72 -1.1,8.71c0.91,0.56 7.1,11.07 7.1,12.04c0,0.29 -1.1,0.52 -2.44,0.52c-2.31,0 -4.31,1.58 -3.29,2.6c0.25,0.26 3.24,1.17 6.62,2.03c6.14,1.56 9.8,1.29 8.61,-0.62c-0.34,-0.56 0.31,-1.01 1.44,-1.01c1.99,0 2.06,0.53 2.07,14.75c0.01,13.8 0.17,15.02 2.46,19.03c1.35,2.35 2.19,4.94 1.88,5.76c-0.4,1.03 -0.1,1.3 0.97,0.89c1.08,-0.41 3.56,1.98 8.36,8.09c7.99,10.17 8.46,11.06 5.2,10.02c-4.55,-1.46 -9.67,-1.72 -11.77,-0.6c-3.48,1.86 -2.42,2.58 3.29,2.22c2.97,-0.18 6.28,0.13 7.35,0.71c1.4,0.74 2.28,0.7 3.15,-0.17c0.94,-0.94 2.18,-0.1 5.62,3.8c2.42,2.75 4.42,5.48 4.44,6.08c0.06,1.67 -4.1,5.16 -8.19,6.87zm39.73,-151.84c2.28,1 11.51,1.32 38.64,1.35l35.63,0.04l5.29,-2.76c3.96,-2.07 5.88,-3.88 7.62,-7.16c2.24,-4.25 2.32,-5.19 2.32,-28.79c0,-26.5 -0.13,-27.23 -5.8,-32.62c-4.32,-4.1 -11.94,-4.75 -50.79,-4.3c-34.5,0.41 -35.29,0.5 -40.26,5c-4.92,4.47 -5.15,5.89 -5.15,32.13c0,27.07 0.16,27.93 6.21,33.03c1.81,1.52 4.64,3.36 6.29,4.08zm-2,-97.98c2.35,1.04 11.11,1.28 40.5,1.1c41.97,-0.26 42.29,-0.31 47.81,-7.54l2.69,-3.53l0.3,-25.41l0.3,-25.41l-2.65,-4.51c-4.82,-8.23 -5.13,-8.28 -48.88,-8.31c-36.35,-0.02 -38.12,0.07 -42.22,2.05c-8.12,3.93 -8.35,4.91 -8.35,35.3l0,26.62l3.75,4.16c2.06,2.28 5.1,4.75 6.75,5.48zm301.04,74c-4.25,1.98 -6.64,2.35 -15.32,2.36c-8.37,0.01 -10.39,-0.28 -10.88,-1.54c-0.32,-0.85 -0.37,-5.24 -0.1,-9.75c0.44,-7.28 0.22,-8.76 -1.98,-13.2c-1.36,-2.75 -4.11,-6.72 -6.11,-8.81l-3.65,-3.81l2.96,1.11c3.07,1.16 7.08,0.63 9.31,-1.21c1.03,-0.86 0.95,-1.43 -0.4,-2.92c-1.91,-2.11 -11.06,-2.63 -14.44,-0.82c-1.86,0.99 -1.93,0.57 -1.93,-12.16c0,-12.03 0.22,-13.66 2.53,-18.53c1.39,-2.94 3.17,-5.35 3.96,-5.35c4.05,0 12.51,-11.39 12.51,-16.84c0,-1.21 -1.9,-4.27 -4.22,-6.79c-3.44,-3.73 -4.23,-5.3 -4.25,-8.47c-0.03,-3.84 0.02,-3.9 3.72,-3.9c3.1,0 3.75,-0.35 3.75,-2.03c0,-2.05 -0.47,-2.36 -5,-3.34c-2.33,-0.51 -2.5,-0.95 -2.5,-6.59c0,-5.43 0.21,-6.04 2.06,-6.04c1.13,0 2.88,-0.6 3.88,-1.33c2.51,-1.84 0.56,-5.42 -3.19,-5.85c-2.57,-0.3 -2.77,-0.67 -3.05,-5.57l-0.3,-5.25l14.59,0c12.55,0 15.13,0.28 18.46,1.97c4.69,2.4 7.72,6.08 8.99,10.91c4.74,18.05 5.09,103.08 0.5,120.7c-1.98,7.59 -4.06,10.33 -9.9,13.05zm-1,-174.51c-3.25,1.48 -6.6,1.84 -17.12,1.86c-7.2,0.01 -13.39,-0.28 -13.75,-0.65c-1.08,-1.07 -0.77,-17.15 0.35,-17.84c0.56,-0.35 0.71,-1.12 0.34,-1.71c-0.96,-1.55 -1.42,-13.09 -0.57,-14.3c0.39,-0.55 2.06,-1.46 3.71,-2.02c3.55,-1.19 3.13,-2.94 -0.73,-3.02c-1.5,-0.03 -3.01,-0.34 -3.35,-0.69c-0.35,-0.35 -0.32,-3.81 0.07,-7.69c0.58,-5.71 1.04,-7.06 2.42,-7.06c0.94,0 2.56,-0.63 3.61,-1.39c1.59,-1.16 1.69,-1.65 0.62,-2.94c-0.71,-0.85 -2.49,-1.69 -3.96,-1.86c-2.57,-0.3 -2.69,-0.58 -2.97,-6.89l-0.29,-6.58l4.04,-1.82c4.25,-1.92 5.03,-3.2 2.54,-4.16c-0.83,-0.31 -1.5,-1.7 -1.5,-3.08c0,-2.16 -0.33,-2.41 -2.5,-1.87c-2.44,0.61 -2.5,0.5 -2.5,-4.93l0,-5.57l3.75,0.3c3.37,0.26 3.75,0.05 3.75,-2.09c0,-1.7 -1.01,-2.92 -3.5,-4.26c-3.41,-1.83 -3.5,-2.04 -3.5,-7.91c0,-5.62 0.14,-6 2.09,-5.51c1.15,0.28 2.93,-0.1 3.96,-0.85c1.56,-1.14 1.66,-1.63 0.59,-2.92c-0.71,-0.85 -2.49,-1.69 -3.96,-1.86c-2.52,-0.29 -2.7,-0.66 -2.98,-6.06c-0.27,-5.13 -0.09,-5.75 1.64,-5.75c2.61,0 6.66,-3.39 5.77,-4.82c-0.39,-0.63 -2.15,-1.52 -3.91,-1.97c-3.03,-0.78 -3.22,-1.11 -3.5,-6.02l-0.3,-5.19l14.09,0c15.7,0 19.35,1.05 24.36,7c5.56,6.61 7.08,21.68 7.09,70.5c0,56.46 -1.88,66.16 -13.9,71.62zm-377.88,166.88l-0.16,9.5l-11,0.22c-12.11,0.25 -15.45,-0.78 -20.63,-6.38c-3.61,-3.9 -4.8,-8.25 -5.9,-21.49c-1.28,-15.54 -1.21,-80.73 0.11,-94.82c2.12,-22.61 5.88,-25.97 29.17,-26.01l13.75,-0.02l0,5.29c0,5.11 -0.11,5.33 -3.25,6.25c-4.49,1.33 -4.47,4.6 0.04,5.93c3.27,0.96 3.29,1.02 3,6.5c-0.27,5.17 -0.47,5.55 -2.97,5.84c-1.47,0.17 -3.25,1.01 -3.96,1.86c-1.07,1.29 -0.97,1.78 0.62,2.94c1.05,0.76 2.94,1.39 4.21,1.39c2.02,0 2.31,0.49 2.31,3.89c0,3.05 -0.54,4.23 -2.55,5.55c-4.18,2.74 -6.44,7.45 -6.45,13.43c0,4.89 0.34,5.7 3.85,9.21c2.75,2.76 5.03,4.04 8.04,4.52c3.59,0.57 4.5,1.24 6.16,4.5c1.94,3.8 2.63,8.93 1.2,8.86c-0.41,-0.01 -1.87,-0.67 -3.25,-1.46c-5.07,-2.9 -14,-1.25 -14,2.58c0,1.68 0.37,1.96 1.75,1.31c1.62,-0.76 7.81,-0.93 13.78,-0.38l2.54,0.24l-0.29,10.13c-0.23,8.43 -0.53,10.05 -1.78,9.69c-7.23,-2.06 -15.38,-0.55 -16.31,3.02c-0.72,2.74 3.27,3.49 8.84,1.66c0.29,-0.1 0.56,-0.19 0.81,-0.27c1.7,-0.57 2.66,-0.89 2.85,-0.63c0.24,0.32 -0.79,1.61 -3.17,4.55c-0.28,0.34 -0.57,0.71 -0.89,1.09c-4.61,5.72 -6.29,11.32 -6.47,21.51zm5.13,-174.75l-0.29,9.25l-13.5,0.23c-14.97,0.24 -17.5,-0.38 -22.76,-5.64c-3.87,-3.87 -4.86,-7.32 -6.2,-21.59c-1.35,-14.26 -1.34,-79.45 0,-96.1c1.23,-15.25 3.1,-20.14 9.26,-24.22c3.86,-2.55 4.74,-2.7 18.87,-3.02l14.83,-0.34l0,5.51c0,5.28 -0.12,5.54 -2.93,6.15c-5.98,1.32 -5.65,5.77 0.43,5.77c2.4,0 2.5,0.24 2.5,6.37c0,6.36 -0.01,6.38 -2.88,6.38c-3.5,0 -5.63,2.09 -3.9,3.82c0.65,0.65 2.44,1.18 3.98,1.18c2.71,0 2.8,0.17 2.8,5.22c0,4.83 -0.3,5.49 -3.96,8.75c-3.15,2.81 -4.09,4.45 -4.58,8.03c-0.51,3.77 -0.2,5.1 1.89,8.19c2.14,3.15 2.3,3.86 1.07,4.88c-1.82,1.5 -0.39,3.47 3.16,4.36c2.42,0.61 2.5,0.88 2.21,7.79c-0.29,7.15 -0.29,7.16 -3.54,8c-1.79,0.46 -3.25,1.47 -3.25,2.25c0,0.85 1.27,1.53 3.25,1.72l3.25,0.31l0,15.98l-2.99,0.52c-1.64,0.28 -3.12,1.21 -3.28,2.06c-0.24,1.22 0.45,1.46 3.23,1.13l3.54,-0.41l0,8.11c0,7.74 -0.1,8.11 -2.25,8.13c-1.24,0 -2.92,0.45 -3.75,0.98c-1.11,0.72 -0.53,0.97 2.29,0.98l3.79,0.02l-0.29,9.25zm267.89,200.69c-1.75,0.66 -13.62,1.05 -31.5,1.04c-27.83,-0.01 -28.8,-0.08 -32.59,-2.25c-2.14,-1.22 -4.84,-3.5 -6,-5.05c-2,-2.7 -2.1,-4.16 -2.38,-34.25l-0.29,-31.43l84.08,0l0,30.05c0,32.55 -0.04,32.82 -5.66,38.14c-1.56,1.47 -4.11,3.16 -5.66,3.75zm-116.58,-99.22c-3.21,1.59 -7.31,1.81 -38.1,2.02c-35.7,0.25 -37.43,0.08 -41.75,-3.97c-2.22,-2.09 -2.25,-2.46 -2.25,-27.77l0,-25.65l2.58,-2.43l2.58,-2.42l37.13,-0.29c26.72,-0.2 37.92,0.05 39.96,0.89c5.57,2.31 5.75,3.22 5.75,29.08c0,15.7 -0.39,24.58 -1.15,26.24c-0.63,1.38 -2.76,3.32 -4.75,4.3zm-0.11,97.79c-4.06,2.09 -70.81,2.14 -75.61,0.05c-6.22,-2.7 -6.38,-3.47 -6.38,-30.36l0,-24.35l2.92,-2.93l2.93,-2.92l37.62,0c39.51,0 42.27,0.29 43.91,4.54c0.34,0.9 0.62,12.51 0.62,25.82c0,26.46 -0.13,27.1 -6.01,30.15zm77.76,-403.2c2.72,0.71 50.61,0.77 54.13,0.07l3.12,-0.63l0,-68.75l-59,0l0,34.43c0,31.94 0.13,34.46 1.75,34.88zm-173.08,0.02c0.36,0.37 14.23,0.67 30.81,0.67c22.56,0 30.56,-0.31 31.8,-1.25c2.41,-1.81 2.74,-33.87 0.4,-38.41c-1.69,-3.26 -21.76,-22.94 -28.08,-27.51c-3.89,-2.82 -3.94,-2.83 -19.75,-2.83l-15.85,0l0,34.33c0,18.89 0.3,34.64 0.67,35zm154.56,133.18c15.39,4.31 33.67,-4.4 40.59,-19.36c3.76,-8.14 3.77,-19.33 0.02,-27.33c-3.73,-7.96 -9.65,-14 -17.09,-17.43c-5.43,-2.51 -7.44,-2.89 -15.27,-2.89c-8.18,0 -9.65,0.31 -15.7,3.29c-21.48,10.57 -25.88,39.15 -8.43,54.83c5.88,5.29 8.72,6.88 15.88,8.89zm-98.46,476.94c-6.48,2.71 -13.12,1.67 -19.26,-3.01c-4.66,-3.56 -6.51,-7.21 -6.51,-12.89l0,-4.55l-4.35,0c-5.43,0 -10.25,-3.09 -12.93,-8.3c-1.08,-2.08 -1.77,-3.98 -1.54,-4.22c0.24,-0.23 2.07,0.03 4.07,0.58c2.36,0.65 38.8,0.91 103.57,0.72c88.48,-0.25 99.86,-0.11 99.38,1.22c-2.23,6.1 -7.92,10 -14.57,10l-4.63,0l0,4.85c0,5.64 -2.68,10.34 -7.89,13.85c-11.66,7.86 -28.11,-0.25 -28.11,-13.85l0,-4.85l-96,0l0,4.55c0,7.34 -3.87,12.83 -11.23,15.9zm169.23,-674.45l0,59l-49,0l0,-59l49,0zm-166,45.57l0,13.43l-55,0l0,-59l11.75,0c9.85,0.01 12.24,0.32 14.75,1.92c5.12,3.25 26.32,24.42 27.44,27.4c0.58,1.54 1.06,8.86 1.06,16.25zm13,200.11c3.56,1.86 15.39,1.69 19.19,-0.28c4.67,-2.41 42.55,-2.27 46.28,0.17c3.64,2.39 16.54,1.2 24.32,-2.23c4.56,-2.02 6.06,-2.65 6.11,-3.38c0.02,-0.35 -0.29,-0.73 -0.76,-1.3c-0.04,-0.04 -0.08,-0.09 -0.12,-0.14c-1.9,-2.28 -4.58,-1.85 -9.18,1.48c-2.86,2.08 -5.31,3 -7.92,3c-4.29,0 -9.01,-1.54 -10.13,-3.31c-0.42,-0.66 -0.77,-6.49 -0.77,-12.98c-0.02,-9.28 0.33,-12.31 1.63,-14.3c1.15,-1.75 1.33,-2.83 0.6,-3.56c-1.42,-1.42 -5.02,-0.15 -6.29,2.22c-0.96,1.8 -2.27,1.93 -19.59,1.93c-17.65,0 -18.72,-0.11 -21.72,-2.25c-2.52,-1.8 -4.81,-2.32 -11.42,-2.6c-10.32,-0.44 -12.17,0.02 -16.22,4.09c-4.29,4.31 -6.01,8.57 -6.01,14.91c0,8.77 3.42,14.05 12,18.53zm64.89,-133.62c-3.37,1.72 -5.93,1.94 -22.1,1.91c-19.43,-0.03 -20.11,-0.17 -25.54,-5.3l-3.25,-3.06l0,-32.43l6.15,-5.18l46.67,0l2.59,3.08c2.54,3.02 2.59,3.36 2.59,18.53c0,17.46 -0.51,19.08 -7.11,22.45zm-5.06,-54.93c-0.33,2.36 -0.38,2.37 -15.89,2.64c-8.56,0.16 -15.87,-0.03 -16.25,-0.41c-0.38,-0.38 -0.69,-15.07 -0.69,-32.65l0,-31.96l3.25,0.84c4.16,1.08 19.11,1.15 24,0.11l3.75,-0.79l0,28.84c0,19.4 0.36,29.21 1.08,29.93c0.6,0.6 0.94,2.15 0.75,3.45zm42.1,128.4c-12.93,6.56 -26.65,1.83 -33.5,-11.53c-2.43,-4.73 -2.43,-15.27 0,-20c9.39,-18.27 35.26,-18.6 44.09,-0.55c5.88,12.02 1.24,26.09 -10.59,32.08zm-83.88,54.93c-3.26,2.94 -13.5,3.31 -17.76,0.63c-4.06,-2.55 -7.29,-8.8 -7.29,-14.12c0,-4.65 1.12,-7.26 4.81,-11.22c2.4,-2.57 3.1,-2.75 10.8,-2.75c7.33,0 8.56,0.28 11.21,2.5c2.94,2.48 3.15,2.5 22.07,2.5l19.11,0l0,21.21l-20.4,-0.35c-19.11,-0.33 -20.53,-0.23 -22.55,1.6zm-62.15,370.29c3.25,2.15 4.3,2.25 24.01,2.25c23.91,0 25.91,-0.54 29.99,-8.12c2.37,-4.4 2.37,-4.5 0.6,-8.24c-3.09,-6.5 -3.46,-6.59 -30.38,-6.93c-26.96,-0.34 -28.5,-0.03 -31.06,6.15c-1.15,2.76 -1.03,3.63 1.08,7.87c1.3,2.62 3.89,5.78 5.76,7.02zm126.34,0.26c2.97,1.8 5.07,1.98 23.28,1.99c17.57,0 20.43,-0.23 23.46,-1.85c4.56,-2.44 7.05,-5.93 7.7,-10.79c0.44,-3.29 0.07,-4.5 -2.16,-7.16l-2.7,-3.2l-50.22,0l-3.3,3.2c-2.32,2.24 -3.3,4.1 -3.3,6.25c0.01,4.01 3.18,9.08 7.24,11.56zm92.76,-57.45c0,7.87 -0.34,14.46 -0.75,14.64c-0.41,0.17 -2.69,0.17 -5.07,0l-4.31,-0.32l0.31,-23.36c0.32,-23.15 0.34,-23.39 2.74,-25.94c1.34,-1.42 2.8,-2.58 3.25,-2.58c0.46,0 0.83,3.94 0.84,8.75c0,5.81 0.5,9.71 1.5,11.61c1.12,2.16 1.49,6.43 1.49,17.2zm-255.23,-8.83c-0.17,14.75 -0.65,23.67 -1.27,23.77c-0.55,0.09 -2.44,-0.01 -4.2,-0.23l-3.2,-0.39l-0.3,-14.02c-0.17,-8.14 0.12,-14.72 0.7,-15.69c0.55,-0.92 1.23,-6.5 1.5,-12.41l0.5,-10.75l6.54,6.12l-0.27,23.6zm207.16,57.37l-2.07,2.9l-18.75,0c-18.32,0 -18.81,-0.05 -20.94,-2.31c-2.57,-2.75 -2.75,-4.25 -0.59,-5.08c2.99,-1.15 44.42,-0.69 44.42,0.49c0,0.6 -0.93,2.4 -2.07,4zm-125.5,0.97c-1.6,1.78 -3.26,1.93 -21.01,1.93l-19.28,0l-2.53,-3.24c-1.39,-1.78 -2.18,-3.59 -1.75,-4.02c0.43,-0.43 10.87,-0.66 23.2,-0.51c20.78,0.25 22.44,0.4 22.76,2.09c0.2,1.01 -0.43,2.7 -1.39,3.75zm53,-613.05c-2.48,0.95 -17.7,1.14 -22.11,0.28c-1.19,-0.23 -2.71,-1.06 -3.36,-1.85c-0.95,-1.15 -0.5,-2.11 2.33,-4.94c3.43,-3.43 3.7,-3.51 11.5,-3.51c7.45,0 8.21,0.2 11.1,2.9c3.78,3.53 3.96,5.83 0.54,7.12zm12.57,504.98c7.14,2.74 13.89,3.77 15.33,2.34c0.84,-0.84 -4.27,-3.12 -16.33,-7.29c-9.04,-3.13 -10.02,-3.26 -20.5,-2.8c-6.52,0.29 -12.36,1.09 -14.35,1.97l-3.35,1.48l4.74,0.65c2.61,0.36 9.74,0.68 15.85,0.71c9.76,0.05 12.02,0.41 18.61,2.94zm38.79,18.05c4.24,0.36 14.81,0.72 23.49,0.8c12.67,0.12 16.52,-0.17 19.5,-1.48l3.72,-1.64l-4,-0.96c-4.09,-0.98 -50.22,-0.38 -51.27,0.67c-1.25,1.24 1.22,2 8.56,2.61zm-136.19,150.7c1.84,1.65 3.75,2.25 7.14,2.25c6.11,0 9.26,-2.78 9.26,-8.17l0,-3.83l-20.22,0l0.65,3.75c0.37,2.11 1.76,4.73 3.17,6zm-6.27,-497.59c9.96,0.92 52.62,0.18 55.67,-0.97c3.52,-1.33 -12.3,-2.46 -36,-2.58c-25.32,-0.13 -36.88,1.96 -19.67,3.55zm138.26,496.76c2.24,2.67 3.24,3.08 7.5,3.08c6.3,0 8.91,-2.34 8.91,-8l0,-4l-19,0l0,2.92c0,1.69 1.1,4.23 2.59,6zm-190.05,-269.06c4.1,4.88 6.31,4 2.39,-0.95c-5,-6.31 -8.02,-15.8 -8.67,-27.16c-0.3,-5.36 -0.94,-9.75 -1.41,-9.75c-0.47,0 -0.85,4.89 -0.85,10.86c0,9.89 0.26,11.45 2.95,17.36c1.62,3.57 4.13,7.91 5.59,9.64zm296.02,0.56c2.22,2.22 9.62,2.06 12.49,-0.26l2.27,-1.84l-2.16,-2.16c-1.61,-1.61 -3.36,-2.16 -6.91,-2.15c-7.22,0.02 -9.41,0.83 -8.23,3.02c0.53,1 1.68,2.52 2.54,3.39zm30.88,24.11c2.16,1.64 5.56,1.97 5.56,0.55c0,-0.5 0.25,-1.57 0.56,-2.37c0.84,-2.21 -5.87,-5.72 -10.87,-5.68c-2.3,0.02 -5.04,0.68 -6.09,1.47c-2.86,2.17 -0.41,4.49 4.77,4.53c2.27,0.02 5,0.69 6.07,1.5zm-62.41,-26.61c0.04,4.53 0.87,3.21 4.95,-7.86c2.43,-6.6 3.01,-9.69 2.95,-15.88c-0.08,-9.23 -1.23,-13.42 -2.26,-8.26c-0.37,1.83 -0.67,5.76 -0.67,8.72c0,3.18 -1.03,8.34 -2.5,12.55c-1.38,3.94 -2.49,8.77 -2.47,10.73zm-335.52,-187.9c0.89,1.44 1.92,1.22 4.76,-1.02c1.86,-1.46 4.06,-2 8.14,-2c4.24,0 5.59,-0.35 5.59,-1.46c0,-1.96 -3.14,-3.54 -7.03,-3.54c-6.01,0 -13.27,5.09 -11.46,8.02zm398.24,389.89c3.44,1.8 3.85,1.83 5,0.33c1.84,-2.39 1.61,-2.92 -2.48,-5.7c-5.15,-3.5 -14.75,-3.27 -14.06,0.33c0.24,1.22 1.24,1.54 4.05,1.3c2.16,-0.19 3.74,0.12 3.74,0.73c0,0.58 1.69,1.93 3.75,3.01zm-29.25,-591.82c6.52,1.08 8.02,0.99 10.06,-0.59c1.87,-1.45 1.88,-1.55 0.11,-2.92c-2.52,-1.95 -10.64,-2.92 -13.94,-1.67c-4.78,1.82 -3.17,4.03 3.77,5.18zm30.5,529.87c3.79,2.04 5.56,1.38 4.58,-1.71c-1.04,-3.28 -6.62,-5.62 -11.98,-5.01c-5.35,0.6 -6.09,1.05 -5.25,3.22c0.4,1.04 1.96,1.55 4.87,1.58c2.35,0.02 5.86,0.89 7.78,1.92zm-399,-172.47c0,3.02 0.6,3.09 4.5,0.51c1.92,-1.27 4.69,-1.99 7.69,-1.99c5.22,-0.01 7.08,-1.61 4.27,-3.66c-4.83,-3.54 -16.46,0.09 -16.46,5.14zm399,-356.54c5.84,3.1 7.09,-0.01 1.8,-4.47c-2.81,-2.36 -3.86,-2.64 -8.5,-2.25c-5.9,0.48 -6.82,0.98 -5.95,3.23c0.4,1.04 1.96,1.55 4.87,1.58c2.35,0.02 5.85,0.88 7.78,1.91zm-398.82,528.83c-0.39,2.74 0.77,2.79 5.56,0.22c2.05,-1.1 5.4,-2 7.44,-2c7.11,0 6,-3.9 -1.34,-4.7c-3.43,-0.38 -5.07,0.02 -7.84,1.9c-1.92,1.3 -3.64,3.37 -3.82,4.58zm398.98,-328.83c5.64,3.43 6.91,-0.27 1.5,-4.4c-5.17,-3.94 -15.93,-3.3 -14.34,0.85c0.44,1.14 1.91,1.6 5.12,1.6c2.71,0 5.79,0.78 7.72,1.95zm-0.43,369.05c3.4,2.68 5.49,2.59 5.09,-0.22c-0.74,-5.15 -13.56,-9.21 -16.78,-5.32c-1.91,2.3 -0.3,3.54 4.61,3.54c3.02,0 5.38,0.67 7.08,2zm-396.42,22.06l-2.81,0.92l3,-0.38c3.35,-0.42 14.68,-3.45 15.33,-4.1c1.21,-1.21 -1.17,-3.47 -4.27,-4.05c-4.58,-0.86 -7.79,-0.02 -11.26,2.97c-3.47,2.98 -2.54,4.27 1.56,2.15c1.67,-0.86 4.98,-1.49 7.34,-1.4l4.3,0.17l-3.99,0.4c-2.19,0.23 -4.52,0.86 -5.18,1.4c-0.66,0.55 -2.47,1.41 -4.02,1.92zm-2.13,-591.28c-0.39,2.72 -0.1,2.73 4.82,0.22c2.16,-1.1 5.75,-2 7.99,-2c2.75,0 4.27,-0.5 4.66,-1.54c0.83,-2.14 0.31,-2.44 -5.26,-3.08c-4.07,-0.47 -5.48,-0.17 -8.39,1.81c-1.92,1.31 -3.64,3.38 -3.82,4.59zm397.82,509.72c5.08,2.9 8.14,0.78 4.34,-3.01c-4.53,-4.54 -15.34,-4.81 -15.34,-0.38c0,1.55 0.76,1.9 4.25,1.93c2.34,0.01 5.37,0.67 6.75,1.46zm-398.6,-329.66c0.97,1.57 2.82,1.46 5.16,-0.3c1.07,-0.8 4.53,-1.75 7.69,-2.12c3.61,-0.43 5.75,-1.15 5.75,-1.94c0,-1.76 -2.34,-2.48 -8.07,-2.48c-3.97,0 -5.5,0.54 -8.07,2.84c-1.85,1.65 -2.88,3.32 -2.46,4zm1.27,-37.51c0.2,0.21 0.35,0.37 0.52,0.46c0.57,0.32 1.47,0.05 5.63,-1.23l0.49,-0.15c7.16,-2.19 9.69,-3.52 9.69,-5.08c0,-0.96 -1.65,-1.33 -5.86,-1.33c-5.01,0 -6.25,0.39 -8.5,2.64c-2.75,2.74 -3.09,3.57 -1.97,4.69zm27.34,-163.21c5.41,0.96 6.23,0.94 10.3,-0.19c2.74,-0.76 3.72,-1.53 3.49,-2.74c-0.25,-1.34 -1.67,-1.75 -6.78,-1.99c-8.21,-0.39 -11.25,0.34 -10.83,2.59c0.21,1.07 1.65,1.94 3.82,2.33zm-28.01,411.95c0,2.39 0.05,2.39 4.95,-0.16c2.73,-1.42 5.36,-1.98 8.25,-1.75c3.37,0.27 4.33,-0.01 4.59,-1.35c0.25,-1.26 -0.76,-2 -3.86,-2.83c-2.31,-0.62 -5.19,-0.88 -6.4,-0.58c-3.39,0.85 -7.53,4.52 -7.53,6.67zm0,158c0,2.39 0.86,2.42 4.03,0.18c1.36,-0.96 4.94,-1.97 7.96,-2.25c4.06,-0.37 5.57,-0.93 5.81,-2.16c0.39,-2.05 -4.46,-3.31 -9.28,-2.41c-4.22,0.79 -8.52,4.14 -8.52,6.64zm0.18,-390.23c-0.35,2.39 1.63,2.87 4.82,1.16c1.02,-0.55 4.26,-1.34 7.18,-1.76c6.94,-1 7.28,-3.36 0.67,-4.64c-3.87,-0.75 -5.3,-0.56 -8.5,1.09c-2.35,1.22 -3.97,2.84 -4.17,4.15zm368.23,-179.78c7.61,1.82 12.68,0.22 11.23,-3.55c-0.82,-2.15 -16.64,-2.22 -16.64,-0.07c0,1.75 1.34,2.64 5.41,3.62zm-272.37,523.97c1.37,0.84 7.53,-1.8 11.58,-4.96l2.13,-1.66l-2.33,-2.71c-1.28,-1.48 -2.79,-2.7 -3.35,-2.7c-1.6,0 -4.35,4.81 -3.71,6.49c0.42,1.1 -0.11,1.51 -1.92,1.51c-2.81,0 -4.45,2.76 -2.4,4.03zm301.96,-343.53c6.4,3.66 8.14,-0.12 1.99,-4.31c-2.91,-1.98 -4.31,-2.28 -8.38,-1.81c-5.57,0.64 -6.09,0.94 -5.26,3.08c0.4,1.05 1.96,1.55 4.87,1.58c2.35,0.01 5.4,0.67 6.78,1.46zm-397,331.65c0,1.99 3.4,2.62 4.5,0.85c0.34,-0.55 2.07,-1 3.84,-1c3.72,0 7.66,-2.41 7.66,-4.68c0,-1.29 -1.04,-1.49 -5.96,-1.13c-6.37,0.46 -10.04,2.64 -10.04,5.96zm-1,-511.46c0,1.18 0.65,1.39 2.75,0.88c1.51,-0.37 5.18,-1.12 8.16,-1.66c6.31,-1.15 7.09,-1.53 7.09,-3.47c0,-2.46 -12.07,-1.96 -15.37,0.63c-1.44,1.14 -2.63,2.77 -2.63,3.62zm0.39,41.88c0.58,1.51 0.87,1.49 3.37,-0.19c1.51,-1.01 5.21,-2.07 8.23,-2.36c4.1,-0.39 5.57,-0.95 5.81,-2.21c0.24,-1.25 -0.63,-1.87 -3.33,-2.38c-6.82,-1.28 -15.6,3.18 -14.08,7.14zm397.61,296.93c3.45,1.97 5,1.84 5,-0.43c0,-3.53 -4.65,-6.07 -11.13,-6.07c-3.23,0 -5.87,0.42 -5.87,0.93c0,1.95 3.27,4.07 6.32,4.11c1.75,0.01 4.3,0.67 5.68,1.46zm-397,-0.33c0,2.18 1.59,2.28 5,0.33c1.38,-0.79 3.81,-1.45 5.42,-1.46c2.81,-0.04 6.58,-2.44 6.58,-4.19c0,-0.47 -2.78,-0.85 -6.19,-0.85c-4.97,0 -6.63,0.43 -8.5,2.17c-1.27,1.2 -2.31,3 -2.31,4zm397.5,-338.42c4.56,2.71 7.48,0.36 3.75,-3.03c-2.98,-2.69 -7.51,-3.9 -12.06,-3.22c-3.31,0.49 -4.24,1.03 -3.99,2.32c0.23,1.21 1.7,1.83 5.31,2.21c2.74,0.29 5.89,1.06 6.99,1.72zm0.5,357.2c5.37,2.85 7.06,0.34 2.6,-3.86c-2.85,-2.68 -8.97,-3.7 -12.96,-2.16c-2.38,0.92 -2.65,1.35 -1.63,2.59c0.68,0.81 2.87,1.5 4.86,1.52c2,0.02 5.2,0.88 7.13,1.91zm-398.44,173.14c0.76,1.24 1.61,1.15 5.79,-0.59c1.97,-0.83 5.15,-1.5 7.06,-1.5c3.7,0 5.48,-1.51 3.79,-3.2c-1.5,-1.5 -10.71,-1.4 -13.61,0.15c-2.64,1.42 -3.96,3.64 -3.03,5.14zm397.94,38.84c3.53,2.25 5,2.11 5,-0.47c0,-4.28 -11.09,-8.27 -15.4,-5.55c-2.58,1.64 -0.42,4.09 3.62,4.1c2.08,0 5.13,0.86 6.78,1.92zm-272.5,-432.21c4.73,1.49 15.72,1.54 22.2,0.11c4.62,-1.02 4.98,-1.26 2.8,-1.9c-3.19,-0.93 -15.86,-0.94 -23,-0.02l-5.5,0.71l3.5,1.1zm272.12,-76.38c4.51,2.69 5.88,2.64 5.88,-0.21c0,-3 -7.45,-6.45 -12.65,-5.87c-5.12,0.58 -5.83,1.04 -4.99,3.24c0.47,1.22 1.42,1.44 4.06,0.95c2.67,-0.5 4.39,-0.08 7.7,1.89zm-0.98,451.12c4.59,1.99 5.86,1.89 5.86,-0.47c0,-2.96 -5.59,-5.98 -11.08,-5.99c-2.52,0 -4.89,0.3 -5.26,0.67c-1.11,1.12 2.5,4.33 4.88,4.33c1.23,0 3.74,0.66 5.6,1.46zm1.06,-349.48c1.86,1.12 3.62,1.6 4.12,1.1c1.49,-1.49 -0.31,-5.02 -3.34,-6.59c-2.91,-1.51 -11.08,-2.05 -12.32,-0.82c-1.25,1.25 2.64,4.33 5.47,4.33c1.55,0 4.28,0.89 6.07,1.98zm-369.45,-181.68c6.07,0.52 10.18,0 11.99,-1.5c3.59,-2.98 -7.81,-5.24 -14.17,-2.82c-4.32,1.63 -3.19,3.86 2.18,4.32zm-28.66,609.31c1.02,1.22 1.67,1.14 4.6,-0.59c2.03,-1.2 5.21,-2.02 7.81,-2.02c2.41,0 4.68,-0.49 5.05,-1.09c1.19,-1.92 -1.37,-3.26 -6.35,-3.34c-3.86,-0.05 -5.62,0.51 -8.58,2.77c-3.02,2.3 -3.49,3.11 -2.53,4.27zm399.41,-178.74c5.87,3.64 6.35,-0.62 0.5,-4.49c-3.25,-2.15 -4.76,-2.54 -8.12,-2.09c-7.77,1.04 -7.82,4.71 -0.07,4.72c2.82,0 5.88,0.74 7.69,1.86zm-0.27,-33.87c4.05,2.47 4.77,2.49 4.77,0.15c0,-4.04 -6.93,-7.5 -13.07,-6.52c-2.95,0.47 -3.93,1.09 -3.93,2.5c0,1.55 0.77,1.87 4.48,1.87c2.71,0 5.76,0.79 7.75,2zm-1.76,-395.35c2.26,1.54 5.53,1.8 5.53,0.43c0,-4.25 -4.78,-7.08 -11.95,-7.08c-7.06,0 -6.33,3.22 1.05,4.65c1.87,0.36 4.29,1.26 5.37,2zm-1.25,100.84c5.22,2.88 5.41,2.91 6.17,0.93c1.15,-2.99 0.6,-4.05 -2.92,-5.73c-5.61,-2.68 -13.47,-1.89 -13.47,1.34c0,0.35 2.59,0.52 5.75,0.38c3.16,-0.14 4.5,-0.03 2.97,0.24c-2.77,0.49 -2.77,0.49 1.5,2.84zm-395.52,-100.12c1.06,1.06 3.7,0.65 5.74,-0.9c1.07,-0.81 3.13,-1.47 4.58,-1.47c1.51,0 3.63,-1.06 4.98,-2.5l2.35,-2.5l-5.23,0c-2.87,0 -6.53,0.68 -8.14,1.51c-3.04,1.57 -5.37,4.77 -4.28,5.86zm397.49,257c3.7,2.91 5.17,2.91 5.6,0.01c0.46,-3.07 -6.85,-6.77 -12.01,-6.08c-4.41,0.59 -6.38,1.93 -5.33,3.62c0.41,0.66 2.17,0.84 4.55,0.46c3.23,-0.51 4.44,-0.18 7.19,1.99zm-397.57,118.92c0.35,0.34 2.35,-0.26 4.46,-1.33c2.11,-1.08 5.61,-1.96 7.77,-1.96c3.66,0 6,-1.81 4.41,-3.4c-1.33,-1.34 -11.55,-0.54 -14.36,1.12c-2.7,1.59 -3.73,4.12 -2.28,5.57zm-0.62,-118.22c0,2.47 1.53,2.45 4.73,-0.07c1.82,-1.44 4.05,-2 7.9,-2c3.92,0 5.37,-0.38 5.37,-1.39c0,-1.88 -2.23,-2.61 -7.95,-2.61c-5.37,0 -10.05,2.83 -10.05,6.07zm0,-179.08c0,2.53 0.66,2.51 4.95,-0.1c2.61,-1.59 4.52,-1.98 7.83,-1.61c3.28,0.37 4.51,0.12 4.94,-1c0.81,-2.11 -1.52,-3.25 -6.72,-3.26c-5.4,-0.01 -11,3.02 -11,5.97zm58.56,-80.52c1.07,0.81 3.14,1.48 4.6,1.5c2.18,0.02 2.56,-0.33 2.12,-2c-0.87,-3.33 -4.28,-4.97 -10.34,-4.97c-3.08,0 -5.9,0.3 -6.26,0.66c-1.3,1.29 1.62,3.34 4.75,3.34c1.75,0 4.06,0.66 5.13,1.47zm339.77,218.59c4.05,2.47 5.67,2.45 5.67,-0.07c0,-3.38 -5.61,-6.08 -12,-5.76c-4.1,0.2 -5.5,0.65 -5.5,1.77c0,1.05 1.29,1.59 4.33,1.81c2.38,0.17 5.75,1.18 7.5,2.25zm-31.33,-219.37c8.09,2.76 16.09,0.38 10.66,-3.18c-3.28,-2.15 -14.16,-1.77 -14.16,0.49c0,0.82 1.58,2.04 3.5,2.69zm-28,1c0,1.1 0.65,1.38 2.25,0.99c1.24,-0.31 4.5,-1.09 7.25,-1.74c9.25,-2.17 10.17,-4.94 1.63,-4.94c-6.21,0 -11.13,2.51 -11.13,5.69zm59.97,59.57c3.25,2.29 5.03,2.2 5.03,-0.24c0,-3.02 -7,-6.2 -12.81,-5.82c-3.37,0.21 -4.69,0.72 -4.69,1.8c0,1.07 1.45,1.65 5,2.01c2.75,0.28 6.11,1.29 7.47,2.25zm-34.83,567.67c3.18,1.27 10.12,1.3 13.4,0.05c2.22,-0.84 2.47,-1.27 1.45,-2.5c-1.73,-2.08 -14.25,-2.07 -15.98,0.01c-1.02,1.23 -0.83,1.65 1.13,2.44zm-181.82,31.66c3.39,2.93 4.12,2.97 6.68,0.41c2.14,-2.14 2.35,-2.94 1.39,-5.42c-0.9,-2.36 -6.67,-2.03 -8.98,0.51c-1.87,2.07 -1.86,2.13 0.91,4.5zm39.74,-63.53c2.46,2.46 3.66,2.2 6.31,-1.35c1.93,-2.58 1.93,-2.72 0.15,-4.69c-3.14,-3.47 -8.52,-2.09 -8.52,2.18c0,0.99 0.93,2.73 2.06,3.86zm-188.56,11.94c-1.93,0.83 -1.92,0.86 0.18,0.93c2.78,0.09 7.32,-1.61 7.32,-2.74c0,-1.52 -4.95,-3.19 -9.47,-3.19c-5.32,0 -7.53,0.77 -7.53,2.61c0,1.02 1.54,1.41 5.75,1.46c4.14,0.05 5.19,0.31 3.75,0.93zm331.22,-1.59c1.6,0.87 5.43,1.53 9.03,1.55c5.6,0.04 6.25,-0.17 6.25,-1.96c0,-1.1 -0.56,-2.03 -1.25,-2.07c-0.69,-0.03 -4.49,-0.26 -8.44,-0.49c-7.87,-0.47 -9.92,0.62 -5.59,2.97zm35.78,-188.71c3.51,2.06 4.4,-0.5 1.14,-3.31c-2.48,-2.16 -3.66,-2.44 -9,-2.18c-4.66,0.22 -6.14,0.65 -6.14,1.79c0,1.11 1.56,1.63 6,2.02c3.3,0.28 6.9,1.04 8,1.68zm-399.02,-2.74c0.57,0.92 2.4,1.09 6.72,0.6c7.27,-0.83 8.8,-1.38 8.8,-3.17c0,-1.04 -1.58,-1.39 -6.31,-1.39c-6.65,0 -10.61,1.7 -9.21,3.96zm31.42,-10.67c2.42,4.76 0.94,5.7 -2.91,1.85c-3.54,-3.54 -3.93,-7.79 -1.02,-11.28l1.96,-2.36l0.04,4.04c0.02,2.22 0.88,5.71 1.93,7.75zm82.35,-389.51c4.8,2.32 9.79,0.36 8.38,-3.29c-0.97,-2.54 -3.69,-2.91 -7.26,-0.99c-3.97,2.14 -4.15,2.82 -1.12,4.28zm175.04,470.54c0.36,0.92 1.05,1.68 1.55,1.68c1.46,0 9.16,-8.81 9.16,-10.48c0,-2.44 -1.49,-1.8 -6.58,2.8c-3.38,3.06 -4.58,4.81 -4.13,6zm-290.29,-383.93c0,1.14 0.84,1.02 4.18,-0.59c3.05,-1.48 5.48,-1.9 9,-1.56c2.65,0.26 4.82,0.07 4.82,-0.41c0,-1.27 -4.6,-2.83 -8.32,-2.83c-3.71,0.01 -9.68,3.33 -9.68,5.39zm24,524.84c0,1.07 7.92,1.45 16.95,0.8c0.25,-0.02 -0.06,-0.54 -0.69,-1.17c-1.68,-1.68 -10.98,-2.92 -13.83,-1.83c-1.33,0.5 -2.43,1.49 -2.43,2.2zm-24,-173.06c0,1.06 3.93,0.14 5.45,-1.28c1.34,-1.26 8.93,-1.11 10.24,0.2c0.78,0.78 1.29,0.76 1.81,-0.09c1.13,-1.83 -0.93,-3.18 -5.68,-3.72c-3.32,-0.37 -5.24,0.04 -8.09,1.71c-2.05,1.22 -3.73,2.64 -3.73,3.18zm0,-174.18c0,1.4 2.03,1.2 5,-0.49c1.38,-0.79 4.69,-1.45 7.37,-1.46c4.22,-0.04 4.71,-0.24 3.63,-1.54c-1.79,-2.16 -8.86,-1.89 -12.75,0.49c-1.79,1.09 -3.25,2.44 -3.25,3zm283.75,-263.56c3.56,1.93 3.62,1.92 5.73,-0.41c1.47,-1.62 1.57,-2.26 0.54,-3.5c-1.51,-1.82 -6.14,-2 -7.82,-0.32c-1.78,1.78 -1.49,2.58 1.55,4.23zm-84.3,412.51c2.32,2.57 3.04,2.57 5.57,0.04c2.74,-2.74 1.08,-6.25 -2.74,-5.79c-3.81,0.46 -5.16,3.18 -2.83,5.75zm-96.88,176.93c2.87,2.27 5.05,1.9 5.97,-1.01c1.36,-4.26 -5.39,-6.89 -7.5,-2.93c-0.84,1.57 -0.56,2.3 1.53,3.94zm296.43,-326.48c0.24,0.11 0.47,0.21 0.68,0.3c2.3,1.01 3.01,1.32 3.23,1.11c0.1,-0.09 0.1,-0.3 0.09,-0.59c0,-0.06 0,-0.12 0,-0.19c0,-1.52 -7.58,-5.02 -10.88,-5.02c-3.78,0 -6.12,0.9 -6.12,2.36c0,0.74 1.67,1.03 4.75,0.82c2.76,-0.18 6.22,0.32 8.25,1.21zm-36,367.63c0,0.56 3.44,0.98 8,0.98c7.97,0 10.31,-1.18 5.75,-2.9c-3.38,-1.27 -13.75,0.18 -13.75,1.92zm-65.55,-41.08c2.29,2.54 2.79,2.55 4.98,0.13c2.57,-2.83 1.67,-5.57 -1.83,-5.57c-4.01,0 -5.6,2.74 -3.15,5.44zm-273.45,41.17c0,0.49 3.88,0.89 8.62,0.89c7.55,0 8.47,-0.19 7.38,-1.5c-2.04,-2.45 -16,-1.92 -16,0.61zm142.44,-45.23c1.79,3.46 2.74,3.82 4.51,1.68c2.94,-3.55 -1.33,-9.61 -4.52,-6.42c-1.48,1.48 -1.48,1.86 0.01,4.74zm220.56,44.95c0,1.21 13.36,0.1 14.75,-1.22c0.97,-0.92 -0.11,-1.22 -4.9,-1.35c-5.82,-0.16 -9.85,0.89 -9.85,2.57zm-306.06,-128.67c2.79,2.25 3.45,2.28 5.16,0.23c1.14,-1.39 1,-1.89 -0.99,-3.5c-2.88,-2.33 -4.97,-2.41 -5.81,-0.23c-0.4,1.06 0.19,2.32 1.64,3.5zm-68.44,129.18c1.65,0.2 3.56,0.43 4.25,0.51c1.93,0.23 1.48,-0.65 -0.99,-1.98c-2.68,-1.43 -14.76,-2.15 -14.76,-0.88c0,0.8 2.1,1.23 11.5,2.35zm41.62,-584.12c1.23,2.31 2.56,2.26 3.84,-0.15c1.2,-2.24 1.4,-7.08 0.29,-7.05c-2.75,0.05 -5.44,4.75 -4.13,7.2zm186.13,-30.87c3.77,1.55 7.3,-2.23 4.6,-4.93c-1.29,-1.29 -2.04,-1.39 -3.73,-0.48c-2.32,1.24 -2.86,4.59 -0.87,5.41zm-22.15,627.74c1.92,1.21 5.64,1.13 6.43,-0.13c0.99,-1.61 -1.49,-3.96 -4.18,-3.96c-2.78,0 -4.31,2.78 -2.25,4.09zm170.9,-189.02c0,1.2 12.7,1.22 13.44,0.02c0.72,-1.15 -8.65,-2.48 -11.38,-1.61c-1.13,0.36 -2.06,1.07 -2.06,1.59zm-358,-246.65c0,3.07 -0.21,5.58 -0.48,5.58c-0.26,0 -1.23,-1.16 -2.16,-2.58c-1.82,-2.78 -1.04,-7.36 1.39,-8.17c0.9,-0.3 1.25,1.15 1.25,5.17zm287.2,294.38c0.66,0.66 1.47,1.2 1.8,1.2c1.22,0 3,-2.45 3,-4.14c0,-2.41 -1.58,-3.15 -3.98,-1.87c-2.28,1.22 -2.59,3.04 -0.82,4.81zm-314.45,-47.52c1.51,0.23 4.98,0.49 7.7,0.57c3.86,0.12 4.68,-0.12 3.75,-1.05c-1.4,-1.4 -14.2,-2.14 -14.2,-0.82c0,0.49 1.24,1.07 2.75,1.3zm335.42,-115.59c2.49,2.64 2.98,2.76 4.62,1.12c1.63,-1.63 -1.3,-4.81 -4.44,-4.81c-2.91,0 -2.95,0.73 -0.18,3.69zm-277.7,0.27c0.92,1.48 3.08,1.29 4.49,-0.42c1.36,-1.63 0.61,-3.54 -1.4,-3.54c-1.79,0 -3.88,2.67 -3.09,3.96zm329.03,-238.96c-0.39,0.62 1.66,1 5.44,1c3.37,0 6.06,-0.44 6.06,-1c0,-0.55 -2.45,-1 -5.44,-1c-2.99,0 -5.72,0.45 -6.06,1zm-389.44,2.11c0.56,1.04 1.78,1.88 2.73,1.86c1.52,-0.03 1.49,-0.2 -0.23,-1.5c-1.86,-1.41 -1.83,-1.47 0.75,-1.47c1.48,0 2.69,-0.45 2.69,-1c0,-1.13 -1.47,-1.25 -4.73,-0.38c-1.82,0.49 -2.04,0.94 -1.21,2.49zm1.94,176.93c1.92,0.38 5.3,0.71 7.5,0.73c3.64,0.02 3.46,-0.1 -2,-1.33c-3.3,-0.75 -6.67,-1.07 -7.5,-0.73c-0.98,0.41 -0.28,0.88 2,1.33zm370.39,107.38c-1.11,2.91 -1.95,1.62 -1.56,-2.41c0.21,-2.2 0.78,-3.75 1.27,-3.45c1.04,0.64 1.18,3.55 0.29,5.86zm-338.89,49.58c-0.34,0.55 -2.73,0.97 -5.31,0.93c-3.54,-0.05 -4.2,-0.28 -2.69,-0.93c2.84,-1.22 8.75,-1.22 8,0zm265.5,-470.5c0,1.93 0.45,3.5 1,3.5c0.55,0 1,-1.57 1,-3.5c0,-1.93 -0.45,-3.5 -1,-3.5c-0.55,0 -1,1.57 -1,3.5zm-230.51,374.2l0.74,2.8l1.05,-2.28c0.76,-1.65 0.73,-2.61 -0.1,-3.44c-1.7,-1.7 -2.52,-0.27 -1.69,2.92zm315.74,-57.89c-0.6,1.8 1.47,1.42 2.16,-0.39c0.38,-0.98 0.15,-1.43 -0.58,-1.19c-0.65,0.22 -1.36,0.93 -1.58,1.58zm16.27,-195.81c0.34,0.55 0.17,1 -0.38,1c-0.55,0 -1.28,-0.45 -1.62,-1c-0.34,-0.55 -0.17,-1 0.38,-1c0.55,0 1.28,0.45 1.62,1z"/>
   </g>
  </g>
 </g>

</svg>