<svg width="40" height="25" xmlns="http://www.w3.org/2000/svg">

 <g>
  <g stroke="null" id="svg_1" fill="#fff" >
   <path stroke="currentColor" stroke-width="0.2" id="svg_2" d="m0.49936,22.88049c-0.05193,-0.04947 -0.11502,-0.17454 -0.14041,-0.27722c-0.03539,-0.14281 -0.04616,-2.48748 -0.04501,-9.95272c0.00115,-10.6229 -0.01423,-9.87572 0.20542,-10.05026c0.07848,-0.06254 1.64645,-0.07047 13.83053,-0.0714c9.49284,-0.00047 13.76552,0.01447 13.81746,0.04807c0.17542,0.11434 0.20581,0.25248 0.2035,0.92639c-0.00115,0.35002 -0.01269,0.91005 -0.02539,1.24514c-0.03077,0.81905 -0.0327,0.81251 0.23735,0.79945l0.21735,-0.01073l0.04232,-0.41909c0.04462,-0.43869 0.09463,-0.71824 0.18234,-1.01786c0.04155,-0.14141 0.08848,-0.19928 0.22158,-0.27255c0.14887,-0.08214 0.24312,-0.09241 0.78475,-0.08541c0.33852,0.00467 0.64127,0.0042 0.6732,-0.00093c0.03193,-0.00513 0.87554,-0.01773 1.87533,-0.02847c1.13943,-0.01213 1.81763,-0.0364 1.81763,-0.06487c0,-0.02473 -0.0277,-0.04527 -0.06193,-0.04527c-0.1281,0 -0.52625,-0.30475 -0.69358,-0.53063c-0.22158,-0.29915 -0.3216,-0.53763 -0.3216,-0.76865c0,-0.34069 0.14118,-0.36029 0.55779,-0.07794c0.45085,0.30568 0.71166,0.68417 0.71166,1.03326c0,0.09334 0.03962,0.18901 0.12002,0.28842l0.12002,0.14888l0.54356,0.00373c1.22945,0.00793 2.77819,0.08214 2.9286,0.14047c0.42238,0.16381 0.68705,0.59177 0.87746,1.41922c0.23235,1.00946 0.31467,1.75477 0.4597,4.15358c0.06232,1.03326 0.06309,4.9899 0.00077,5.92702c-0.09386,1.41828 -0.12502,1.82804 -0.16541,2.17013c-0.13849,1.1658 -0.30659,1.99839 -0.50394,2.49215c-0.19888,0.49796 -0.39507,0.67344 -0.86092,0.76771c-0.437,0.08821 -1.6099,0.15168 -2.23117,0.12041c-0.67589,-0.03407 -1.16444,0.02473 -1.23907,0.14888c-0.02731,0.04527 -0.04962,0.13347 -0.04962,0.19648c0,0.41769 -0.24543,0.78078 -0.7309,1.08133c-0.27582,0.17081 -0.38853,0.19695 -0.46893,0.10874c-0.07924,-0.08727 -0.09271,-0.34115 -0.02577,-0.49703c0.15195,-0.35422 0.73513,-0.96512 0.9217,-0.96512c0.0377,0 0.07848,-0.02007 0.09117,-0.04434c0.01385,-0.02753 -0.73475,-0.04294 -1.98843,-0.042c-2.7678,0.00327 -3.09555,-0.035 -3.30636,-0.38362c-0.09463,-0.15634 -0.18811,-0.6319 -0.21812,-1.11167l-0.02539,-0.40182l-0.22119,-0.014l-0.22119,-0.014l0,1.77297c0,1.83271 -0.00808,1.93958 -0.16311,2.14026l-0.08117,0.10501l-13.77899,0c-13.55933,0 -13.78053,-0.0014 -13.87362,-0.09007zm0.4497,-0.5367l0,-0.36962l-0.18196,-0.01307c-0.24774,-0.01727 -0.31082,0.06207 -0.27659,0.35002c0.03731,0.31362 0.14349,0.42796 0.38161,0.40882c0.07001,-0.0056 0.07694,-0.0392 0.07694,-0.37616zm26.54318,-0.00327l0,-0.37336l-13.13426,-0.01027c-9.46437,-0.00747 -13.14849,0.00373 -13.18504,0.0406c-0.05232,0.05274 -0.07194,0.5255 -0.02731,0.66597c0.02116,0.0672 1.20791,0.0728 13.18504,0.06207l13.16157,-0.01167l0,-0.37336zm0.5551,0.32855c0.13195,-0.08307 0.15657,-0.15308 0.15657,-0.44383c0,-0.25388 -0.005,-0.25808 -0.30775,-0.25808l-0.21158,0l-0.01154,0.32202c-0.00615,0.17734 -0.00269,0.35049 0.00846,0.38502c0.02616,0.08307 0.22927,0.08027 0.36583,-0.00513zm5.76795,-0.61184c0.14849,-0.09147 0.3316,-0.24921 0.407,-0.35002c0.13887,-0.18714 0.17888,-0.38736 0.0854,-0.43076c-0.06193,-0.02894 -0.38122,0.20255 -0.55818,0.40416c-0.18272,0.20861 -0.31506,0.54323 -0.21427,0.54323c0.00539,0 0.13118,-0.07514 0.28005,-0.16661zm-32.85661,-9.34229l-0.00962,-8.99553l-0.23081,0l-0.23081,0l-0.00692,7.78119c-0.00385,4.27959 -0.01385,7.79753 -0.0227,7.81713c-0.00885,0.0196 -0.00269,0.29822 0.01346,0.6193c0.01577,0.32109 0.03039,0.85125 0.03231,1.1784l0.00308,0.59504l0.23081,0l0.23119,0l-0.01,-8.99553zm26.5528,0.01167l0,-8.98387l-13.19504,0l-13.19465,0l-0.00077,7.78213c-0.00038,4.28005 -0.00308,7.8134 -0.00577,7.85213c-0.00308,0.03874 -0.00231,0.57917 0.00077,1.20174l0.00615,1.13173l13.19465,0l13.19465,0l0,-8.98387zm0.67012,8.94326c0.01154,-0.0224 0.02193,-4.06024 0.02308,-8.9722l0.00231,-8.9316l-0.22273,-0.035c-0.12233,-0.0196 -0.24427,-0.0252 -0.27082,-0.01307c-0.03808,0.01727 -0.04809,1.86164 -0.04809,9.0072l0,8.98527l0.24774,0c0.13618,0 0.25697,-0.0182 0.26851,-0.0406zm5.10975,-1.10887c1.15367,-0.02473 1.41371,-0.042 1.41371,-0.09381c0,-0.05274 -0.42161,-0.06347 -2.52237,-0.06347c-1.66491,0 -2.54738,-0.01633 -2.59662,-0.04854c-0.08386,-0.05414 -0.09771,-0.16194 -0.0277,-0.21421c0.02577,-0.01913 1.25061,-0.0322 2.72164,-0.02894c1.47142,0.00327 2.80434,-0.01307 2.96206,-0.03594c0.17272,-0.02567 0.32467,-0.07654 0.38238,-0.12834c0.19196,-0.17408 0.15233,-0.19835 -0.31006,-0.19228c-0.24004,0.00373 -0.57779,0.00373 -0.75052,0.00047l-0.31429,-0.0056l-0.04462,-0.16288c-0.03654,-0.13394 -0.02962,-0.25715 0.03885,-0.68837c0.04578,-0.28888 0.09963,-0.69351 0.11964,-0.89885c0.02,-0.20535 0.05347,-0.54137 0.07386,-0.74671c0.13387,-1.33661 0.18734,-2.77963 0.18696,-5.01696c-0.00077,-2.89677 -0.1431,-5.39732 -0.38545,-6.77967c-0.07501,-0.42703 -0.07578,-0.46389 -0.01654,-0.57357l0.06347,-0.11761l0.73859,0.0056c0.40623,0.00327 0.73436,-0.00653 0.72898,-0.02147c-0.00539,-0.01493 -0.00962,-0.04574 -0.00962,-0.0686c0,-0.02287 -0.07771,-0.08587 -0.17272,-0.14001c-0.1708,-0.09754 -0.20196,-0.09847 -3.0944,-0.09847c-1.9238,0 -2.92975,-0.01587 -2.94591,-0.04714c-0.01308,-0.02567 -0.01269,-0.08867 0.00038,-0.14001c0.02116,-0.08027 0.05847,-0.09287 0.27197,-0.09287c0.19427,0 0.24735,-0.01493 0.24735,-0.07c0,-0.05507 -0.05309,-0.07 -0.24697,-0.07c-0.13579,0 -0.27082,-0.0112 -0.30005,-0.02473c-0.09348,-0.0434 -0.30813,0.17548 -0.36353,0.37149c-0.13387,0.47229 -0.13772,0.71824 -0.13272,7.82693c0.005,7.44471 0.00769,7.55625 0.18196,8.00101c0.10733,0.27535 0.14733,0.29355 0.74783,0.34582c0.30582,0.0266 0.64242,0.056 0.74821,0.06534c0.10579,0.00933 0.41738,0.0098 0.69243,0.00047c0.27505,-0.00933 1.13636,-0.0308 1.9138,-0.04807zm2.45236,-0.06627c0.30659,-0.02567 0.69628,-0.0672 0.86554,-0.09241c0.16926,-0.0252 0.48085,-0.0644 0.69243,-0.08634c0.21158,-0.0224 0.44546,-0.0672 0.51932,-0.09941c0.38507,-0.16754 0.70051,-0.89559 0.90708,-2.09266c0.0327,-0.18901 0.04962,-0.35515 0.0377,-0.36962c-0.01193,-0.01447 -0.0604,-0.0042 -0.1081,0.0224c-0.3743,0.21188 -0.95517,0.38689 -1.2833,0.38689c-0.1985,0 -0.21196,-0.007 -0.20042,-0.10501c0.01,-0.08634 0.03924,-0.10687 0.16618,-0.11667c0.25043,-0.01867 0.5928,-0.10781 0.95863,-0.24968c0.18888,-0.07327 0.38122,-0.12134 0.42738,-0.10734c0.07617,0.02287 0.08578,0.0028 0.10848,-0.22308c0.17542,-1.7571 0.20234,-2.43334 0.20658,-5.14857c0.00346,-2.35867 -0.02462,-3.03911 -0.20311,-4.94696c-0.07001,-0.74904 -0.13041,-1.0846 -0.30736,-1.70623c-0.16041,-0.56237 -0.3566,-0.91379 -0.61242,-1.0958c-0.13541,-0.09614 -0.26505,-0.13347 -0.64319,-0.18434c-0.26043,-0.035 -0.58587,-0.08541 -0.72359,-0.11201c-0.13772,-0.02613 -0.41469,-0.06954 -0.61549,-0.09567c-0.96286,-0.12461 -1.0975,-0.12181 -0.99979,0.021c0.02616,0.03827 0.10502,0.06954 0.17542,0.06954c0.18465,0 0.51932,0.09241 0.63819,0.17641c0.05616,0.03967 0.13502,0.14748 0.17465,0.23941c0.0677,0.15634 0.08732,0.16894 0.29159,0.19134c0.17695,0.01913 0.23235,0.0462 0.28697,0.14001c0.1885,0.32249 0.38122,1.56949 0.49817,3.22066c0.05655,0.79805 0.0677,1.51396 0.06847,4.33932c0.00115,3.42974 -0.01616,4.00984 -0.15734,5.22698c-0.05539,0.48116 -0.13425,0.98379 -0.20427,1.30674c-0.14041,0.64824 -0.20888,0.74671 -0.5174,0.74671c-0.20696,0 -0.21196,0.00327 -0.30005,0.19508c-0.11464,0.25015 -0.28582,0.36262 -0.60357,0.39716c-0.29197,0.03127 -0.39584,0.0812 -0.36583,0.17501c0.01385,0.04434 0.06078,0.0588 0.14272,0.0448c0.06693,-0.01167 0.37314,-0.042 0.67974,-0.06767zm2.64278,-0.05134c0.46739,-0.17268 0.80091,-1.48875 1.00903,-3.98324c0.12348,-1.48175 0.13502,-1.82944 0.13502,-4.08358c0,-1.50696 -0.01731,-2.58409 -0.0477,-2.98684c-0.02616,-0.34675 -0.06501,-0.86105 -0.08617,-1.1434c-0.14041,-1.87238 -0.3516,-3.10958 -0.62973,-3.68315c-0.12579,-0.25995 -0.30044,-0.40416 -0.57779,-0.47649c-0.28159,-0.07327 -0.72436,-0.08541 -0.63742,-0.01727c0.03193,0.02473 0.08925,0.04574 0.12733,0.04574c0.13733,0.0014 0.48085,0.24688 0.61242,0.43823c0.14733,0.21375 0.36853,0.74858 0.427,1.03279c0.01077,0.05134 0.05347,0.24035 0.09502,0.42002c0.04193,0.17968 0.09579,0.47369 0.12041,0.65337c0.02424,0.17968 0.06078,0.44243 0.0804,0.58337c0.0904,0.6375 0.23004,3.63975 0.23004,4.93949c-0.00038,1.53729 -0.12925,4.40046 -0.2335,5.18311c-0.11887,0.89185 -0.35391,1.94705 -0.52548,2.35821c-0.12502,0.30008 -0.42238,0.65617 -0.5801,0.69444c-0.0677,0.01633 -0.12271,0.05227 -0.12271,0.0798c0,0.05694 0.40046,0.021 0.60395,-0.0546zm-2.4966,-1.42808c0.25774,-1.058 0.40392,-2.02032 0.47278,-3.11518c0.10502,-1.6619 0.10425,-5.5378 -0.00077,-6.97008c-0.09425,-1.28714 -0.42508,-3.48341 -0.57587,-3.82549c-0.04347,-0.09847 -0.06617,-0.10174 -0.71282,-0.10174c-0.49855,0 -0.67243,0.01493 -0.68589,0.05834c-0.01039,0.0322 0.00615,0.23661 0.03654,0.45503c0.15695,1.1308 0.19657,1.56716 0.28544,3.15019c0.12464,2.2294 0.09425,6.29291 -0.0627,8.30716c-0.07963,1.02019 -0.10502,1.25447 -0.20811,1.91345c-0.02,0.12834 -0.0377,0.32249 -0.03885,0.43169l-0.00231,0.19835l0.68512,0l0.68512,0l0.12233,-0.5017zm0.49393,0.39622c0.12618,-0.15961 0.34468,-1.42715 0.43662,-2.53135c0.08463,-1.01879 0.15195,-5.26431 0.08425,-5.31518c-0.01731,-0.01307 -0.08655,0.16941 -0.15387,0.40556c-0.11848,0.41536 -0.12271,0.45503 -0.12464,1.22274c-0.00346,1.51862 -0.12387,3.41434 -0.2839,4.47747c-0.08886,0.58897 -0.12541,0.77845 -0.25428,1.32215c-0.06232,0.26368 -0.11348,0.49236 -0.11348,0.50823c0,0.04994 0.3616,-0.0294 0.4093,-0.08961zm-7.52595,-0.84192c0,-0.15774 -0.07194,-0.21935 -0.25581,-0.21935c-0.1758,0 -0.24966,0.08214 -0.21542,0.23988c0.01539,0.07234 0.05655,0.08681 0.24504,0.08681c0.21042,0 0.22619,-0.00747 0.22619,-0.10734zm-0.06693,-0.54323c0.02077,-0.0224 0.04039,-7.90954 0.02847,-11.48348c0,-0.02567 -0.09502,-0.04667 -0.21158,-0.04667l-0.21158,0l0,5.77908c0,3.17866 0.01116,5.79308 0.025,5.80988c0.02924,0.03547 0.3266,-0.01167 0.36968,-0.0588zm7.93179,-6.55986c0.0327,-0.09007 0.08809,-0.24175 0.1231,-0.33695c0.05616,-0.15308 0.06078,-0.30802 0.03731,-1.29508c-0.02577,-1.10093 -0.10733,-2.50428 -0.17465,-3.01158c-0.08348,-0.6305 -0.12964,-0.92592 -0.17811,-1.1434c-0.13464,-0.6053 -0.15657,-0.6431 -0.36853,-0.64871c-0.19657,-0.0056 -0.19234,-0.0546 -0.05386,0.64871c0.27659,1.40288 0.51278,3.86423 0.51855,5.40199c0.00115,0.30148 0.00962,0.54837 0.01923,0.54837c0.00962,0 0.04424,-0.07327 0.07694,-0.16334zm-7.9895,-5.28718c0.05155,0.01027 0.06963,-0.02473 0.07848,-0.15588c0.01077,-0.15681 0.00308,-0.17081 -0.10579,-0.19041c-0.06463,-0.0112 -0.16926,-0.01167 -0.23273,0c-0.09694,0.01727 -0.11541,0.04154 -0.11541,0.15261c0,0.16754 0.13272,0.29448 0.23735,0.22635c0.03924,-0.02567 0.10156,-0.04014 0.1381,-0.03267zm5.96452,-2.09826c-0.01231,-0.07654 -0.1458,-0.0826 -2.06075,-0.09381c-1.69261,-0.0098 -2.04806,-0.00093 -2.04806,0.0504c0,0.03454 0.01154,0.077 0.02577,0.09381c0.01385,0.01727 0.94132,0.03127 2.06075,0.03127c1.91765,0 2.03459,-0.00467 2.02228,-0.08167zm-4.28191,-0.01167c0.01346,-0.0266 -0.01885,-0.04667 -0.07463,-0.04667c-0.05424,0 -0.09848,0.021 -0.09848,0.04667c0,0.02567 0.03347,0.04667 0.07463,0.04667c0.04116,0 0.0854,-0.021 0.09848,-0.04667zm-29.46293,-0.6319c0.01077,-0.05227 0.01423,-0.22028 0.00808,-0.37336l-0.01193,-0.27815l-0.13772,-0.014c-0.20619,-0.021 -0.31006,0.10361 -0.33352,0.39996c-0.02693,0.34115 -0.01423,0.36075 0.23735,0.36075c0.18734,0 0.22081,-0.01353 0.23773,-0.09521zm26.53933,-0.30148l0,-0.35002l-13.18504,-0.01167l-13.18504,-0.01167l0,0.34209c0,0.18854 0.01154,0.35655 0.02577,0.37336c0.01423,0.01727 5.94721,0.02613 13.18504,0.0196l13.15926,-0.01167l0,-0.35002zm0.71166,0.11947c0,-0.35655 -0.09617,-0.49283 -0.34891,-0.49283l-0.18965,0l0,0.34722l0,0.34722l0.14426,0.01447c0.07924,0.00793 0.20042,0.0182 0.26928,0.02287l0.12502,0.0084l0,-0.24735zm6.09416,-0.00793c0.03347,-0.0154 0.06078,-0.0742 0.06078,-0.13067c0,-0.11434 -0.24774,-0.44056 -0.41277,-0.54417c-0.05847,-0.0364 -0.11502,-0.0798 -0.12579,-0.09661c-0.03654,-0.05647 -0.31583,-0.17968 -0.35006,-0.15401c-0.10771,0.08074 0.31429,0.66691 0.6278,0.87225c0.14503,0.09474 0.12348,0.08914 0.20004,0.0532zm-4.70084,16.10469c-0.15926,-0.05367 -0.28813,-0.24968 -0.3643,-0.55397c-0.03731,-0.14888 -0.04809,-1.6045 -0.04809,-6.56172c0,-6.87534 -0.00731,-6.62846 0.20388,-6.90848l0.10386,-0.13814l2.06344,-0.0056l2.06344,-0.00513l0.12194,0.10921c0.16464,0.14748 0.33698,0.60297 0.38815,1.02533c0.09771,0.80318 0.11348,1.00246 0.15926,2.00259c0.0654,1.42855 0.06463,6.31951 -0.00115,7.7938c-0.06001,1.34921 -0.13233,2.13373 -0.21388,2.32507c-0.03231,0.07654 -0.07001,0.22308 -0.08348,0.32575c-0.03424,0.25902 -0.21196,0.50683 -0.41238,0.5759c-0.21042,0.07234 -3.77221,0.08634 -3.98071,0.0154zm3.47369,-0.20208c0.42892,-0.02987 0.47278,-0.04154 0.60626,-0.16521c0.07924,-0.07327 0.15387,-0.18854 0.16618,-0.25575c0.01193,-0.0672 0.05463,-0.21935 0.09425,-0.33789c0.04001,-0.11854 0.07117,-0.27582 0.06886,-0.35002c-0.005,-0.17314 0.07463,-1.38375 0.12118,-1.83784c0.05847,-0.57357 0.08886,-5.20364 0.04385,-6.67373c-0.0854,-2.7843 -0.17234,-3.54968 -0.44893,-3.94917l-0.12541,-0.18108l-2.0219,0c-1.82379,0 -2.02844,0.00747 -2.08537,0.07654c-0.16695,0.20255 -0.16926,0.29635 -0.16965,6.7652c-0.00038,3.44234 0.01423,6.20143 0.03347,6.27704c0.01846,0.07467 0.05424,0.22635 0.07924,0.33695c0.07424,0.33135 0.07617,0.33182 1.733,0.32949c0.79322,-0.00093 1.65068,-0.01633 1.90495,-0.03454zm5.42327,-12.33426c-0.06347,-0.02567 -0.15003,-0.06394 -0.19234,-0.08494c-0.07194,-0.03594 -0.19273,-0.06814 -0.70397,-0.18714c-0.11194,-0.02613 -0.2562,-0.0476 -0.32006,-0.0476c-0.09848,0 -0.11425,-0.01587 -0.10386,-0.10501c0.01154,-0.09941 0.02693,-0.10407 0.28159,-0.08867c0.28351,0.0168 0.45354,0.05274 0.76937,0.16241c0.34929,0.12134 0.48085,0.20581 0.48085,0.30895c0,0.10454 -0.03731,0.11201 -0.21158,0.042z"/>
  </g>
 </g>
</svg>
