<svg width="856" height="266" xmlns="http://www.w3.org/2000/svg">
 <g>
  <title>Layer 1</title>
  <g transform="rotate(180 427.785 133)">
   <g transform="rotate(-90 427.785 133)">
    <path fill="currentColor" d="m539.79455,400.79936l-4.92,4.92l-106.86,0c-106.15,0 -106.87,-0.01 -109.04,-2.04l-2.19,-2.04l0,-532.01l2.45,-2.46l2.46,-2.45l211.98,0l2.8,2.41l2.81,2.42l0.26,265.62l0.25,265.63zm-155.47,-550.14c-0.81,1.31 -54.37,1.46 -56.41,0.16c-2.19,-1.39 -0.91,-54.28 1.64,-67.44c2.23,-11.56 1.77,-12.66 -5.34,-12.66l-4.43,0l0,10.1c0,8.6 -0.31,10.52 -2.07,13c-2.01,2.83 -2.29,2.9 -10.94,2.9c-11.45,0 -11.99,-0.62 -11.99,-13.75c0,-10.99 1.48,-15.36 6.19,-18.22c2.92,-1.78 4.93,-2.01 17.13,-1.93c7.6,0.05 14.02,-0.1 14.25,-0.34c0.24,-0.23 1.99,-9.05 3.9,-19.58c1.9,-10.54 4.13,-20.44 4.95,-22.02c2.69,-5.21 5.73,-6.34 28.58,-10.64c33.72,-6.33 77.35,-6.71 111.5,-0.96c24.56,4.13 29.74,5.83 33.02,10.83c1.47,2.24 6.48,25.1 7.97,36.36c0.38,2.89 1.13,5.52 1.66,5.84c0.53,0.33 7,0.56 14.37,0.51c7.45,-0.05 14.43,0.37 15.71,0.96c1.27,0.58 3.31,2.52 4.54,4.31c1.99,2.9 2.23,4.5 2.23,14.74c0,7.6 -0.41,11.9 -1.2,12.69c-0.74,0.74 -4.39,1.2 -9.55,1.2c-7.52,0 -8.58,-0.24 -10.8,-2.45c-2.29,-2.3 -2.45,-3.14 -2.45,-13l0,-10.55l-3.57,0c-7.94,0 -8.61,2.09 -5.92,18.5c1.05,6.35 1.48,16.88 1.49,35.75l0,26.75l-28.52,0c-21.32,0 -27.53,0 -28.29,-2.03c-0.31,-0.84 0.3,-2.02 1.16,-3.69l0.05,-0.09c2.45,-4.73 9.11,-9.75 15.88,-11.97c4.06,-1.32 6.34,-2.64 6.57,-3.78c0.31,-1.53 -0.22,-1.66 -4.37,-1.09c-6.47,0.88 -15.61,5.16 -19.4,9.07c-1.73,1.78 -3.99,5.46 -5.01,8.16l-1.87,4.92l-36.63,0.26l-36.63,0.26l-1.83,-4.27c-2.46,-5.72 -6.14,-9.93 -11.86,-13.54c-5.97,-3.77 -16.07,-6.79 -17.59,-5.27c-1.49,1.49 0.71,3.32 6.51,5.45c2.57,0.95 6.5,3.04 8.73,4.66c4.56,3.3 9.63,10.28 8.64,11.89zm146.39,619.31c-3.2,1.63 -10.15,1.75 -102.43,1.75c-96.92,0 -99.08,-0.04 -103.03,-2c-7.06,-3.49 -7.47,-5.02 -7.47,-28.2c0,-14.53 0.35,-20.75 1.2,-21.6c0.92,-0.92 26.57,-1.2 109.38,-1.2c92.31,0 108.35,0.21 109.36,1.42c0.84,1.02 1.09,7.24 0.87,21.93c-0.35,22.91 -0.72,24.25 -7.88,27.9zm-132.53,89.36c-4.89,2.04 -23.87,1.85 -28.2,-0.28c-6.08,-3 -6.2,-3.79 -6.2,-39.85c0,-20.45 0.38,-33.33 1.03,-34.54c2.13,-3.97 6.11,-4.94 20.36,-4.94c12.82,0 13.64,0.12 16.3,2.41c2.7,2.32 2.83,2.84 3.31,13.75l0.5,11.34l46,0l0.5,-11.34c0.48,-10.91 0.61,-11.43 3.31,-13.75c2.69,-2.31 3.4,-2.41 17.66,-2.41l14.85,0l2.59,3.08l2.59,3.07l0,32.98c0,36.58 -0.11,37.27 -6.36,40.24c-4.49,2.13 -23.13,2.29 -28.04,0.24c-5.83,-2.44 -6.6,-4.57 -6.6,-18.33l0,-12.28l-47,0l0,12.28c0,13.76 -0.77,15.89 -6.6,18.33zm-46.8,-765.92c1.43,1.05 16.69,1.31 76.97,1.31c66.72,0 75.33,-0.17 76.47,-1.55c1.04,-1.25 1.06,-3.09 0.07,-9.5c-1.65,-10.83 -2.83,-13.75 -6.24,-15.52c-3.86,-1.99 -28.99,-6.13 -45.87,-7.55c-18.64,-1.57 -52.85,-0.56 -69.5,2.05c-18.82,2.96 -27.06,4.92 -28.76,6.86c-0.82,0.94 -2.27,6.41 -3.21,12.15c-1.64,9.99 -1.64,10.51 0.07,11.75zm120.62,571.75c2.72,1.9 2.92,1.91 5.31,0.16c1.86,-1.36 1.91,-6.43 2.22,-231.63c0.3,-214.95 0.21,-230.36 -1.37,-232.1c-2.09,-2.31 -4.16,-2.38 -6.55,-0.22c-1.76,1.6 -1.83,10.12 -1.83,231.95l0,230.29l2.22,1.55zm-93,0c2.81,1.97 3.11,1.95 5.13,-0.27c1.53,-1.7 1.64,-18.94 1.4,-232.64c-0.23,-213.18 -0.38,-230.89 -1.9,-231.85c-1.22,-0.77 -2.33,-0.6 -4.25,0.66l-2.6,1.71l0,460.84l2.22,1.55zm46.43,-0.27c2.1,2.31 3.6,2.31 5.7,0c1.53,-1.7 1.64,-18.94 1.4,-232.64c-0.23,-214.49 -0.37,-230.89 -1.92,-231.87c-1.19,-0.75 -2.42,-0.71 -4.25,0.12l-2.58,1.18l0,230.69c0,213.26 0.13,230.83 1.65,232.52zm-75.26,194.31c-4.81,2.29 -23.75,2.04 -28.27,-0.37c-6.03,-3.21 -6.05,-3.33 -6.08,-39.94l-0.04,-33.32l2.92,-2.93l2.93,-2.92l29.97,0l5.18,6.15l0,33.02c0,36.65 -0.09,37.22 -6.61,40.31zm184.01,0.13c-4.71,1.96 -23.86,1.86 -27.95,-0.16c-6.35,-3.13 -6.45,-3.77 -6.45,-40.21l0,-32.95l2.45,-2.64c2.31,-2.5 3.05,-2.66 12.75,-2.89c21.53,-0.5 21.75,-0.48 23.84,2.25c1.8,2.34 1.92,4.57 1.94,36.52l0,1.22c0.02,28.21 0.02,34.38 -3.02,37c-0.9,0.77 -2.06,1.23 -3.56,1.86zm-39.65,-101.69c0.96,0.56 8.11,1.03 15.88,1.05c10.98,0.02 14.39,-0.28 15.3,-1.38c0.7,-0.85 1.05,-3.94 0.87,-7.75l-0.3,-6.34l-15.5,-0.58c-9.27,-0.35 -16,-0.2 -16.75,0.37c-0.77,0.59 -1.25,3.4 -1.25,7.28c0,4.97 0.38,6.55 1.75,7.35zm-163.11,-0.2c2.61,1.91 29.69,1.79 31.29,-0.13c0.7,-0.85 1.05,-3.94 0.87,-7.75l-0.3,-6.34l-33,0l-0.3,6.47c-0.25,5.24 0.03,6.72 1.44,7.75zm5.96,-665.56c1.01,1.64 2.25,0.8 2.82,-1.91c0.32,-1.51 1.92,-11.3 3.56,-21.75c1.65,-10.45 3.41,-21.47 3.92,-24.5c0.92,-5.49 0.09,-8.43 -1.81,-6.45c-0.5,0.52 -2.28,9.73 -3.96,20.45c-4.58,29.35 -5.09,33.25 -4.53,34.16zm179,0c1.04,1.69 2.4,0.78 2.4,-1.61c0,-2.77 -3.53,-28.28 -5.02,-36.3c-2.79,-14.96 -3.15,-16.25 -4.6,-16.25c-1.11,0 -1.33,0.8 -0.91,3.25c0.31,1.79 2.15,13.78 4.09,26.66c1.93,12.88 3.75,23.79 4.04,24.25z"/>
   </g>
  </g>
 </g>

</svg>